<?xml version="1.0" encoding="utf-8"?>
<!-- Generator: Adobe Illustrator 21.0.2, SVG Export Plug-In . SVG Version: 6.00 Build 0)  -->
<svg version="1.1" id="Layer_2" xmlns="http://www.w3.org/2000/svg" xmlns:xlink="http://www.w3.org/1999/xlink" x="0px" y="0px"
	 viewBox="0 0 500 500" style="enable-background:new 0 0 500 500;" xml:space="preserve">
<style type="text/css">
	.st0{fill:#FFFFFF;stroke:#1C3553;stroke-width:6.8;stroke-linecap:round;stroke-linejoin:bevel;stroke-miterlimit:10;}
	.st1{fill:#FFFFFF;}
	.st2{fill:#C5E4FF;}
	.st3{fill:none;stroke:#1C3553;stroke-width:6.8;stroke-linecap:round;stroke-linejoin:round;stroke-miterlimit:10;}
	.st4{fill:#FFFFFF;stroke:#1C3553;stroke-width:6.8;stroke-linecap:round;stroke-linejoin:round;stroke-miterlimit:10;}
	.st5{fill:none;stroke:#1C3553;stroke-width:9.84;stroke-linecap:round;stroke-linejoin:round;stroke-miterlimit:10;}
	.st6{fill:none;stroke:#1C3553;stroke-width:3.4;stroke-linecap:round;stroke-linejoin:round;stroke-miterlimit:10;}
	.st7{fill:#1C3553;}
</style>
<path class="st0" d="M158.93,150.3c0,0-5.02-4.67-12.55-4.67c-7.53,0-17.57,8-17.57,24.36s15.06,43.4,37.66,48.08
	S158.93,150.3,158.93,150.3z"/>
<path class="st0" d="M341.55,150.3c0,0,5.02-4.67,12.55-4.67c7.53,0,17.57,8,17.57,24.36s-15.06,43.4-37.66,48.08
	C311.42,222.73,341.55,150.3,341.55,150.3z"/>
<path class="st1" d="M428.24,496.4H72.24v-63.7c0-60.36,48.94-109.3,109.3-109.3h137.39c60.36,0,109.3,48.94,109.3,109.3V496.4z"/>
<g>
	<path class="st2" d="M248.58,368.32l-36.3,33.06c-0.56,0.51-1.28,0.78-2.02,0.78c-0.27,0-0.54-0.04-0.81-0.11
		c-1-0.28-1.78-1.05-2.07-2.05l-18.88-64.17c-0.21-0.73-0.15-1.51,0.19-2.19l0.09-0.18c-53.26,1.48-96,45.1-96,98.72v57.58h155.79
		V368.32z"/>
	<path class="st2" d="M318.55,333.45l0.09,0.18c0.34,0.68,0.41,1.47,0.19,2.19L299.96,400c-0.29,1-1.07,1.77-2.07,2.05
		c-0.27,0.08-0.54,0.11-0.81,0.11c-0.74,0-1.46-0.27-2.02-0.78l-36.49-33.23v121.61h155.99v-57.58
		C414.54,378.54,371.81,334.93,318.55,333.45z"/>
</g>
<path class="st3" d="M428.24,496.4H72.24v-63.7c0-60.36,48.94-109.3,109.3-109.3h137.39c60.36,0,109.3,48.94,109.3,109.3V496.4z"/>
<rect x="205.33" y="266.84" class="st1" width="89.83" height="86.5"/>
<path class="st2" d="M205.33,286.56c16.88,13,37.54,20.2,61,20.2c43.58,0,27.01-2.57,38.82-7.39v-32.53h-99.81V286.56z"/>
<rect x="205.33" y="266.84" class="st3" width="89.83" height="86.5"/>
<ellipse class="st4" cx="250.24" cy="158.96" rx="94.82" ry="134.49"/>
<polygon class="st4" points="202.21,396.17 250.24,352.43 193.86,300.11 181.33,325.17 "/>
<polygon class="st4" points="298.27,396.17 250.24,352.43 306.62,300.11 319.15,325.17 "/>
<line class="st3" x1="138.78" y1="496.4" x2="138.78" y2="459.8"/>
<line class="st3" x1="361.7" y1="496.4" x2="361.7" y2="459.8"/>
<line class="st5" x1="220.3" y1="145.4" x2="183.7" y2="145.4"/>
<path class="st6" d="M221.01,231.2c0,0,13.09,7.36,29.23,7.36s29.23-7.36,29.23-7.36"/>
<line class="st6" x1="240.26" y1="255.19" x2="260.22" y2="255.19"/>
<circle class="st7" cx="205.33" cy="170.35" r="9.98"/>
<circle class="st7" cx="295.15" cy="170.35" r="9.98"/>
<line class="st5" x1="280.18" y1="145.4" x2="316.78" y2="145.4"/>
<line class="st6" x1="246.91" y1="205.29" x2="253.57" y2="205.29"/>
<line class="st3" x1="250.24" y1="352.31" x2="250.24" y2="496.4"/>
<circle class="st7" cx="231.94" cy="459.8" r="6.65"/>
<circle class="st7" cx="231.94" cy="416.55" r="6.65"/>
<path class="st4" d="M169.74,74.03c-14.45,0-30.96,0-30.96,39.13s16.51,63.85,16.51,63.85s-3.77-73.18,20.82-87.05
	S169.74,74.03,169.74,74.03z"/>
<path class="st4" d="M330.74,74.03c14.45,0,30.96,0,30.96,39.13s-16.51,63.85-16.51,63.85s3.77-73.18-20.82-87.05
	S330.74,74.03,330.74,74.03z"/>
<path class="st4" d="M250.24,4c-63.21,0-94.82,44.2-94.82,65.25c0,16.84,43.46,37.89,94.82,37.89s94.82-21.05,94.82-37.89
	C345.06,48.2,313.45,4,250.24,4z"/>
<path class="st3" d="M341.73,76.69c-26.66,16.57-71.35,9.47-111.7-14.03"/>
</svg>
