<?xml version="1.0" encoding="utf-8"?>
<!-- Generator: Adobe Illustrator 21.0.2, SVG Export Plug-In . SVG Version: 6.00 Build 0)  -->
<svg version="1.1" id="Layer_3" xmlns="http://www.w3.org/2000/svg" xmlns:xlink="http://www.w3.org/1999/xlink" x="0px" y="0px"
	 viewBox="0 0 500 500" style="enable-background:new 0 0 500 500;" xml:space="preserve">
<style type="text/css">
	.st0{fill:#FFFFFF;stroke:#1C3553;stroke-width:6.8;stroke-linecap:round;stroke-linejoin:bevel;stroke-miterlimit:10;}
	.st1{fill:#FFFFFF;stroke:#1C3553;stroke-width:6.8;stroke-linecap:round;stroke-linejoin:round;stroke-miterlimit:10;}
	.st2{fill:none;stroke:#1C3553;stroke-width:9.84;stroke-linecap:round;stroke-linejoin:round;stroke-miterlimit:10;}
	.st3{fill:#FFFFFF;}
	.st4{fill:#C5E4FF;}
	.st5{fill:none;stroke:#1C3553;stroke-width:6.8;stroke-linecap:round;stroke-linejoin:round;stroke-miterlimit:10;}
	.st6{fill:#1C3553;}
	.st7{fill:none;stroke:#1C3553;stroke-width:3.4;stroke-linecap:round;stroke-linejoin:round;stroke-miterlimit:10;}
</style>
<path class="st0" d="M159.45,150.3c0,0-5.02-4.67-12.55-4.67c-7.53,0-17.57,8-17.57,24.36s15.06,43.4,37.66,48.08
	S159.45,150.3,159.45,150.3z"/>
<path class="st0" d="M342.07,150.3c0,0,5.02-4.67,12.55-4.67s17.57,8,17.57,24.36s-15.06,43.4-37.66,48.08
	S342.07,150.3,342.07,150.3z"/>
<polygon class="st1" points="187.29,323.39 222.48,496.4 282.37,496.4 311.69,323.39 "/>
<line class="st2" x1="220.82" y1="145.4" x2="184.22" y2="145.4"/>
<path class="st3" d="M156.41,323.39c-46.2,0-83.65,37.45-83.65,83.65v89.35h149.72l-35.19-173.01H156.41z"/>
<path class="st4" d="M145.82,418.51c-0.83-1.08-0.88-2.57-0.12-3.7l22.58-33.87l-20.33-2.54c-0.99-0.12-1.87-0.7-2.36-1.57
	c-0.5-0.87-0.56-1.92-0.16-2.83l13.08-30.52c-38.27,0.61-69.1,31.8-69.1,70.21v75.03h110.43L145.82,418.51z"/>
<path class="st5" d="M156.41,323.39c-46.2,0-83.65,37.45-83.65,83.65v89.35h149.72l-35.19-173.01H156.41z"/>
<path class="st5" d="M156.41,323.39c-46.2,0-83.65,37.45-83.65,83.65v89.35h149.72l-35.19-173.01H156.41z"/>
<path class="st3" d="M345.11,323.39h-33.42L282.37,496.4h146.39v-89.35C428.76,360.85,391.3,323.39,345.11,323.39z"/>
<path class="st4" d="M339.84,331.26h-30.61l-26.86,158.49h134.1v-81.86C416.47,365.57,382.16,331.26,339.84,331.26z"/>
<path class="st5" d="M345.11,323.39h-33.42L282.37,496.4h146.39v-89.35C428.76,360.85,391.3,323.39,345.11,323.39z"/>
<rect x="202.52" y="266.84" class="st3" width="96.48" height="86.5"/>
<path class="st4" d="M202.52,287.54c8.12,5.81,17.29,10.53,27.65,14c3.75,1.26,7.64,1.89,11.57,1.89h50.06
	c3.93,0,7.83-0.64,11.57-1.89c1.93-0.65,3.76-1.4,5.62-2.13v-32.57H202.52V287.54z"/>
<rect x="202.52" y="266.84" class="st5" width="96.48" height="86.5"/>
<path class="st1" d="M250.76,24.46c-47.07,0-85.87,12.42-98.15,32.77c-16.8,27.84-6.65,73.19,3.33,113.12
	c0,61.67,19.93,102.23,62.8,118.09c2.99,1.11,6.15,1.69,9.33,1.69h45.37c3.19,0,6.35-0.58,9.33-1.69
	c42.87-15.86,62.8-56.41,62.8-118.09c9.98-39.92,18.08-81.99,3.33-109.79C337.21,38.5,300.07,24.46,250.76,24.46z"/>
<polygon class="st1" points="202.73,396.17 250.76,352.43 199.19,303.43 182.56,323.39 "/>
<line class="st5" x1="139.3" y1="496.4" x2="139.3" y2="459.8"/>
<line class="st5" x1="362.22" y1="496.4" x2="362.22" y2="459.8"/>
<circle class="st6" cx="205.85" cy="170.35" r="9.98"/>
<circle class="st6" cx="295.67" cy="170.35" r="9.98"/>
<line class="st2" x1="280.7" y1="145.4" x2="317.3" y2="145.4"/>
<line class="st2" x1="184.22" y1="145.4" x2="220.82" y2="145.4"/>
<polygon class="st3" points="262.4,399.92 252.42,399.92 249.1,399.92 239.12,399.92 222.48,496.4 249.1,496.4 252.42,496.4 
	279.04,496.4 "/>
<polygon class="st3" points="250.76,352.43 226.44,374.57 239.12,399.92 249.1,399.92 252.42,399.92 262.4,399.92 275.08,374.57 "/>
<polygon class="st4" points="257.71,407.64 248.9,407.64 245.97,407.64 237.16,407.64 222.48,492.77 245.97,492.77 248.9,492.77 
	272.39,492.77 "/>
<polygon class="st4" points="247.43,365.74 225.98,385.28 237.16,407.64 245.97,407.64 248.9,407.64 257.71,407.64 268.89,385.28 
	"/>
<polygon class="st5" points="262.4,399.92 252.42,399.92 249.1,399.92 239.12,399.92 222.48,496.4 249.1,496.4 252.42,496.4 
	279.04,496.4 "/>
<polygon class="st5" points="250.76,352.43 226.44,374.57 239.12,399.92 249.1,399.92 252.42,399.92 262.4,399.92 275.08,374.57 "/>
<polygon class="st3" points="240.78,496.4 192.54,306.76 172.57,320.07 152.61,366.65 179.23,369.97 152.61,409.9 219.15,496.4 "/>
<polygon class="st4" points="242.79,496.4 197.09,316.74 178.18,329.35 159.27,373.48 184.48,376.63 159.27,414.45 222.31,496.4 "/>
<polygon class="st5" points="240.78,496.4 192.54,306.76 172.57,320.07 152.61,366.65 179.23,369.97 152.61,409.9 219.15,496.4 "/>
<polygon class="st1" points="298.79,396.17 250.76,352.43 302.33,303.43 318.96,323.39 "/>
<polygon class="st3" points="260.74,496.4 308.98,306.76 328.95,320.07 348.91,366.65 322.29,369.97 348.91,409.9 282.37,496.4 "/>
<polygon class="st4" points="322.29,369.97 343.93,367.27 330.83,336.71 312.75,324.65 269.06,496.4 282.37,496.4 345.99,413.69 
	324.81,381.9 329.83,381.27 "/>
<polygon class="st5" points="260.74,496.4 308.98,306.76 328.95,320.07 348.91,366.65 322.29,369.97 348.91,409.9 282.37,496.4 "/>
<path class="st7" d="M221.53,231.2c0,0,13.09,7.36,29.23,7.36s29.23-7.36,29.23-7.36"/>
<line class="st7" x1="240.78" y1="255.19" x2="260.74" y2="255.19"/>
<line class="st7" x1="247.43" y1="205.29" x2="254.09" y2="205.29"/>
<path class="st5" d="M224.73,193.64h-47.76c-6.11,0-11.06-4.95-11.06-11.06v-24.47c0-6.11,4.95-11.06,11.06-11.06h47.76
	c6.11,0,11.06,4.95,11.06,11.06v24.47C235.79,188.69,230.84,193.64,224.73,193.64z"/>
<path class="st5" d="M324.54,193.64h-47.76c-6.11,0-11.06-4.95-11.06-11.06v-24.47c0-6.11,4.95-11.06,11.06-11.06h47.76
	c6.11,0,11.06,4.95,11.06,11.06v24.47C335.6,188.69,330.65,193.64,324.54,193.64z"/>
<path class="st5" d="M265.73,167.56c0-7.64-6.7-13.84-14.97-13.84c-8.27,0-14.97,6.2-14.97,13.84"/>
<path class="st1" d="M362.22,105.72c0-33.51,0-101.72-111.46-101.72S139.3,72.21,139.3,105.72c0,33.91,16.64,64.63,16.64,64.63
	s-9.98-109.79,34.81-109.79c40.49,0,31.74,23.27,60.02,23.27s19.53-23.27,60.01-23.27c44.79,0,34.81,109.79,34.81,109.79
	S362.22,139.63,362.22,105.72z"/>
</svg>
