<?xml version="1.0" encoding="utf-8"?>
<!-- Generator: Adobe Illustrator 21.0.2, SVG Export Plug-In . SVG Version: 6.00 Build 0)  -->
<svg version="1.1" id="Layer_3" xmlns="http://www.w3.org/2000/svg" xmlns:xlink="http://www.w3.org/1999/xlink" x="0px" y="0px"
	 viewBox="0 0 500 500" style="enable-background:new 0 0 500 500;" xml:space="preserve">
<style type="text/css">
	.st0{fill:#FFFFFF;stroke:#1C3553;stroke-width:6.8;stroke-linecap:round;stroke-linejoin:round;stroke-miterlimit:10;}
	.st1{fill:none;stroke:#1C3553;stroke-width:6.8;stroke-linecap:round;stroke-linejoin:round;stroke-miterlimit:10;}
	.st2{fill:#C5E4FF;}
	.st3{fill:none;stroke:#1C3553;stroke-width:3.4;stroke-linecap:round;stroke-linejoin:round;stroke-miterlimit:10;}
</style>
<circle class="st0" cx="222.91" cy="238.56" r="182.89"/>
<polyline class="st1" points="222.91,109.64 222.91,238.56 315.85,238.56 "/>
<circle class="st2" cx="225.91" cy="235.56" r="17.99"/>
<circle class="st1" cx="222.91" cy="238.56" r="11.99"/>
<g>
	<path class="st2" d="M225.91,70.66c-3.13,0-5.69,2.55-5.69,5.69v14.22c0,3.13,2.55,5.69,5.69,5.69c3.13,0,5.69-2.55,5.69-5.69
		V76.35C231.59,73.21,229.04,70.66,225.91,70.66z"/>
	<path class="st2" d="M225.91,374.87c-3.13,0-5.69,2.55-5.69,5.69v14.22c0,3.13,2.55,5.69,5.69,5.69c3.13,0,5.69-2.55,5.69-5.69
		v-14.22C231.59,377.42,229.04,374.87,225.91,374.87z"/>
	<path class="st2" d="M385.12,229.87H370.9c-3.13,0-5.69,2.55-5.69,5.69c0,3.13,2.55,5.69,5.69,5.69h14.22
		c3.13,0,5.69-2.55,5.69-5.69C390.81,232.42,388.25,229.87,385.12,229.87z"/>
	<path class="st2" d="M86.6,235.56c0-3.13-2.55-5.69-5.69-5.69H66.69c-3.13,0-5.69,2.55-5.69,5.69c0,3.13,2.55,5.69,5.69,5.69h14.22
		C84.04,241.24,86.6,238.69,86.6,235.56z"/>
	<path class="st2" d="M151.22,94.83c-1.56-2.71-5.06-3.65-7.77-2.08c-2.71,1.57-3.65,5.05-2.08,7.77l7.11,12.31
		c1.05,1.82,2.97,2.84,4.93,2.84c0.96,0,1.94-0.24,2.83-0.76c1.32-0.76,2.26-1.99,2.65-3.45c0.39-1.47,0.19-3-0.57-4.31
		L151.22,94.83z"/>
	<path class="st2" d="M303.33,358.29c-1.57-2.71-5.04-3.65-7.77-2.08c-1.32,0.76-2.26,1.99-2.65,3.45c-0.39,1.47-0.19,3,0.57,4.31
		l7.11,12.31c1.05,1.82,2.97,2.84,4.93,2.84c0.96,0,1.94-0.24,2.83-0.76c0,0,0,0,0,0c2.71-1.57,3.65-5.05,2.08-7.77L303.33,358.29z"
		/>
	<path class="st2" d="M350.01,168.55c0.49,0.13,0.99,0.2,1.48,0.2c0.99,0,1.96-0.26,2.83-0.77l12.31-7.11
		c2.72-1.57,3.65-5.05,2.08-7.77c-1.57-2.72-5.06-3.65-7.77-2.08l-12.31,7.11c-2.71,1.57-3.65,5.05-2.08,7.77
		C347.31,167.22,348.54,168.16,350.01,168.55z"/>
	<path class="st2" d="M101.81,302.57c-1.48-0.4-3-0.19-4.31,0.57l-12.31,7.11c-2.72,1.57-3.65,5.05-2.09,7.77c0,0,0,0,0,0
		c1.05,1.82,2.97,2.84,4.93,2.84c0.97,0,1.94-0.24,2.83-0.76l12.31-7.11c2.71-1.57,3.65-5.05,2.08-7.77
		C104.5,303.9,103.27,302.96,101.81,302.57z"/>
	<path class="st2" d="M103.18,158.14l-12.31-7.11c-2.72-1.57-6.2-0.63-7.77,2.08c-1.57,2.72-0.63,6.2,2.09,7.77l12.31,7.11
		c0.87,0.51,1.85,0.77,2.83,0.77c0.49,0,0.99-0.07,1.48-0.2c1.47-0.39,2.69-1.33,3.45-2.65
		C106.83,163.19,105.89,159.7,103.18,158.14z"/>
	<path class="st2" d="M366.63,310.24l-12.31-7.11c-1.31-0.76-2.84-0.96-4.31-0.57c-1.47,0.39-2.69,1.33-3.45,2.65
		c-1.57,2.72-0.63,6.2,2.08,7.77l12.31,7.11c0.89,0.52,1.87,0.76,2.83,0.76c1.97,0,3.88-1.02,4.93-2.84c0,0,0,0,0,0
		C370.28,315.29,369.35,311.81,366.63,310.24z"/>
	<path class="st2" d="M308.36,92.75c-2.72-1.56-6.2-0.63-7.77,2.09l-7.11,12.31c-0.76,1.31-0.96,2.85-0.57,4.31
		c0.39,1.47,1.33,2.69,2.65,3.45c0.89,0.52,1.87,0.76,2.83,0.76c1.97,0,3.88-1.02,4.93-2.84l7.11-12.31
		C312,97.8,311.07,94.32,308.36,92.75z"/>
	<path class="st2" d="M156.25,356.21c-2.72-1.57-6.2-0.63-7.77,2.08l-7.11,12.31c-1.57,2.72-0.63,6.2,2.08,7.77c0,0,0,0,0,0
		c0.89,0.51,1.87,0.76,2.83,0.76c1.97,0,3.88-1.02,4.93-2.84l7.11-12.31c0.76-1.31,0.96-2.85,0.57-4.31
		C158.51,358.19,157.57,356.96,156.25,356.21z"/>
</g>
<g>
	<path class="st3" d="M222.91,96.6L222.91,96.6c-2.38,0-4.3-1.93-4.3-4.3V77.96c0-2.38,1.93-4.3,4.3-4.3h0c2.38,0,4.3,1.93,4.3,4.3
		V92.3C227.21,94.67,225.28,96.6,222.91,96.6z"/>
	<path class="st3" d="M222.91,403.46L222.91,403.46c-2.38,0-4.3-1.93-4.3-4.3v-14.34c0-2.38,1.93-4.3,4.3-4.3h0
		c2.38,0,4.3,1.93,4.3,4.3v14.34C227.21,401.53,225.28,403.46,222.91,403.46z"/>
	<path class="st3" d="M364.87,238.56L364.87,238.56c0-2.38,1.93-4.3,4.3-4.3h14.34c2.38,0,4.3,1.93,4.3,4.3v0
		c0,2.38-1.93,4.3-4.3,4.3h-14.34C366.79,242.86,364.87,240.93,364.87,238.56z"/>
	<path class="st3" d="M58.01,238.56L58.01,238.56c0-2.38,1.93-4.3,4.3-4.3h14.34c2.38,0,4.3,1.93,4.3,4.3v0c0,2.38-1.93,4.3-4.3,4.3
		H62.31C59.93,242.86,58.01,240.93,58.01,238.56z"/>
	<path class="st3" d="M151.93,115.62L151.93,115.62c-2.06,1.19-4.69,0.48-5.88-1.57l-7.17-12.42c-1.19-2.06-0.48-4.69,1.57-5.88l0,0
		c2.06-1.19,4.69-0.48,5.88,1.57l7.17,12.42C154.69,111.8,153.99,114.43,151.93,115.62z"/>
	<path class="st3" d="M305.36,381.36L305.36,381.36c-2.06,1.19-4.69,0.48-5.88-1.57l-7.17-12.42c-1.19-2.06-0.48-4.69,1.57-5.88l0,0
		c2.06-1.19,4.69-0.48,5.88,1.57l7.17,12.42C308.12,377.54,307.42,380.18,305.36,381.36z"/>
	<path class="st3" d="M345.85,167.58L345.85,167.58c-1.19-2.06-0.48-4.69,1.57-5.88l12.42-7.17c2.06-1.19,4.69-0.48,5.88,1.57l0,0
		c1.19,2.06,0.48,4.69-1.57,5.88l-12.42,7.17C349.67,170.34,347.03,169.64,345.85,167.58z"/>
	<path class="st3" d="M80.1,321.01L80.1,321.01c-1.19-2.06-0.48-4.69,1.57-5.88l12.42-7.17c2.06-1.19,4.69-0.48,5.88,1.57h0
		c1.19,2.06,0.48,4.69-1.57,5.88l-12.42,7.17C83.92,323.77,81.29,323.06,80.1,321.01z"/>
	<path class="st3" d="M99.97,167.58L99.97,167.58c-1.19,2.06-3.82,2.76-5.88,1.57l-12.42-7.17c-2.06-1.19-2.76-3.82-1.57-5.88l0,0
		c1.19-2.06,3.82-2.76,5.88-1.57l12.42,7.17C100.45,162.89,101.16,165.52,99.97,167.58z"/>
	<path class="st3" d="M365.72,321.01L365.72,321.01c-1.19,2.06-3.82,2.76-5.88,1.57l-12.42-7.17c-2.06-1.19-2.76-3.82-1.57-5.88l0,0
		c1.19-2.06,3.82-2.76,5.88-1.57l12.42,7.17C366.2,316.32,366.9,318.95,365.72,321.01z"/>
	<path class="st3" d="M293.89,115.62L293.89,115.62c-2.06-1.19-2.76-3.82-1.57-5.88l7.17-12.42c1.19-2.06,3.82-2.76,5.88-1.57l0,0
		c2.06,1.19,2.76,3.82,1.57,5.88l-7.17,12.42C298.58,116.1,295.94,116.81,293.89,115.62z"/>
	<path class="st3" d="M140.46,381.36L140.46,381.36c-2.06-1.19-2.76-3.82-1.57-5.88l7.17-12.42c1.19-2.06,3.82-2.76,5.88-1.57l0,0
		c2.06,1.19,2.76,3.82,1.57,5.88l-7.17,12.42C145.15,381.85,142.52,382.55,140.46,381.36z"/>
</g>
<path class="st2" d="M463.42,235.56c0-129.31-105.2-234.52-234.52-234.52c-3.67,0-6.66,2.98-6.66,6.66s2.98,6.66,6.66,6.66
	c121.97,0,221.21,99.23,221.21,221.21c0,117.87-92.68,214.49-208.99,220.85l-0.03-0.25l14.62-16.5c2.43-2.75,2.18-6.95-0.57-9.39
	c-2.75-2.44-6.95-2.18-9.39,0.57l-24.95,28.17c-0.1,0.12-0.18,0.25-0.27,0.37c-0.12,0.16-0.24,0.31-0.35,0.48
	c-0.13,0.2-0.23,0.41-0.33,0.61c-0.08,0.16-0.17,0.32-0.24,0.49c-0.1,0.25-0.17,0.5-0.23,0.75c-0.04,0.15-0.09,0.29-0.12,0.44
	c-0.08,0.42-0.13,0.84-0.13,1.26v0v0c0,0.47,0.05,0.92,0.14,1.36c0.01,0.05,0.04,0.1,0.05,0.16c0.09,0.39,0.2,0.76,0.36,1.12
	c0.06,0.13,0.14,0.25,0.2,0.38c0.14,0.27,0.28,0.54,0.46,0.79c0.1,0.14,0.21,0.26,0.32,0.39c0.19,0.23,0.37,0.45,0.59,0.65
	c0.05,0.04,0.08,0.09,0.12,0.14l28.17,24.95c2.75,2.44,6.95,2.18,9.39-0.57c2.44-2.75,2.18-6.95-0.57-9.39l-15.54-13.76
	C365.68,462.4,463.42,360.2,463.42,235.56z"/>
<path class="st3" d="M457.42,238.56c0-129.31-105.2-234.52-234.52-234.52c-3.67,0-6.66,2.98-6.66,6.66s2.98,6.66,6.66,6.66
	c121.97,0,221.21,99.23,221.21,221.21c0,117.87-92.68,214.49-208.99,220.85l-0.03-0.25l14.62-16.5c2.43-2.75,2.18-6.95-0.57-9.39
	c-2.75-2.44-6.95-2.18-9.39,0.57l-24.95,28.17c-0.1,0.12-0.18,0.25-0.27,0.37c-0.12,0.16-0.24,0.31-0.35,0.48
	c-0.13,0.2-0.23,0.41-0.33,0.61c-0.08,0.16-0.17,0.32-0.24,0.49c-0.1,0.25-0.17,0.5-0.23,0.75c-0.04,0.15-0.09,0.29-0.12,0.44
	c-0.08,0.42-0.13,0.84-0.13,1.26v0v0c0,0.47,0.05,0.92,0.14,1.36c0.01,0.05,0.04,0.1,0.05,0.16c0.09,0.39,0.2,0.76,0.36,1.12
	c0.06,0.13,0.14,0.25,0.2,0.38c0.14,0.27,0.28,0.54,0.46,0.79c0.1,0.14,0.21,0.26,0.32,0.39c0.19,0.23,0.37,0.45,0.59,0.65
	c0.05,0.04,0.08,0.09,0.12,0.14l28.17,24.95c2.75,2.44,6.95,2.18,9.39-0.57c2.44-2.75,2.18-6.95-0.57-9.39l-15.54-13.76
	C359.68,465.4,457.42,363.2,457.42,238.56z"/>
</svg>
