<?xml version="1.0" encoding="utf-8"?>
<!-- Generator: Adobe Illustrator 21.0.2, SVG Export Plug-In . SVG Version: 6.00 Build 0)  -->
<svg version="1.1" id="Layer_2" xmlns="http://www.w3.org/2000/svg" xmlns:xlink="http://www.w3.org/1999/xlink" x="0px" y="0px"
	 viewBox="0 0 500 500" style="enable-background:new 0 0 500 500;" xml:space="preserve">
<style type="text/css">
	.st0{fill:#FFFFFF;}
	.st1{fill:#C5E4FF;}
	.st2{fill:none;stroke:#1C3553;stroke-width:6.8;stroke-linecap:round;stroke-linejoin:round;stroke-miterlimit:10;}
	.st3{fill:#FFFFFF;stroke:#1C3553;stroke-width:6.8;stroke-linecap:round;stroke-linejoin:round;stroke-miterlimit:10;}
	.st4{fill:none;stroke:#1C3553;stroke-width:3.4;stroke-linecap:round;stroke-linejoin:round;stroke-miterlimit:10;}
</style>
<path class="st0" d="M439.13,60.12H51.94c-24.6,0-44.54,19.94-44.54,44.54v72.03h476.27v-72.02
	C483.68,80.06,463.73,60.12,439.13,60.12z"/>
<path class="st1" d="M452.48,50.2h-18.76v41.56c0,11.94-9.71,21.65-21.65,21.65s-21.65-9.71-21.65-21.65V50.2H273.85v41.56
	c0,11.94-9.71,21.65-21.65,21.65c-11.94,0-21.65-9.71-21.65-21.65V50.2H113.98v41.56c0,11.94-9.71,21.65-21.65,21.65
	s-21.65-9.71-21.65-21.65V50.2h-5.16c-24.58,0-44.51,19.93-44.51,44.51v71.99H497V94.71C497,70.13,477.07,50.2,452.48,50.2z"/>
<path class="st2" d="M439.13,60.12H51.94c-24.6,0-44.54,19.94-44.54,44.54v72.03h476.27v-72.02
	C483.68,80.06,463.73,60.12,439.13,60.12z"/>
<path class="st3" d="M483.68,176.69H7.4v299.75c0,11.04,8.95,19.98,19.98,19.98h436.31c11.04,0,19.98-8.95,19.98-19.98V176.69z"/>
<path class="st3" d="M245.54,103.41L245.54,103.41c10.12,0,18.32-8.2,18.32-18.32V21.82c0-10.12-8.2-18.32-18.32-18.32h0
	c-10.12,0-18.32,8.2-18.32,18.32V85.1C227.22,95.21,235.42,103.41,245.54,103.41z"/>
<path class="st3" d="M405.41,103.41L405.41,103.41c10.12,0,18.32-8.2,18.32-18.32V21.82c0-10.12-8.2-18.32-18.32-18.32h0
	c-10.12,0-18.32,8.2-18.32,18.32V85.1C387.09,95.21,395.29,103.41,405.41,103.41z"/>
<path class="st3" d="M85.67,103.41L85.67,103.41c10.12,0,18.32-8.2,18.32-18.32V21.82c0-10.12-8.2-18.32-18.32-18.32h0
	c-10.12,0-18.32,8.2-18.32,18.32V85.1C67.35,95.21,75.55,103.41,85.67,103.41z"/>
<path class="st1" d="M249.11,304.89h-51.07c-1.93,0-3.32-1.87-2.75-3.72l22.2-71.95c0.91-2.95-2.83-5.06-4.89-2.76l-98.92,110.65
	c-1.65,1.85-0.34,4.79,2.14,4.79h51.07c1.93,0,3.32,1.87,2.75,3.72l-22.2,71.95c-0.91,2.95,2.83,5.06,4.89,2.76l98.92-110.65
	C252.91,307.83,251.59,304.89,249.11,304.89z"/>
<path class="st1" d="M395.22,304.89h-51.07c-1.93,0-3.32-1.87-2.75-3.72l22.2-71.95c0.91-2.95-2.83-5.06-4.89-2.76l-98.92,110.65
	c-1.65,1.85-0.34,4.79,2.14,4.79h51.07c1.93,0,3.32,1.87,2.75,3.72l-22.2,71.95c-0.91,2.95,2.83,5.06,4.89,2.76l98.92-110.65
	C399.02,307.83,397.71,304.89,395.22,304.89z"/>
<path class="st2" d="M239.12,314.88h-51.07c-1.93,0-3.32-1.87-2.75-3.72l22.2-71.95c0.91-2.95-2.83-5.06-4.89-2.76L103.7,347.1
	c-1.65,1.85-0.34,4.79,2.14,4.79h51.07c1.93,0,3.32,1.87,2.75,3.72l-22.2,71.95c-0.91,2.95,2.83,5.06,4.89,2.76l98.92-110.65
	C242.91,317.82,241.6,314.88,239.12,314.88z"/>
<path class="st2" d="M385.23,314.88h-51.07c-1.93,0-3.32-1.87-2.75-3.72l22.2-71.95c0.91-2.95-2.83-5.06-4.89-2.76L249.82,347.1
	c-1.65,1.85-0.34,4.79,2.14,4.79h51.07c1.93,0,3.32,1.87,2.75,3.72l-22.2,71.95c-0.91,2.95,2.83,5.06,4.89,2.76l98.92-110.65
	C389.03,317.82,387.72,314.88,385.23,314.88z"/>
<line class="st4" x1="162.27" y1="461.45" x2="72.35" y2="461.45"/>
<line class="st4" x1="62.36" y1="461.45" x2="49.03" y2="461.45"/>
</svg>
