<?xml version="1.0" encoding="utf-8"?>
<!-- Generator: Adobe Illustrator 21.0.2, SVG Export Plug-In . SVG Version: 6.00 Build 0)  -->
<svg version="1.1" id="Layer_2" xmlns="http://www.w3.org/2000/svg" xmlns:xlink="http://www.w3.org/1999/xlink" x="0px" y="0px"
	 viewBox="0 0 500 500" style="enable-background:new 0 0 500 500;" xml:space="preserve">
<style type="text/css">
	.st0{fill:#FFFFFF;}
	.st1{fill:#C5E4FF;}
	.st2{fill:none;stroke:#1C3553;stroke-width:6.8;stroke-linecap:round;stroke-linejoin:round;stroke-miterlimit:10;}
	.st3{fill:#FFFFFF;stroke:#1C3553;stroke-width:6.8;stroke-linecap:round;stroke-linejoin:round;stroke-miterlimit:10;}
</style>
<path class="st0" d="M108.98,286.65c-44.07,0-79.79,35.72-79.79,79.79S99.01,496.1,108.98,496.1s79.79-85.6,79.79-129.66
	S153.05,286.65,108.98,286.65z M108.98,396.36c-16.53,0-29.92-13.4-29.92-29.92c0-16.53,13.4-29.92,29.92-29.92
	s29.92,13.4,29.92,29.92C138.9,382.96,125.51,396.36,108.98,396.36z"/>
<path class="st1" d="M122.28,280c-44.07,0-79.79,35.72-79.79,79.79s69.82,129.66,79.79,129.66s79.79-85.6,79.79-129.66
	S166.35,280,122.28,280z M122.28,389.71c-16.53,0-29.92-13.4-29.92-29.92c0-16.53,13.4-29.92,29.92-29.92s29.92,13.4,29.92,29.92
	C152.2,376.31,138.8,389.71,122.28,389.71z"/>
<path class="st2" d="M108.98,286.65c-44.07,0-79.79,35.72-79.79,79.79S99.01,496.1,108.98,496.1s79.79-85.6,79.79-129.66
	S153.05,286.65,108.98,286.65z M108.98,396.36c-16.53,0-29.92-13.4-29.92-29.92c0-16.53,13.4-29.92,29.92-29.92
	s29.92,13.4,29.92,29.92C138.9,382.96,125.51,396.36,108.98,396.36z"/>
<path class="st0" d="M321.76,4.04L321.76,4.04c-3.67,0-6.65,2.98-6.65,6.65v182.86h13.3V10.69C328.41,7.02,325.43,4.04,321.76,4.04z
	"/>
<path class="st3" d="M321.76,4.04L321.76,4.04c-3.67,0-6.65,2.98-6.65,6.65v182.86h13.3V10.69C328.41,7.02,325.43,4.04,321.76,4.04z
	"/>
<polygon class="st3" points="328.41,17.34 421.5,57.24 328.41,97.14 "/>
<path class="st2" d="M108.98,496.1h305.87c31.22,0,56.52-25.3,56.52-56.52v0c0-31.22-25.3-56.52-56.52-56.52H305.14
	c-27.54,0-49.87-22.33-49.87-49.87v0c0-27.54,22.33-49.87,49.87-49.87h83.12c22.03,0,39.9-17.86,39.9-39.9v0
	c0-22.03-17.86-39.9-39.9-39.9h-66.49"/>
<circle class="st3" cx="321.76" cy="203.53" r="23.27"/>
</svg>
