<?xml version="1.0" encoding="utf-8"?>
<!-- Generator: Adobe Illustrator 21.0.2, SVG Export Plug-In . SVG Version: 6.00 Build 0)  -->
<svg version="1.1" id="Layer_3" xmlns="http://www.w3.org/2000/svg" xmlns:xlink="http://www.w3.org/1999/xlink" x="0px" y="0px"
	 viewBox="0 0 500 500" style="enable-background:new 0 0 500 500;" xml:space="preserve">
<style type="text/css">
	.st0{fill:#FFFFFF;}
	.st1{fill:#C5E4FF;}
	.st2{fill:none;stroke:#1C3553;stroke-width:6.8;stroke-linecap:round;stroke-linejoin:round;stroke-miterlimit:10;}
</style>
<path class="st0" d="M475.27,53.47H18.06c-7.56,0-13.69,6.13-13.69,13.69v370.91c0,7.56,6.13,13.69,13.69,13.69h457.21
	c7.56,0,13.69-6.13,13.69-13.69V67.16C488.96,59.6,482.83,53.47,475.27,53.47z"/>
<g>
	<path class="st1" d="M163.68,43.51H28.01c-7.56,0-13.69,6.13-13.69,13.69v370.91c0,7.56,6.13,13.69,13.69,13.69h135.67V43.51z"/>
	<path class="st1" d="M485.22,43.51H339.6v398.3h145.63c7.56,0,13.69-6.13,13.69-13.69V57.21
		C498.91,49.64,492.79,43.51,485.22,43.51z"/>
</g>
<path class="st2" d="M475.27,53.47H18.06c-7.56,0-13.69,6.13-13.69,13.69v370.91c0,7.56,6.13,13.69,13.69,13.69h457.21
	c7.56,0,13.69-6.13,13.69-13.69V67.16C488.96,59.6,482.83,53.47,475.27,53.47z"/>
<rect x="163.68" y="53.47" class="st0" width="165.96" height="398.3"/>
<rect x="163.68" y="53.47" class="st2" width="165.96" height="398.3"/>
</svg>
