<?xml version="1.0" encoding="utf-8"?>
<!-- Generator: Adobe Illustrator 21.0.2, SVG Export Plug-In . SVG Version: 6.00 Build 0)  -->
<svg version="1.1" id="Layer_3" xmlns="http://www.w3.org/2000/svg" xmlns:xlink="http://www.w3.org/1999/xlink" x="0px" y="0px"
	 viewBox="0 0 500 500" style="enable-background:new 0 0 500 500;" xml:space="preserve">
<style type="text/css">
	.st0{fill:#FFFFFF;}
	.st1{fill:#C5E4FF;}
	.st2{fill:none;stroke:#1C3553;stroke-width:6.8;stroke-linecap:round;stroke-linejoin:round;stroke-miterlimit:10;}
</style>
<path class="st0" d="M475.77,55.34H17.54c-7.58,0-13.72,6.14-13.72,13.72V440.8c0,7.58,6.14,13.72,13.72,13.72h458.23
	c7.58,0,13.72-6.14,13.72-13.72V69.06C489.49,61.48,483.34,55.34,475.77,55.34z"/>
<path class="st1" d="M485.74,42.04h-16.22L293.22,189.88V42.04h-73.18v147.84L43.73,42.04H27.51c-7.58,0-13.72,6.25-13.72,13.95
	v9.72l173.42,145.42H13.79v71.02h169.39L13.79,424.2v9.72c0,7.7,6.14,13.95,13.72,13.95h16.22l176.31-147.84v147.84h73.18V300.03
	l176.31,147.84h16.22c7.58,0,13.72-6.25,13.72-13.95v-9.72L330.08,282.16h169.39v-71.02H326.05L499.47,65.71v-9.72
	C499.47,48.28,493.32,42.04,485.74,42.04z"/>
<path class="st2" d="M475.77,55.34H17.54c-7.58,0-13.72,6.14-13.72,13.72V440.8c0,7.58,6.14,13.72,13.72,13.72h458.23
	c7.58,0,13.72-6.14,13.72-13.72V69.06C489.49,61.48,483.34,55.34,475.77,55.34z"/>
<path class="st2" d="M475.77,55.34h-16.22L283.24,200.76V55.34h-73.18v145.42L33.75,55.34H17.54c-7.58,0-13.72,6.14-13.72,13.72
	v9.56l173.42,143.04H3.81v69.86H173.2L3.81,431.24v9.56c0,7.58,6.14,13.72,13.72,13.72h16.22L210.06,309.1v145.42h73.18V309.1
	l176.31,145.42h16.22c7.58,0,13.72-6.14,13.72-13.72v-9.56L320.1,291.52h169.39v-69.86H316.07L489.49,78.63v-9.56
	C489.49,61.48,483.34,55.34,475.77,55.34z"/>
</svg>
