<?xml version="1.0" encoding="utf-8"?>
<!-- Generator: Adobe Illustrator 21.0.2, SVG Export Plug-In . SVG Version: 6.00 Build 0)  -->
<svg version="1.1" id="Layer_3" xmlns="http://www.w3.org/2000/svg" xmlns:xlink="http://www.w3.org/1999/xlink" x="0px" y="0px"
	 viewBox="0 0 500 500" style="enable-background:new 0 0 500 500;" xml:space="preserve">
<style type="text/css">
	.st0{fill:#FFFFFF;}
	.st1{fill:#C5E4FF;}
	.st2{fill:none;stroke:#1C3553;stroke-width:6.8;stroke-linecap:round;stroke-linejoin:round;stroke-miterlimit:10;}
	.st3{fill:none;stroke:#1C3553;stroke-width:3.4;stroke-linecap:round;stroke-linejoin:round;stroke-miterlimit:10;}
</style>
<path class="st0" d="M481.79,52.87H24.88c-7.56,0-13.68,6.13-13.68,13.68v370.67c0,7.56,6.13,13.68,13.68,13.68h456.91
	c7.56,0,13.68-6.13,13.68-13.68V66.55C495.47,59,489.35,52.87,481.79,52.87z"/>
<path class="st1" d="M4.52,423.09h477.73v7.95c0,7.3-5.92,13.22-13.22,13.22H17.74c-7.3,0-13.22-5.92-13.22-13.22V423.09z"/>
<rect x="1.25" y="360.84" class="st1" width="484.28" height="31.13"/>
<rect x="1.25" y="298.58" class="st1" width="484.28" height="31.13"/>
<rect x="7.7" y="236.32" class="st1" width="477.82" height="31.13"/>
<rect x="7.7" y="174.07" class="st1" width="477.82" height="31.13"/>
<rect x="7.7" y="111.81" class="st1" width="477.82" height="31.13"/>
<path class="st1" d="M34.28,52.87h424.67c12.9,0,23.35,10.45,23.35,23.35v4.46H10.93v-4.46C10.93,63.32,21.39,52.87,34.28,52.87z"/>
<path class="st0" d="M4.56,274.09V71.24c0-13.81,11.2-25.01,25.01-25.01h237.56c5.21,0,9.43,4.22,9.43,9.43v218.43H4.56z"/>
<path class="st1" d="M16.37,44.29h240.88c1.5,0,2.72,1.22,2.72,2.72v220.44H1.25V59.41C1.25,51.06,8.02,44.29,16.37,44.29z"/>
<path class="st2" d="M481.79,52.87H24.88c-7.56,0-13.68,6.13-13.68,13.68v370.67c0,7.56,6.13,13.68,13.68,13.68h456.91
	c7.56,0,13.68-6.13,13.68-13.68V66.55C495.47,59,489.35,52.87,481.79,52.87z"/>
<path class="st0" d="M198.61,148.57l-7.1,5.15c-0.58,0.42-1.37,0.42-1.95,0c-0.58-0.42-0.82-1.17-0.6-1.85l2.71-8.34l-7.1-5.16
	c-0.58-0.42-0.82-1.17-0.6-1.85c0.22-0.68,0.86-1.15,1.58-1.15h8.77l2.71-8.34c0.45-1.37,2.71-1.37,3.16,0l2.71,8.34h8.77
	c0.72,0,1.35,0.46,1.58,1.15c0.22,0.68-0.02,1.43-0.6,1.85l-7.1,5.16l2.71,8.34c0.22,0.68-0.02,1.43-0.6,1.85
	c-0.29,0.21-0.63,0.32-0.98,0.32c-0.34,0-0.68-0.11-0.98-0.32L198.61,148.57z M165.9,153.72c0.29,0.21,0.63,0.32,0.98,0.32
	s0.68-0.11,0.98-0.32c0.58-0.42,0.82-1.17,0.6-1.85l-2.71-8.34l7.1-5.16c0.58-0.42,0.82-1.17,0.6-1.85
	c-0.22-0.68-0.86-1.15-1.58-1.15h-8.77l-2.71-8.34c-0.45-1.37-2.71-1.37-3.15,0l-2.71,8.34h-8.77c-0.72,0-1.35,0.46-1.58,1.15
	c-0.22,0.68,0.02,1.43,0.6,1.85l7.1,5.16l-2.71,8.34c-0.22,0.68,0.02,1.43,0.6,1.85c0.58,0.42,1.37,0.42,1.95,0l7.1-5.15
	L165.9,153.72z M191.67,77.19l-2.71,8.34c-0.22,0.68,0.02,1.43,0.6,1.85c0.58,0.42,1.37,0.42,1.95,0l7.1-5.15l7.1,5.15
	c0.29,0.21,0.63,0.32,0.98,0.32c0.34,0,0.68-0.11,0.98-0.32c0.58-0.42,0.82-1.17,0.6-1.85l-2.71-8.34l7.1-5.16
	c0.58-0.42,0.82-1.17,0.6-1.85c-0.22-0.68-0.86-1.15-1.58-1.15h-8.77l-2.71-8.34c-0.45-1.37-2.71-1.37-3.16,0l-2.71,8.34h-8.77
	c-0.72,0-1.35,0.46-1.58,1.15c-0.22,0.68,0.02,1.43,0.6,1.85L191.67,77.19z M126.1,153.72c0.29,0.21,0.63,0.32,0.98,0.32
	c0.34,0,0.68-0.11,0.98-0.32c0.58-0.42,0.82-1.17,0.6-1.85l-2.71-8.34l7.1-5.16c0.58-0.42,0.82-1.17,0.6-1.85
	c-0.22-0.68-0.86-1.15-1.58-1.15h-8.77l-2.71-8.34c-0.45-1.37-2.71-1.37-3.16,0l-2.71,8.34h-8.77c-0.72,0-1.35,0.46-1.58,1.15
	c-0.22,0.68,0.02,1.43,0.6,1.85l7.1,5.16l-2.71,8.34c-0.22,0.68,0.02,1.43,0.6,1.85c0.58,0.42,1.37,0.42,1.95,0l7.1-5.15
	L126.1,153.72z M164.07,103.34c-0.22,0.68,0.02,1.43,0.6,1.85l7.1,5.16l-2.71,8.34c-0.22,0.68,0.02,1.43,0.6,1.85
	c0.58,0.42,1.37,0.42,1.95,0l7.1-5.15l7.1,5.15c0.29,0.21,0.63,0.32,0.98,0.32c0.34,0,0.68-0.11,0.98-0.32
	c0.58-0.42,0.82-1.17,0.6-1.85l-2.71-8.34l7.1-5.16c0.58-0.42,0.82-1.17,0.6-1.85c-0.22-0.68-0.86-1.15-1.58-1.15h-8.77l-2.71-8.34
	c-0.45-1.37-2.71-1.37-3.15,0l-2.71,8.34h-8.77C164.92,102.2,164.29,102.66,164.07,103.34z M124.26,103.34
	c-0.22,0.68,0.02,1.43,0.6,1.85l7.1,5.16l-2.71,8.34c-0.22,0.68,0.02,1.43,0.6,1.85c0.58,0.42,1.37,0.42,1.95,0l7.1-5.15l7.1,5.15
	c0.29,0.21,0.63,0.32,0.98,0.32s0.68-0.11,0.98-0.32c0.58-0.42,0.82-1.17,0.6-1.85l-2.71-8.34l7.1-5.16
	c0.58-0.42,0.82-1.17,0.6-1.85c-0.22-0.68-0.86-1.15-1.58-1.15h-8.77l-2.71-8.34c-0.45-1.37-2.71-1.37-3.16,0l-2.71,8.34h-8.77
	C125.12,102.2,124.49,102.66,124.26,103.34z M151.86,77.19l-2.71,8.34c-0.22,0.68,0.02,1.43,0.6,1.85c0.58,0.42,1.37,0.42,1.95,0
	l7.1-5.15l7.1,5.15c0.29,0.21,0.63,0.32,0.98,0.32s0.68-0.11,0.98-0.32c0.58-0.42,0.82-1.17,0.6-1.85l-2.71-8.34l7.1-5.16
	c0.58-0.42,0.82-1.17,0.6-1.85c-0.22-0.68-0.86-1.15-1.58-1.15h-8.77l-2.71-8.34c-0.45-1.37-2.71-1.37-3.15,0l-2.71,8.34h-8.77
	c-0.72,0-1.35,0.46-1.58,1.15c-0.22,0.68,0.02,1.43,0.6,1.85L151.86,77.19z M73.93,169.68c-0.22-0.68-0.86-1.15-1.58-1.15h-8.77
	l-2.71-8.34c-0.45-1.37-2.71-1.37-3.16,0L55,168.54h-8.77c-0.72,0-1.35,0.46-1.58,1.15c-0.22,0.68,0.02,1.43,0.6,1.85l7.1,5.16
	l-2.71,8.34c-0.22,0.68,0.02,1.43,0.6,1.85c0.58,0.42,1.37,0.42,1.95,0l7.1-5.15l7.1,5.15c0.29,0.21,0.63,0.32,0.98,0.32
	c0.34,0,0.68-0.11,0.98-0.32c0.58-0.42,0.82-1.17,0.6-1.85l-2.71-8.34l7.1-5.16C73.91,171.11,74.15,170.37,73.93,169.68z
	 M86.29,153.72c0.29,0.21,0.63,0.32,0.98,0.32c0.34,0,0.68-0.11,0.98-0.32c0.58-0.42,0.82-1.17,0.6-1.85l-2.71-8.34l7.1-5.16
	c0.58-0.42,0.82-1.17,0.6-1.85c-0.22-0.68-0.86-1.15-1.58-1.15h-8.77l-2.71-8.34c-0.45-1.37-2.71-1.37-3.16,0l-2.71,8.34h-8.77
	c-0.72,0-1.35,0.46-1.58,1.15c-0.22,0.68,0.02,1.43,0.6,1.85l7.1,5.16l-2.71,8.34c-0.22,0.68,0.02,1.43,0.6,1.85
	c0.58,0.42,1.37,0.42,1.95,0l7.1-5.15L86.29,153.72z M193.34,169.68c-0.22-0.68-0.86-1.15-1.58-1.15h-8.77l-2.71-8.34
	c-0.45-1.37-2.71-1.37-3.15,0l-2.71,8.34h-8.77c-0.72,0-1.35,0.46-1.58,1.15c-0.22,0.68,0.02,1.43,0.6,1.85l7.1,5.16l-2.71,8.34
	c-0.22,0.68,0.02,1.43,0.6,1.85c0.58,0.42,1.37,0.42,1.95,0l7.1-5.15l7.1,5.15c0.29,0.21,0.63,0.32,0.98,0.32
	c0.34,0,0.68-0.11,0.98-0.32c0.58-0.42,0.82-1.17,0.6-1.85l-2.71-8.34l7.1-5.16C193.32,171.11,193.56,170.37,193.34,169.68z
	 M233.15,169.68c-0.22-0.68-0.86-1.15-1.58-1.15h-8.77l-2.71-8.34c-0.45-1.37-2.71-1.37-3.16,0l-2.71,8.34h-8.77
	c-0.72,0-1.35,0.46-1.58,1.15c-0.22,0.68,0.02,1.43,0.6,1.85l7.1,5.16l-2.71,8.34c-0.22,0.68,0.02,1.43,0.6,1.85
	c0.58,0.42,1.37,0.42,1.95,0l7.1-5.15l7.1,5.15c0.29,0.21,0.63,0.32,0.98,0.32s0.68-0.11,0.98-0.32c0.58-0.42,0.82-1.17,0.6-1.85
	l-2.71-8.34l7.1-5.16C233.12,171.11,233.37,170.37,233.15,169.68z M231.47,77.19l-2.71,8.34c-0.22,0.68,0.02,1.43,0.6,1.85
	c0.58,0.42,1.37,0.42,1.95,0l7.1-5.15l7.1,5.15c0.29,0.21,0.63,0.32,0.98,0.32s0.68-0.11,0.98-0.32c0.58-0.42,0.82-1.17,0.6-1.85
	l-2.71-8.34l7.1-5.16c0.58-0.42,0.82-1.17,0.6-1.85c-0.22-0.68-0.86-1.15-1.58-1.15h-8.77l-2.71-8.34c-0.45-1.37-2.71-1.37-3.15,0
	l-2.71,8.34h-8.77c-0.72,0-1.35,0.46-1.58,1.15c-0.22,0.68,0.02,1.43,0.6,1.85L231.47,77.19z M203.87,103.34
	c-0.22,0.68,0.02,1.43,0.6,1.85l7.1,5.16l-2.71,8.34c-0.22,0.68,0.02,1.43,0.6,1.85c0.58,0.42,1.37,0.42,1.95,0l7.1-5.15l7.1,5.15
	c0.29,0.21,0.63,0.32,0.98,0.32s0.68-0.11,0.98-0.32c0.58-0.42,0.82-1.17,0.6-1.85l-2.71-8.34l7.1-5.16
	c0.58-0.42,0.82-1.17,0.6-1.85c-0.22-0.68-0.86-1.15-1.58-1.15h-8.77l-2.71-8.34c-0.45-1.37-2.71-1.37-3.16,0l-2.71,8.34h-8.77
	C204.73,102.2,204.09,102.66,203.87,103.34z M84.46,103.34c-0.22,0.68,0.02,1.43,0.6,1.85l7.1,5.16l-2.71,8.34
	c-0.22,0.68,0.02,1.43,0.6,1.85c0.58,0.42,1.37,0.42,1.95,0l7.1-5.15l7.1,5.15c0.29,0.21,0.63,0.32,0.98,0.32
	c0.34,0,0.68-0.11,0.98-0.32c0.58-0.42,0.82-1.17,0.6-1.85l-2.71-8.34l7.1-5.16c0.58-0.42,0.82-1.17,0.6-1.85
	c-0.22-0.68-0.86-1.15-1.58-1.15h-8.77l-2.71-8.34c-0.45-1.37-2.71-1.37-3.15,0l-2.71,8.34h-8.77
	C85.32,102.2,84.68,102.66,84.46,103.34z M113.73,169.68c-0.22-0.68-0.86-1.15-1.58-1.15h-8.77l-2.71-8.34
	c-0.45-1.37-2.71-1.37-3.15,0l-2.71,8.34h-8.77c-0.72,0-1.35,0.46-1.58,1.15c-0.22,0.68,0.02,1.43,0.6,1.85l7.1,5.16l-2.71,8.34
	c-0.22,0.68,0.02,1.43,0.6,1.85c0.58,0.42,1.37,0.42,1.95,0l7.1-5.15l7.1,5.15c0.29,0.21,0.63,0.32,0.98,0.32
	c0.34,0,0.68-0.11,0.98-0.32c0.58-0.42,0.82-1.17,0.6-1.85l-2.71-8.34l7.1-5.16C113.71,171.11,113.95,170.37,113.73,169.68z
	 M153.54,169.68c-0.22-0.68-0.86-1.15-1.58-1.15h-8.77l-2.71-8.34c-0.45-1.37-2.71-1.37-3.16,0l-2.71,8.34h-8.77
	c-0.72,0-1.35,0.46-1.58,1.15c-0.22,0.68,0.02,1.43,0.6,1.85l7.1,5.16l-2.71,8.34c-0.22,0.68,0.02,1.43,0.6,1.85
	c0.58,0.42,1.37,0.42,1.95,0l7.1-5.15l7.1,5.15c0.29,0.21,0.63,0.32,0.98,0.32s0.68-0.11,0.98-0.32c0.58-0.42,0.82-1.17,0.6-1.85
	l-2.71-8.34l7.1-5.16C153.52,171.11,153.76,170.37,153.54,169.68z M112.06,77.19l-2.71,8.34c-0.22,0.68,0.02,1.43,0.6,1.85
	c0.58,0.42,1.37,0.42,1.95,0l7.1-5.15l7.1,5.15c0.29,0.21,0.63,0.32,0.98,0.32c0.34,0,0.68-0.11,0.98-0.32
	c0.58-0.42,0.82-1.17,0.6-1.85l-2.71-8.34l7.1-5.16c0.58-0.42,0.82-1.17,0.6-1.85c-0.22-0.68-0.86-1.15-1.58-1.15h-8.77l-2.71-8.34
	c-0.45-1.37-2.71-1.37-3.16,0l-2.71,8.34h-8.77c-0.72,0-1.35,0.46-1.58,1.15c-0.22,0.68,0.02,1.43,0.6,1.85L112.06,77.19z
	 M72.26,77.19l-2.71,8.34c-0.22,0.68,0.02,1.43,0.6,1.85c0.58,0.42,1.37,0.42,1.95,0l7.1-5.15l7.1,5.15
	c0.29,0.21,0.63,0.32,0.98,0.32c0.34,0,0.68-0.11,0.98-0.32c0.58-0.42,0.82-1.17,0.6-1.85l-2.71-8.34l7.1-5.16
	c0.58-0.42,0.82-1.17,0.6-1.85c-0.22-0.68-0.86-1.15-1.58-1.15h-8.77l-2.71-8.34c-0.45-1.37-2.71-1.37-3.16,0l-2.71,8.34h-8.77
	c-0.72,0-1.35,0.46-1.58,1.15c-0.22,0.68,0.02,1.43,0.6,1.85L72.26,77.19z M191.76,234.88h-8.77l-2.71-8.34
	c-0.45-1.37-2.71-1.37-3.15,0l-2.71,8.34h-8.77c-0.72,0-1.35,0.46-1.58,1.15c-0.22,0.68,0.02,1.43,0.6,1.85l7.1,5.16l-2.71,8.34
	c-0.22,0.68,0.02,1.43,0.6,1.85c0.58,0.42,1.37,0.42,1.95,0l7.1-5.15l7.1,5.15c0.29,0.21,0.63,0.32,0.98,0.32
	c0.34,0,0.68-0.11,0.98-0.32c0.58-0.42,0.82-1.17,0.6-1.85l-2.71-8.34l7.1-5.16c0.58-0.42,0.82-1.17,0.6-1.85
	C193.12,235.34,192.48,234.88,191.76,234.88z M151.96,234.88h-8.77l-2.71-8.34c-0.45-1.37-2.71-1.37-3.16,0l-2.71,8.34h-8.77
	c-0.72,0-1.35,0.46-1.58,1.15c-0.22,0.68,0.02,1.43,0.6,1.85l7.1,5.16l-2.71,8.34c-0.22,0.68,0.02,1.43,0.6,1.85
	c0.58,0.42,1.37,0.42,1.95,0l7.1-5.15l7.1,5.15c0.29,0.21,0.63,0.32,0.98,0.32s0.68-0.11,0.98-0.32c0.58-0.42,0.82-1.17,0.6-1.85
	l-2.71-8.34l7.1-5.16c0.58-0.42,0.82-1.17,0.6-1.85C153.31,235.34,152.68,234.88,151.96,234.88z M206.68,220.38
	c0.34,0,0.68-0.11,0.98-0.32c0.58-0.42,0.82-1.17,0.6-1.85l-2.71-8.34l7.1-5.16c0.58-0.42,0.82-1.17,0.6-1.85
	c-0.22-0.68-0.86-1.15-1.58-1.15h-8.77l-2.71-8.34c-0.45-1.37-2.71-1.37-3.16,0l-2.71,8.34h-8.77c-0.72,0-1.35,0.46-1.58,1.15
	c-0.22,0.68,0.02,1.43,0.6,1.85l7.1,5.16l-2.71,8.34c-0.22,0.68,0.02,1.43,0.6,1.85c0.58,0.42,1.37,0.42,1.95,0l7.1-5.15l7.1,5.15
	C205.99,220.27,206.33,220.38,206.68,220.38z M231.57,234.88h-8.77l-2.71-8.34c-0.45-1.37-2.71-1.37-3.16,0l-2.71,8.34h-8.77
	c-0.72,0-1.35,0.46-1.58,1.15c-0.22,0.68,0.02,1.43,0.6,1.85l7.1,5.16l-2.71,8.34c-0.22,0.68,0.02,1.43,0.6,1.85
	c0.58,0.42,1.37,0.42,1.95,0l7.1-5.15l7.1,5.15c0.29,0.21,0.63,0.32,0.98,0.32s0.68-0.11,0.98-0.32c0.58-0.42,0.82-1.17,0.6-1.85
	l-2.71-8.34l7.1-5.16c0.58-0.42,0.82-1.17,0.6-1.85C232.92,235.34,232.29,234.88,231.57,234.88z M251.47,135.37h-8.77l-2.71-8.34
	c-0.45-1.37-2.71-1.37-3.15,0l-2.71,8.34h-8.77c-0.72,0-1.35,0.46-1.58,1.15c-0.22,0.68,0.02,1.43,0.6,1.85l7.1,5.16l-2.71,8.34
	c-0.22,0.68,0.02,1.43,0.6,1.85c0.58,0.42,1.37,0.42,1.95,0l7.1-5.15l7.1,5.15c0.29,0.21,0.63,0.32,0.98,0.32s0.68-0.11,0.98-0.32
	c0.58-0.42,0.82-1.17,0.6-1.85l-2.71-8.34l7.1-5.16c0.58-0.42,0.82-1.17,0.6-1.85C252.82,135.83,252.19,135.37,251.47,135.37z
	 M127.07,220.38c0.34,0,0.68-0.11,0.98-0.32c0.58-0.42,0.82-1.17,0.6-1.85l-2.71-8.34l7.1-5.16c0.58-0.42,0.82-1.17,0.6-1.85
	c-0.22-0.68-0.86-1.15-1.58-1.15h-8.77l-2.71-8.34c-0.45-1.37-2.71-1.37-3.16,0l-2.71,8.34h-8.77c-0.72,0-1.35,0.46-1.58,1.15
	c-0.22,0.68,0.02,1.43,0.6,1.85l7.1,5.16l-2.71,8.34c-0.22,0.68,0.02,1.43,0.6,1.85c0.58,0.42,1.37,0.42,1.95,0l7.1-5.15l7.1,5.15
	C126.39,220.27,126.73,220.38,127.07,220.38z M251.47,201.71h-8.77l-2.71-8.34c-0.45-1.37-2.71-1.37-3.15,0l-2.71,8.34h-8.77
	c-0.72,0-1.35,0.46-1.58,1.15c-0.22,0.68,0.02,1.43,0.6,1.85l7.1,5.16l-2.71,8.34c-0.22,0.68,0.02,1.43,0.6,1.85
	c0.58,0.42,1.37,0.42,1.95,0l7.1-5.15l7.1,5.15c0.29,0.21,0.63,0.32,0.98,0.32s0.68-0.11,0.98-0.32c0.58-0.42,0.82-1.17,0.6-1.85
	l-2.71-8.34l7.1-5.16c0.58-0.42,0.82-1.17,0.6-1.85C252.82,202.17,252.19,201.71,251.47,201.71z M166.87,220.38
	c0.34,0,0.68-0.11,0.98-0.32c0.58-0.42,0.82-1.17,0.6-1.85l-2.71-8.34l7.1-5.16c0.58-0.42,0.82-1.17,0.6-1.85
	c-0.22-0.68-0.86-1.15-1.58-1.15h-8.77l-2.71-8.34c-0.45-1.37-2.71-1.37-3.15,0l-2.71,8.34h-8.77c-0.72,0-1.35,0.46-1.58,1.15
	c-0.22,0.68,0.02,1.43,0.6,1.85l7.1,5.16l-2.71,8.34c-0.22,0.68,0.02,1.43,0.6,1.85c0.58,0.42,1.37,0.42,1.95,0l7.1-5.15l7.1,5.15
	C166.19,220.27,166.53,220.38,166.87,220.38z M32.45,143.53l-2.71,8.34c-0.22,0.68,0.02,1.43,0.6,1.85c0.58,0.42,1.37,0.42,1.95,0
	l7.1-5.15l7.1,5.15c0.29,0.21,0.63,0.32,0.98,0.32s0.68-0.11,0.98-0.32c0.58-0.42,0.82-1.17,0.6-1.85l-2.71-8.34l7.1-5.16
	c0.58-0.42,0.82-1.17,0.6-1.85c-0.22-0.68-0.86-1.15-1.58-1.15h-8.77l-2.71-8.34c-0.45-1.37-2.71-1.37-3.16,0l-2.71,8.34h-8.77
	c-0.72,0-1.35,0.46-1.58,1.15c-0.22,0.68,0.02,1.43,0.6,1.85L32.45,143.53z M32.45,77.19l-2.71,8.34c-0.22,0.68,0.02,1.43,0.6,1.85
	c0.58,0.42,1.37,0.42,1.95,0l7.1-5.15l7.1,5.15c0.29,0.21,0.63,0.32,0.98,0.32s0.68-0.11,0.98-0.32c0.58-0.42,0.82-1.17,0.6-1.85
	l-2.71-8.34l7.1-5.16c0.58-0.42,0.82-1.17,0.6-1.85c-0.22-0.68-0.86-1.15-1.58-1.15h-8.77l-2.71-8.34c-0.45-1.37-2.71-1.37-3.16,0
	l-2.71,8.34h-8.77c-0.72,0-1.35,0.46-1.58,1.15c-0.22,0.68,0.02,1.43,0.6,1.85L32.45,77.19z M44.65,103.34
	c-0.22,0.68,0.02,1.43,0.6,1.85l7.1,5.16l-2.71,8.34c-0.22,0.68,0.02,1.43,0.6,1.85c0.58,0.42,1.37,0.42,1.95,0l7.1-5.15l7.1,5.15
	c0.29,0.21,0.63,0.32,0.98,0.32c0.34,0,0.68-0.11,0.98-0.32c0.58-0.42,0.82-1.17,0.6-1.85l-2.71-8.34l7.1-5.16
	c0.58-0.42,0.82-1.17,0.6-1.85c-0.22-0.68-0.86-1.15-1.58-1.15h-8.77l-2.71-8.34c-0.45-1.37-2.71-1.37-3.16,0L55,102.2h-8.77
	C45.51,102.2,44.88,102.66,44.65,103.34z M87.27,220.38c0.34,0,0.68-0.11,0.98-0.32c0.58-0.42,0.82-1.17,0.6-1.85l-2.71-8.34
	l7.1-5.16c0.58-0.42,0.82-1.17,0.6-1.85c-0.22-0.68-0.86-1.15-1.58-1.15h-8.77l-2.71-8.34c-0.45-1.37-2.71-1.37-3.16,0l-2.71,8.34
	h-8.77c-0.72,0-1.35,0.46-1.58,1.15c-0.22,0.68,0.02,1.43,0.6,1.85l7.1,5.16l-2.71,8.34c-0.22,0.68,0.02,1.43,0.6,1.85
	c0.58,0.42,1.37,0.42,1.95,0l7.1-5.15l7.1,5.15C86.58,220.27,86.92,220.38,87.27,220.38z M47.46,220.38c0.34,0,0.68-0.11,0.98-0.32
	c0.58-0.42,0.82-1.17,0.6-1.85l-2.71-8.34l7.1-5.16c0.58-0.42,0.82-1.17,0.6-1.85c-0.22-0.68-0.86-1.15-1.58-1.15h-8.77l-2.71-8.34
	c-0.45-1.37-2.71-1.37-3.16,0l-2.71,8.34h-8.77c-0.72,0-1.35,0.46-1.58,1.15c-0.22,0.68,0.02,1.43,0.6,1.85l7.1,5.16l-2.71,8.34
	c-0.22,0.68,0.02,1.43,0.6,1.85c0.58,0.42,1.37,0.42,1.95,0l7.1-5.15l7.1,5.15C46.78,220.27,47.12,220.38,47.46,220.38z
	 M112.16,234.88h-8.77l-2.71-8.34c-0.45-1.37-2.71-1.37-3.15,0l-2.71,8.34h-8.77c-0.72,0-1.35,0.46-1.58,1.15
	c-0.22,0.68,0.02,1.43,0.6,1.85l7.1,5.16l-2.71,8.34c-0.22,0.68,0.02,1.43,0.6,1.85c0.58,0.42,1.37,0.42,1.95,0l7.1-5.15l7.1,5.15
	c0.29,0.21,0.63,0.32,0.98,0.32c0.34,0,0.68-0.11,0.98-0.32c0.58-0.42,0.82-1.17,0.6-1.85l-2.71-8.34l7.1-5.16
	c0.58-0.42,0.82-1.17,0.6-1.85C113.51,235.34,112.88,234.88,112.16,234.88z M72.35,234.88h-8.77l-2.71-8.34
	c-0.45-1.37-2.71-1.37-3.16,0L55,234.88h-8.77c-0.72,0-1.35,0.46-1.58,1.15c-0.22,0.68,0.02,1.43,0.6,1.85l7.1,5.16l-2.71,8.34
	c-0.22,0.68,0.02,1.43,0.6,1.85c0.58,0.42,1.37,0.42,1.95,0l7.1-5.15l7.1,5.15c0.29,0.21,0.63,0.32,0.98,0.32
	c0.34,0,0.68-0.11,0.98-0.32c0.58-0.42,0.82-1.17,0.6-1.85l-2.71-8.34l7.1-5.16c0.58-0.42,0.82-1.17,0.6-1.85
	C73.71,235.34,73.07,234.88,72.35,234.88z"/>
<path class="st3" d="M36.07,64.51L39.16,74h9.98l-8.07,5.86l3.08,9.49l-8.07-5.86L28,89.36l3.08-9.49L23.01,74h9.98L36.07,64.51z
	 M72.79,74h-9.98l8.07,5.86l-3.08,9.49l8.07-5.86l8.07,5.86l-3.08-9.49L88.94,74h-9.98l-3.08-9.49L72.79,74z M112.6,74h-9.98
	l8.07,5.86l-3.08,9.49l8.07-5.86l8.07,5.86l-3.08-9.49l8.07-5.86h-9.98l-3.08-9.49L112.6,74z M152.4,74h-9.98l8.07,5.86l-3.08,9.49
	l8.07-5.86l8.07,5.86l-3.08-9.49l8.07-5.86h-9.98l-3.08-9.49L152.4,74z M192.21,74h-9.98l8.07,5.86l-3.08,9.49l8.07-5.86l8.07,5.86
	l-3.08-9.49l8.07-5.86h-9.98l-3.08-9.49L192.21,74z M232.01,74h-9.98l8.07,5.86l-3.08,9.49l8.07-5.86l8.07,5.86l-3.08-9.49
	l8.07-5.86h-9.98l-3.08-9.49L232.01,74z M52.89,107.17h-9.98l8.07,5.86l-3.08,9.49l8.07-5.86l8.07,5.86l-3.08-9.49l8.07-5.86h-9.98
	l-3.08-9.49L52.89,107.17z M92.7,107.17h-9.98l8.07,5.86l-3.08,9.49l8.07-5.86l8.07,5.86l-3.08-9.49l8.07-5.86h-9.98l-3.08-9.49
	L92.7,107.17z M132.5,107.17h-9.98l8.07,5.86l-3.08,9.49l8.07-5.86l8.07,5.86l-3.08-9.49l8.07-5.86h-9.98l-3.08-9.49L132.5,107.17z
	 M172.3,107.17h-9.98l8.07,5.86l-3.08,9.49l8.07-5.86l8.07,5.86l-3.08-9.49l8.07-5.86h-9.98l-3.08-9.49L172.3,107.17z
	 M212.11,107.17h-9.98l8.07,5.86l-3.08,9.49l8.07-5.86l8.07,5.86l-3.08-9.49l8.07-5.86h-9.98l-3.08-9.49L212.11,107.17z
	 M32.99,140.34h-9.98l8.07,5.86L28,155.7l8.07-5.86l8.07,5.86l-3.08-9.49l8.07-5.86h-9.98l-3.08-9.49L32.99,140.34z M72.79,140.34
	h-9.98l8.07,5.86l-3.08,9.49l8.07-5.86l8.07,5.86l-3.08-9.49l8.07-5.86h-9.98l-3.08-9.49L72.79,140.34z M112.6,140.34h-9.98
	l8.07,5.86l-3.08,9.49l8.07-5.86l8.07,5.86l-3.08-9.49l8.07-5.86h-9.98l-3.08-9.49L112.6,140.34z M152.4,140.34h-9.98l8.07,5.86
	l-3.08,9.49l8.07-5.86l8.07,5.86l-3.08-9.49l8.07-5.86h-9.98l-3.08-9.49L152.4,140.34z M192.21,140.34h-9.98l8.07,5.86l-3.08,9.49
	l8.07-5.86l8.07,5.86l-3.08-9.49l8.07-5.86h-9.98l-3.08-9.49L192.21,140.34z M232.01,140.34h-9.98l8.07,5.86l-3.08,9.49l8.07-5.86
	l8.07,5.86l-3.08-9.49l8.07-5.86h-9.98l-3.08-9.49L232.01,140.34z M52.89,173.51h-9.98l8.07,5.86l-3.08,9.49l8.07-5.86l8.07,5.86
	l-3.08-9.49l8.07-5.86h-9.98l-3.08-9.49L52.89,173.51z M92.7,173.51h-9.98l8.07,5.86l-3.08,9.49l8.07-5.86l8.07,5.86l-3.08-9.49
	l8.07-5.86h-9.98l-3.08-9.49L92.7,173.51z M132.5,173.51h-9.98l8.07,5.86l-3.08,9.49l8.07-5.86l8.07,5.86l-3.08-9.49l8.07-5.86
	h-9.98l-3.08-9.49L132.5,173.51z M172.3,173.51h-9.98l8.07,5.86l-3.08,9.49l8.07-5.86l8.07,5.86l-3.08-9.49l8.07-5.86h-9.98
	l-3.08-9.49L172.3,173.51z M212.11,173.51h-9.98l8.07,5.86l-3.08,9.49l8.07-5.86l8.07,5.86l-3.08-9.49l8.07-5.86h-9.98l-3.08-9.49
	L212.11,173.51z M32.99,206.68h-9.98l8.07,5.86L28,222.04l8.07-5.86l8.07,5.86l-3.08-9.49l8.07-5.86h-9.98l-3.08-9.49L32.99,206.68z
	 M72.79,206.68h-9.98l8.07,5.86l-3.08,9.49l8.07-5.86l8.07,5.86l-3.08-9.49l8.07-5.86h-9.98l-3.08-9.49L72.79,206.68z M112.6,206.68
	h-9.98l8.07,5.86l-3.08,9.49l8.07-5.86l8.07,5.86l-3.08-9.49l8.07-5.86h-9.98l-3.08-9.49L112.6,206.68z M152.4,206.68h-9.98
	l8.07,5.86l-3.08,9.49l8.07-5.86l8.07,5.86l-3.08-9.49l8.07-5.86h-9.98l-3.08-9.49L152.4,206.68z M192.21,206.68h-9.98l8.07,5.86
	l-3.08,9.49l8.07-5.86l8.07,5.86l-3.08-9.49l8.07-5.86h-9.98l-3.08-9.49L192.21,206.68z M232.01,206.68h-9.98l8.07,5.86l-3.08,9.49
	l8.07-5.86l8.07,5.86l-3.08-9.49l8.07-5.86h-9.98l-3.08-9.49L232.01,206.68z M52.89,239.85h-9.98l8.07,5.86l-3.08,9.49l8.07-5.86
	l8.07,5.86l-3.08-9.49l8.07-5.86h-9.98l-3.08-9.49L52.89,239.85z M92.7,239.85h-9.98l8.07,5.86l-3.08,9.49l8.07-5.86l8.07,5.86
	l-3.08-9.49l8.07-5.86h-9.98l-3.08-9.49L92.7,239.85z M132.5,239.85h-9.98l8.07,5.86l-3.08,9.49l8.07-5.86l8.07,5.86l-3.08-9.49
	l8.07-5.86h-9.98l-3.08-9.49L132.5,239.85z M172.3,239.85h-9.98l8.07,5.86l-3.08,9.49l8.07-5.86l8.07,5.86l-3.08-9.49l8.07-5.86
	h-9.98l-3.08-9.49L172.3,239.85z M212.11,239.85h-9.98l8.07,5.86l-3.08,9.49l8.07-5.86l8.07,5.86l-3.08-9.49l8.07-5.86h-9.98
	l-3.08-9.49L212.11,239.85z"/>
</svg>
