<?xml version="1.0" encoding="utf-8"?>
<!-- Generator: Adobe Illustrator 23.0.1, SVG Export Plug-In . SVG Version: 6.00 Build 0)  -->
<svg version="1.1" id="Layer_1" xmlns="http://www.w3.org/2000/svg" xmlns:xlink="http://www.w3.org/1999/xlink" x="0px" y="0px"
	 viewBox="0 0 500 500" style="enable-background:new 0 0 500 500;" xml:space="preserve">
<style type="text/css">
	.st0{fill:#C5E4FF;}
	.st1{fill:none;stroke:#1C3553;stroke-width:6;stroke-linecap:round;stroke-linejoin:round;stroke-miterlimit:10;}
	.st2{fill:none;stroke:#1C3553;stroke-width:3.4;stroke-linecap:round;stroke-linejoin:round;stroke-miterlimit:10;}
	.st3{fill:#FFFFFF;}
	.st4{fill:#FFFFFF;stroke:#1C3553;stroke-width:3.4;stroke-linecap:round;stroke-linejoin:round;stroke-miterlimit:10;}
</style>
<path class="st0" d="M62.205,436.586c-1.463,1.635-2.402,2.685-2.402,2.685s-7.489,0.424-10.315,0
	c-2.826-0.424-5.369,0.707-7.348,2.261c-1.978,1.554-5.228,1.13-5.793,2.826s-5.087,0.848-6.641-2.826
	c-1.554-3.674-4.38-7.065-7.348-5.793c-2.967,1.272-5.935,0.848-7.913,0.424s-3.815-1.696-2.119-6.358s2.119-7.489,0.141-6.5
	c-1.978,0.989-4.945-0.424-2.119-6.217c2.826-5.793,4.522-16.249,3.25-21.901s0.424-4.945,0.141-8.054
	c-0.283-3.109-1.413-6.5,1.696-6.5s4.663-5.087,6.641-3.815c1.978,1.272,6.641,2.261,9.326,0.565
	c2.685-1.696,3.532,1.413,8.478,2.119c4.945,0.706,9.891-1.413,11.021,0c1.13,1.413,5.228-0.989,7.771,0.283
	c2.543,1.272,7.913-4.804,9.467-10.173c1.554-5.369,1.13-13.423,0-15.967c-1.13-2.543-6.641-6.924-6.782-9.891
	c-0.141-2.967-4.098-5.228-8.337-5.793c-4.239-0.565-8.902-3.815-7.065-5.935s0.848-1.554,3.956-2.967
	c3.109-1.413,6.358-0.283,7.348,1.13s9.043-0.141,8.195-3.25c-0.848-3.109-3.391-8.478-1.554-6.358
	c1.837,2.119,11.163,5.369,13.847,1.978c2.685-3.391-0.706-4.663,2.967-4.522s5.793-3.391,7.348-7.489s5.511-4.804,6.358-6.217
	c0.848-1.413,3.109,0,5.935-0.706c2.826-0.706-0.989-4.522,0-7.065c0.989-2.543,3.391-9.184,7.206-10.456
	c3.815-1.272,9.184-3.674,11.728-2.967c2.543,0.707,3.674-3.956,5.087-4.239c1.413-0.283,4.663,4.38,5.652,2.685
	c0.989-1.696,4.804-2.851,5.652-2.697s-3.532-5.074-3.109-8.748c0.424-3.674-1.696-7.206-2.826-9.608s-0.848-10.032-0.283-13.423
	c0.565-3.391-1.272-1.272,4.38-4.945c5.652-3.674,6.5,0.141,5.793,3.25c-0.706,3.109,2.402,7.63,0.212,10.173
	c-2.19,2.543-5.299,7.771-3.462,12.01c1.837,4.239,5.087,4.098,6.924,5.087c1.837,0.989,3.815,6.5,6.5,4.098
	c2.685-2.402,9.608-4.804,12.01-2.685s4.38,3.674,6.641,4.239c2.261,0.565,2.402,2.261,2.402,2.261s1.696-5.228,5.652-6.5
	c3.956-1.272,7.065-3.815,9.608-5.652c2.543-1.837,10.173-3.532,10.456-0.848c0.283,2.685,7.913,3.532,9.467,1.272
	c1.554-2.261,6.641,0.283,11.445,0.283c4.804,0,9.467-1.554,9.467-1.554s2.967-4.239,0-5.369c-2.967-1.13-4.522-2.967-7.913-3.956
	c-3.391-0.989-6.076-5.793-6.076-8.337c0-2.543,3.25-9.75,3.391-12.293c0.141-2.543,6.5-3.391,8.195,0
	c1.696,3.391,7.771,5.793,9.467,1.696c1.696-4.098-1.554-9.326,0-12.293c1.554-2.967-4.239,0.565-4.663-2.402
	s-2.967-10.173,0.848-10.456c3.815-0.283,9.184-3.815,11.445-2.543c2.261,1.272,7.63,1.13,10.597,1.272s4.522-1.13,4.945-2.543
	c0.424-1.413,4.804-3.815,7.206-4.098c2.402-0.283,1.978-3.815-0.848-4.239c-2.826-0.424-5.228-5.935-7.206-4.663
	c-1.978,1.272-7.489,1.696-11.445,1.837c-3.956,0.141-7.771,0.141-12.858,2.967c-5.087,2.826-9.467,2.119-9.891-1.272
	s-7.348-0.706-9.184-2.119s-2.826-4.38-2.402-7.489c0.424-3.109-0.424-8.337-1.413-11.163c-0.989-2.826-1.978-8.902,0.848-10.597
	c2.826-1.696,5.228-9.891,7.206-9.184s0.706-4.38,3.391-7.065c2.685-2.685,4.804-9.184,8.195-7.63
	c3.391,1.554,2.826-6.924,1.272-9.043c-1.554-2.119-6.217-2.543-10.173-3.391s-9.467-0.848-12.999,1.837
	c-3.532,2.685-5.087,8.337-4.098,12.01c0.989,3.674,2.261,7.771-0.565,10.739c-2.826,2.967-10.597,6.924-12.434,9.608
	c-1.837,2.685-2.826,5.511-5.511,7.206c-2.685,1.696-3.674,4.522-2.543,7.489s0.848,7.913,0.283,10.739
	c-0.565,2.826,0.424,6.641,4.239,8.478c3.815,1.837,7.348,7.065,7.206,9.326c-0.141,2.261-3.532,2.826-6.924,1.978
	c-3.391-0.848-7.065,2.119-8.619,1.554c-1.554-0.565-0.283,1.13,3.815,1.554c4.098,0.424,10.315,0.989,8.902,2.402
	c-1.413,1.413-10.88,2.543-13.141,5.511s2.967,4.663,3.25,7.489c0.283,2.826-0.848,6.076-0.141,9.043s0.283,9.849-2.402,11
	c-2.685,1.151-8.195-0.685-8.902,1.434s-2.119,6.358-4.522,6.358c-2.402,0-7.489,1.837-6.358-0.141
	c1.13-1.978-1.837-3.25-1.413-5.793c0.424-2.543,4.239-5.652,1.272-6.924c-2.967-1.272-9.043-10.032-8.337-13.423
	c0.706-3.391,1.272-4.945-0.706-6.358c-1.978-1.413-4.098-4.38-1.837-5.793s1.978-5.793,1.978-5.793s-4.38,3.391-5.511,2.261
	s-3.391-5.935-3.532-3.109c-0.141,2.826-0.848,5.369-3.532,5.369c-2.685,0-5.511,3.391-6.641,5.369
	c-1.13,1.978-3.532,2.543-6.782,4.663c-3.25,2.119-4.663,1.13-8.054-0.565c-3.391-1.696-7.489-6.358-5.511-5.369
	c1.978,0.989,7.63-2.119,5.369-3.25s-4.522-4.38-3.391-6.358c1.13-1.978-1.13-5.087,0.989-6.5c2.119-1.413,6.924-6.641,3.25-5.793
	c-3.674,0.848-5.652,0.706-8.337-1.13c-2.685-1.837-1.837-4.239,1.272-4.098s7.489-1.13,8.054-2.826
	c0.565-1.696-7.63-0.848-9.326-3.674c-1.696-2.826,3.532-2.119,5.793-3.674c2.261-1.554,2.826-6.782,6.5-8.619
	c3.674-1.837,8.619-1.554,8.902-5.087c0.283-3.532,1.13-4.663,3.674-4.804c2.543-0.141-0.021,1.413,5.006,1.272
	s4.744-6.782,2.625-6.217c-2.119,0.565-4.684-1.554-2.625-4.239c2.059-2.685,2.342-4.239,5.027-5.369
	c2.685-1.13,6.641-5.087,7.771-9.75c1.13-4.663,2.685-8.631,4.804-10.532c2.119-1.902,1.554-3.032,0.706-5.434
	c-0.848-2.402,0.141-7.63,4.663-8.902c4.522-1.272,4.804-5.935,5.935-7.489c1.13-1.554,3.25-11.021,5.511-10.88
	s3.532-3.25,2.543-4.098s1.554-3.532,4.098-5.793c2.543-2.261,4.239-4.522,5.793-3.674c1.554,0.848,1.413-2.261,1.413-4.945
	s6.5,1.554,9.467-1.554s5.935-1.413,6.782-3.25c0.848-1.837-0.283-3.956-1.696-5.935c-1.413-1.978,3.674-0.283,4.522,1.413
	c0.848,1.696,2.543-0.706,4.522-3.674s4.804-4.38,6.217-6.358c1.413-1.978,4.522-1.272,4.239,1.978
	c-0.283,3.25,1.413,5.369,2.967,2.967c1.554-2.402,2.826-5.935,3.391-3.674s2.967,0.908,4.663-2.372
	c1.696-3.28,3.815-4.975,5.228-3.28c1.413,1.696-2.826,6.5-1.272,7.348c1.554,0.848,3.815-1.13,5.793-3.956s4.239,1.272,6.5,2.261
	c2.261,0.989,7.771,2.119,6.358,4.38c-1.413,2.261-9.184,0.283-11.021,1.696c-1.837,1.413,3.109,3.391,3.532,5.511
	s3.815,1.413,6.782,1.13c2.967-0.283,3.815,3.532,5.935,1.272c2.119-2.261,4.663-1.13,5.369,0.848
	c0.707,1.978,3.109,5.228,5.935,4.945c2.826-0.283,5.793-3.815,8.619-2.685c2.826,1.13,5.369-1.554,10.88,2.119
	c5.511,3.674,13.565,10.597,17.662,11.728s7.489,3.674,9.75,5.652s7.63,7.63,7.065,11.586c-0.565,3.956-3.815,8.902-8.337,10.88
	s-14.554,2.402-19.782,0c-5.228-2.402-11.163-4.804-14.836-5.511c-3.674-0.706-9.326-4.098-10.88-5.369
	c-1.554-1.272-2.119,4.522,0.424,6.782c2.543,2.261,7.348,2.402,7.348,3.674c0,1.272,1.272,4.239,5.087,3.815
	c3.815-0.424,4.663,6.217,4.38,7.63c-0.283,1.413,3.25,8.054,2.685,11.728c-0.565,3.674,6.217,4.098,8.054,6.217
	c1.837,2.119,8.478,4.804,11.728,4.098c3.25-0.706,5.087-6.5,1.272-7.489s-8.76-3.391-8.619-6.782
	c0.141-3.391,0.565-3.815,3.391-1.554c2.826,2.261,8.195,1.13,11.445,3.109c3.25,1.978,3.191,4.522,6.682,0.565s2.02-4.38,0-7.63
	c-2.02-3.25-4.48-5.369,0-8.76c4.48-3.391,7.871-7.489,8.719-9.467c0.848-1.978,2.402,0.989,4.804,1.696
	c2.402,0.706,4.663,1.413,6.076,3.391c1.413,1.978,3.815,1.554,3.674-1.978c-0.141-3.532,1.13-13.141-1.413-13.706
	c-2.543-0.565-5.793-0.424-4.522-4.804c1.272-4.38,1.413-8.478-1.272-11.728c-2.685-3.25-0.706-4.945,3.674-4.38
	s5.087,3.674,8.054,5.652c2.967,1.978,1.413,2.261-0.848,4.38s-4.239,6.5-1.554,9.467c2.685,2.967,6.782,5.511,8.902,6.076
	s6.358-3.674,6.924-5.793s0.989-8.902,3.815-8.761c2.826,0.141,3.956-4.522,6.076-3.815c2.119,0.706,7.206,4.804,8.76,7.489
	s4.804,5.652,6.358,8.195s0.424,3.815-0.989,6.641c-1.413,2.826-0.141,4.945-0.141,8.054s-0.706,7.489-1.696,11.728
	c-0.989,4.239-3.25,6.5-3.532,9.043c-0.283,2.543,3.815,5.228,5.369,9.608c1.554,4.38,2.826,1.272,3.956,6.782
	c1.13,5.511,2.543,7.348,5.511,8.478c2.967,1.13,6.924,4.945,7.065,7.771c0.141,2.826,1.272,7.206,3.25,8.478
	c1.978,1.272,1.837,3.815,2.119,5.511c0.283,1.696,2.967,3.956,4.239,7.489c1.272,3.532,3.25,6.076,5.511,8.337
	s2.826,5.369,3.674,7.065c0.848,1.696,6.5,6.924,3.815,10.032c-2.685,3.109-2.826,5.793-1.413,9.326
	c1.413,3.532-1.696,4.804-1.696,6.924s3.815,8.337,5.935,8.76c2.119,0.424,2.826-2.685,7.348-2.967
	c4.522-0.283,9.608-2.119,9.608,0.565c0,2.685-0.424,5.469-3.674,4.642c-3.25-0.827-4.804,0.304-6.782,2.282
	s-6.358,1.696-5.228,3.532c1.13,1.837,6.641,9.75,10.456,8.337c3.815-1.413,7.913-4.522,8.619-6.641
	c0.706-2.119,3.109-3.391,4.663-5.793c1.554-2.402,3.25,3.815,1.696,6.782c-1.554,2.967-5.793,8.478-0.283,9.326
	c5.511,0.848,6.924,2.685,6.641,5.935c-0.283,3.25,4.663,10.173,6.5,8.76c1.837-1.413,3.674-3.391,5.369-4.945
	c1.696-1.554,1.696,1.696,4.945,4.38c3.25,2.685,6.358,1.413,8.619,1.13s1.837,3.391,5.652,5.793c3.815,2.402,6.5,7.206,2.826,7.206
	s-6.924-3.391-7.63-0.848c-0.706,2.543-1.413,2.543-5.793,2.119c-4.38-0.424-5.511-6.076-8.054-5.087
	c-2.543,0.989-3.674,2.261-7.771,0.989c-4.098-1.272-5.228,2.543-6.782,4.522c-1.554,1.978-7.206-3.109-8.478-1.413
	c-1.272,1.696-7.348-2.826-11.021-4.663c-3.674-1.837-4.804-5.087-8.054-3.674c-3.25,1.413-6.782,2.685-8.902,0.989
	c-2.119-1.696-1.554-0.989-2.967,1.272c-1.413,2.261-7.206,4.945-7.206,6.5c0,1.554-1.554,4.239-4.239,4.522
	c-2.685,0.283,2.685,7.771,0.707,9.043c-1.978,1.272-5.087-6.076-8.054-6.217c-2.967-0.141-2.967,3.391-4.38,5.652
	c-1.413,2.261-0.141,4.804-0.141,7.206s-0.706,7.206,1.837,7.489c2.543,0.283-0.283,4.945,4.239,4.804
	c4.522-0.141,8.337,3.25,9.608,5.793s-3.815,4.945,0.424,5.935c4.239,0.989,2.261,3.956,0.424,5.935
	c-1.837,1.978-7.065,4.098-8.478,6.5c-1.413,2.402-3.815,9.891-1.272,11.021c2.543,1.13,6.5,4.663,7.206,8.195
	c0.707,3.532,1.554,9.184,5.369,11.728c3.815,2.543,7.206,6.217,9.184,8.76s3.25,6.782,6.217,6.924
	c2.967,0.141,0.424,1.978-0.848,2.826c-1.272,0.848-2.261,7.63-2.826,9.184c-0.565,1.554-2.119,0.989-2.119,3.25
	c0,2.261-1.978,6.924-2.543,4.945s-1.413-11.304-4.098-9.75s-8.902,6.076-11.869,6.641c-2.967,0.565-6.782-0.424-8.478-3.25
	c-1.696-2.826-3.109-6.641-4.804-4.804c-1.696,1.837-4.098,1.554-4.239,3.109s3.25,5.511,2.543,7.771
	c-0.706,2.261-0.424,4.522,0.283,6.924c0.707,2.402,4.804,5.793,3.956,7.065c-0.848,1.272-6.5-2.967-9.608-2.119
	c-3.109,0.848-12.858,2.402-17.238,2.543s-5.652,3.532-10.315,3.674c-4.663,0.141-8.902-1.978-12.999-0.848s-5.228,3.109-7.63,5.511
	c-2.402,2.402-6.358,0.989-4.38-1.696s1.696-3.815-1.272-2.826c-2.967,0.989-7.206-0.989-8.76-0.565
	c-1.554,0.424-3.956,6.197-8.761,6.348c-4.804,0.151-5.935-1.827-9.891-4.087c-3.956-2.261-10.88-3.956-11.586-1.696
	c-0.706,2.261-7.206,5.935-7.913,4.098c-0.706-1.837-3.391-3.815-5.652-4.239c-2.261-0.424-9.184-0.141-9.184-3.815
	c0-3.674-2.402-7.065-4.663-7.63s-0.707-1.696,0.706-5.793s0.848-7.065-1.837-7.206c-2.685-0.141-3.956-7.206-0.424-6.782
	c3.532,0.424,12.858,2.261,14.978,0s0.424-3.956,3.25-3.956c2.826,0-4.239-4.522,1.413-4.663c5.652-0.141,11.869,1.554,13.706-1.272
	c1.837-2.826,5.935-4.663,9.184-4.945c3.25-0.283,10.739-2.261,13.282-1.837c2.543,0.424,5.511,5.087,7.065,2.685
	c1.554-2.402,2.826,0.424,4.239,1.554c1.413,1.13,10.032,3.956,12.999,4.239c2.967,0.283,4.239-1.413,9.467-0.283
	c5.228,1.13,8.195,0.424,11.869-1.837s5.228-9.043,4.098-12.152c-1.13-3.109-5.228-7.489-7.489-7.63s-5.793-3.815-9.891-6.782
	c-4.098-2.967-6.924-5.652-11.021-6.217c-4.098-0.565-10.597-7.63-8.054-6.782c2.543,0.848,4.239-1.837,4.098-3.532
	c-0.141-1.696,0.707-1.696,3.109-3.674s-5.228-3.674,0.565-5.087c5.793-1.413,5.652-4.38,4.38-5.935
	c-1.272-1.554-5.511-1.696-10.456,0.424s-6.641,4.098-11.021,4.239s-4.239-0.565-8.054,2.402s-4.945,2.826-10.739,3.532
	c-5.793,0.706-9.043-1.272-6.782-2.967c2.261-1.696,0.283-1.837-3.391-2.685s-8.76,0-10.739,3.532
	c-1.978,3.532-5.511,9.891-4.804,12.717c0.707,2.826-2.543,1.978-4.522,4.522s-1.696,4.098-2.119,8.054s-3.25,2.119-4.239,6.076
	c-0.989,3.956-2.261,7.771,0.283,11.021s10.032,7.489,7.489,8.619c-2.543,1.13-7.63,0.565-8.76,2.402
	c-1.13,1.837-7.63,1.13-10.315-0.141c-2.685-1.272-3.532-0.989-7.206-1.554c-3.674-0.565-6.641,1.837-7.771,4.098
	c-1.13,2.261-3.391,5.793-5.228,3.815s-5.793,1.413-3.956,3.956s3.25,4.804,2.543,7.206c-0.706,2.402,4.098,3.25,6.217,6.217
	c2.119,2.967,1.978,5.652-0.565,5.228s-5.511,0.989-4.098,3.956c1.413,2.967,0.989,4.239-3.25,4.098s-5.228-3.391-6.076-5.087
	c-0.848-1.696-6.217-5.228-0.706-4.945c5.511,0.283,9.326-2.119,5.793-3.109c-3.532-0.989-10.032-0.565-11.304-3.815
	s-3.956-4.945-5.793-7.63c-1.837-2.685-0.706-3.815-3.532-5.228c-2.826-1.413-3.532-3.956-2.826-7.771
	c0.706-3.815,1.413-6.076-1.696-8.619s-4.804-7.913-6.217-8.478c-1.413-0.565-5.369,1.837-7.065-2.119s-2.402-4.663-5.652-4.804
	c-3.25-0.141-8.619-2.402-9.184-5.087c-0.565-2.685-2.685-4.804-3.391-6.924c-0.706-2.119-4.38-6.5-6.076-3.532
	c-1.696,2.967-3.815,6.076-3.956,2.967c-0.141-3.109,2.826-8.337-3.25-7.348c-6.076,0.989-10.173,3.532-8.195,5.652
	s0.989,2.967,0.989,5.087s0.989,3.815,5.369,8.337s9.326,12.152,10.739,13.565c1.413,1.413,6.5,3.815,9.467,4.239
	c2.967,0.424,2.543,1.696,2.543,2.967s5.511,3.391,9.326,5.087c3.815,1.696,5.087,3.391,7.348,4.38
	c2.261,0.989,0.989,5.652,0.141,3.956c-0.848-1.696-7.63-5.793-8.619-4.945c-0.989,0.848-2.826,6.217-2.967,6.782
	c-0.141,0.565,2.119,2.967,3.391,4.38c1.272,1.413-2.402,7.913-3.674,9.608c-1.272,1.696-2.685,6.076-3.956,4.239
	c-1.272-1.837,1.272-6.358,2.119-8.054s-1.978-7.913-2.261-9.75c-0.283-1.837-0.141-3.109-2.402-3.391s-3.391-5.369-5.652-5.369
	s-5.511-3.815-7.63-3.956c-2.119-0.141-9.891-4.522-12.434-7.771c-2.543-3.25-10.315-8.619-11.021-10.456
	c-0.706-1.837-3.109-8.619-7.489-10.456c-4.38-1.837-8.054-2.685-10.739,0c-2.685,2.685-3.815,3.532-6.641,4.663
	c-2.826,1.13-4.38,4.239-5.793,5.935c-1.413,1.696-3.674-0.141-6.641-1.696c-2.967-1.554-2.826-2.543-5.652-1.696
	c-2.826,0.848-6.076-1.13-7.489,0.283c-1.413,1.413-4.945,9.75-4.804,12.717c0.141,2.967,0.283,4.522-4.239,7.348
	s-6.076,1.696-8.054,4.098c-1.978,2.402-7.489,8.337-8.619,11.021c-1.13,2.685,0.565,4.663,1.837,6.782
	c1.272,2.119,0.848,3.25-1.554,4.239c-2.402,0.989-2.685,5.087-3.25,6.782S64.607,433.901,62.205,436.586z"/>
<path class="st0" d="M369.906,77.358c-1.484,1.62-4.71,3.391-4.71,4.333c0,0.942-1.696-0.188-2.638-2.167
	c-0.942-1.978,0-4.051,0-5.558c0-1.507,3.014-5.464,4.333-3.391C368.21,72.648,371.172,75.975,369.906,77.358z"/>
<path class="st0" d="M321.111,359.39c-0.922-0.597-1.319-2.638-3.956-3.768c-2.638-1.13-5.087-1.13-6.217,0
	c-1.13,1.13-7.536,1.696-3.014,3.768c4.522,2.072,4.333,4.145,3.956,5.84s2.826,2.072,6.406,0c3.58-2.072,6.782-3.956,9.608-4.145
	c2.826-0.188,5.652-4.145,3.014-2.826S324.314,361.462,321.111,359.39z"/>
<path class="st0" d="M135.727,386.896c-1.279,0.959-2.449,2.826-0.942,5.464s3.014,7.348,4.145,4.71
	S138.742,384.635,135.727,386.896z"/>
<path class="st0" d="M134.075,403.475c-1.244-1.078,2.405,6.217,1.652,9.232c-0.754,3.014-1.663,9.985,0.11,7.724
	c1.774-2.261,3.846-3.58,4.788-2.261c0.942,1.319,1.319-3.325,1.319-5.995c0-2.671-0.754-4.178,0-6.439
	c0.754-2.261-2.398-6.217-4.025-4.522S135.815,404.982,134.075,403.475z"/>
<path class="st0" d="M182.827,433.618c2.526-3.109,4.522-5.652,0-3.956c-4.522,1.696-6.406,0.565-9.42,0.942
	c-3.014,0.377-4.898-1.319-6.406-0.377s-3.58,1.884,0,3.391c3.58,1.507,9.797,3.391,10.55,4.333
	c0.754,0.942,2.826,4.145,4.522,2.449S180.945,435.935,182.827,433.618z"/>
<path class="st1" d="M56.223,441.57c-1.463,1.635-2.402,2.685-2.402,2.685s-7.489,0.424-10.315,0s-5.369,0.706-7.348,2.261
	c-1.978,1.554-5.228,1.13-5.793,2.826c-0.565,1.696-5.087,0.848-6.641-2.826s-4.38-7.065-7.348-5.793
	c-2.967,1.272-5.935,0.848-7.913,0.424c-1.978-0.424-3.815-1.696-2.119-6.358c1.696-4.663,2.119-7.489,0.141-6.5
	c-1.978,0.989-4.945-0.424-2.119-6.217s4.522-16.249,3.25-21.901c-1.272-5.652,0.424-4.945,0.141-8.054
	c-0.283-3.109-1.413-6.5,1.696-6.5s4.663-5.087,6.641-3.815c1.978,1.272,6.641,2.261,9.326,0.565s3.532,1.413,8.478,2.119
	s9.891-1.413,11.021,0c1.13,1.413,5.228-0.989,7.771,0.283c2.543,1.272,7.913-4.804,9.467-10.173c1.554-5.369,1.13-13.423,0-15.967
	c-1.13-2.543-6.641-6.924-6.782-9.891c-0.141-2.967-4.098-5.228-8.337-5.793s-8.902-3.815-7.065-5.935
	c1.837-2.119,0.848-1.554,3.956-2.967c3.109-1.413,6.358-0.283,7.348,1.13c0.989,1.413,9.043-0.141,8.195-3.25
	c-0.848-3.109-3.391-8.478-1.554-6.358s11.163,5.369,13.847,1.978c2.685-3.391-0.706-4.663,2.967-4.522
	c3.674,0.141,5.793-3.391,7.348-7.489s5.511-4.804,6.358-6.217c0.848-1.413,3.109,0,5.935-0.706c2.826-0.707-0.989-4.522,0-7.065
	c0.989-2.543,3.391-9.184,7.206-10.456c3.815-1.272,9.184-3.674,11.728-2.967c2.543,0.706,3.674-3.956,5.087-4.239
	s4.663,4.38,5.652,2.685s4.804-2.851,5.652-2.697c0.848,0.154-3.532-5.074-3.109-8.748c0.424-3.674-1.696-7.206-2.826-9.608
	s-0.848-10.032-0.283-13.423c0.565-3.391-1.272-1.272,4.38-4.945c5.652-3.674,6.5,0.141,5.793,3.25s2.402,7.63,0.212,10.173
	c-2.19,2.543-5.299,7.771-3.462,12.01s5.087,4.098,6.924,5.087c1.837,0.989,3.815,6.5,6.5,4.098
	c2.685-2.402,9.608-4.804,12.01-2.685c2.402,2.119,4.38,3.674,6.641,4.239c2.261,0.565,2.402,2.261,2.402,2.261
	s1.696-5.228,5.652-6.5c3.956-1.272,7.065-3.815,9.608-5.652c2.543-1.837,10.173-3.532,10.456-0.848s7.913,3.532,9.467,1.272
	c1.554-2.261,6.641,0.283,11.445,0.283c4.804,0,9.467-1.554,9.467-1.554s2.967-4.239,0-5.369c-2.967-1.13-4.522-2.967-7.913-3.956
	c-3.391-0.989-6.076-5.793-6.076-8.337c0-2.543,3.25-9.75,3.391-12.293c0.141-2.543,6.5-3.391,8.195,0
	c1.696,3.391,7.771,5.793,9.467,1.696s-1.554-9.326,0-12.293c1.554-2.967-4.239,0.565-4.663-2.402
	c-0.424-2.967-2.967-10.173,0.848-10.456c3.815-0.283,9.184-3.815,11.445-2.543c2.261,1.272,7.63,1.13,10.597,1.272
	c2.967,0.141,4.522-1.13,4.945-2.543c0.424-1.413,4.804-3.815,7.206-4.098c2.402-0.283,1.978-3.815-0.848-4.239
	c-2.826-0.424-5.228-5.935-7.206-4.663c-1.978,1.272-7.489,1.696-11.445,1.837c-3.956,0.141-7.771,0.141-12.858,2.967
	c-5.087,2.826-9.467,2.119-9.891-1.272c-0.424-3.391-7.348-0.706-9.184-2.119s-2.826-4.38-2.402-7.489
	c0.424-3.109-0.424-8.337-1.413-11.163s-1.978-8.902,0.848-10.597s5.228-9.891,7.206-9.184s0.706-4.38,3.391-7.065
	c2.685-2.685,4.804-9.184,8.195-7.63c3.391,1.554,2.826-6.924,1.272-9.043c-1.554-2.119-6.217-2.543-10.173-3.391
	c-3.956-0.848-9.467-0.848-12.999,1.837c-3.532,2.685-5.087,8.337-4.098,12.01c0.989,3.674,2.261,7.771-0.565,10.739
	c-2.826,2.967-10.597,6.924-12.434,9.608c-1.837,2.685-2.826,5.511-5.511,7.206c-2.685,1.696-3.674,4.522-2.543,7.489
	s0.848,7.913,0.283,10.739c-0.565,2.826,0.424,6.641,4.239,8.478c3.815,1.837,7.348,7.065,7.206,9.326
	c-0.141,2.261-3.532,2.826-6.924,1.978c-3.391-0.848-7.065,2.119-8.619,1.554c-1.554-0.565-0.283,1.13,3.815,1.554
	c4.098,0.424,10.315,0.989,8.902,2.402c-1.413,1.413-10.88,2.543-13.141,5.511c-2.261,2.967,2.967,4.663,3.25,7.489
	c0.283,2.826-0.848,6.076-0.141,9.043c0.706,2.967,0.283,9.849-2.402,11c-2.685,1.151-8.195-0.685-8.902,1.434
	c-0.706,2.119-2.119,6.358-4.522,6.358c-2.402,0-7.489,1.837-6.358-0.141s-1.837-3.25-1.413-5.793
	c0.424-2.543,4.239-5.652,1.272-6.924c-2.967-1.272-9.043-10.032-8.337-13.423s1.272-4.945-0.706-6.358
	c-1.978-1.413-4.098-4.38-1.837-5.793c2.261-1.413,1.978-5.793,1.978-5.793s-4.38,3.391-5.511,2.261s-3.391-5.935-3.532-3.109
	c-0.141,2.826-0.848,5.369-3.532,5.369c-2.685,0-5.511,3.391-6.641,5.369s-3.532,2.543-6.782,4.663
	c-3.25,2.119-4.663,1.13-8.054-0.565c-3.391-1.696-7.489-6.358-5.511-5.369s7.63-2.119,5.369-3.25
	c-2.261-1.13-4.522-4.38-3.391-6.358c1.13-1.978-1.13-5.087,0.989-6.5c2.119-1.413,6.924-6.641,3.25-5.793s-5.652,0.706-8.337-1.13
	c-2.685-1.837-1.837-4.239,1.272-4.098s7.489-1.13,8.054-2.826s-7.63-0.848-9.326-3.674c-1.696-2.826,3.532-2.119,5.793-3.674
	c2.261-1.554,2.826-6.782,6.5-8.619c3.674-1.837,8.619-1.554,8.902-5.087c0.283-3.532,1.13-4.663,3.674-4.804
	s-0.021,1.413,5.006,1.272s4.744-6.782,2.625-6.217c-2.119,0.565-4.684-1.554-2.625-4.239c2.059-2.685,2.342-4.239,5.027-5.369
	s6.641-5.087,7.771-9.75c1.13-4.663,2.685-8.631,4.804-10.532s1.554-3.032,0.706-5.434c-0.848-2.402,0.141-7.63,4.663-8.902
	c4.522-1.272,4.804-5.935,5.935-7.489s3.25-11.021,5.511-10.88s3.532-3.25,2.543-4.098s1.554-3.532,4.098-5.793
	c2.543-2.261,4.239-4.522,5.793-3.674c1.554,0.848,1.413-2.261,1.413-4.945s6.5,1.554,9.467-1.554s5.935-1.413,6.782-3.25
	s-0.283-3.956-1.696-5.935c-1.413-1.978,3.674-0.283,4.522,1.413c0.848,1.696,2.543-0.706,4.522-3.674s4.804-4.38,6.217-6.358
	c1.413-1.978,4.522-1.272,4.239,1.978c-0.283,3.25,1.413,5.369,2.967,2.967c1.554-2.402,2.826-5.935,3.391-3.674
	c0.565,2.261,2.967,0.908,4.663-2.372c1.696-3.28,3.815-4.975,5.228-3.28s-2.826,6.5-1.272,7.348
	c1.554,0.848,3.815-1.13,5.793-3.956c1.978-2.826,4.239,1.272,6.5,2.261s7.771,2.119,6.358,4.38
	c-1.413,2.261-9.184,0.283-11.021,1.696s3.109,3.391,3.532,5.511c0.424,2.119,3.815,1.413,6.782,1.13
	c2.967-0.283,3.815,3.532,5.935,1.272c2.119-2.261,4.663-1.13,5.369,0.848s3.109,5.228,5.935,4.945
	c2.826-0.283,5.793-3.815,8.619-2.685c2.826,1.13,5.369-1.554,10.88,2.119c5.511,3.674,13.565,10.597,17.662,11.728
	s7.489,3.674,9.75,5.652c2.261,1.978,7.63,7.63,7.065,11.586c-0.565,3.956-3.815,8.902-8.337,10.88
	c-4.522,1.978-14.554,2.402-19.782,0c-5.228-2.402-11.163-4.804-14.836-5.511c-3.674-0.706-9.326-4.098-10.88-5.369
	c-1.554-1.272-2.119,4.522,0.424,6.782c2.543,2.261,7.348,2.402,7.348,3.674s1.272,4.239,5.087,3.815
	c3.815-0.424,4.663,6.217,4.38,7.63c-0.283,1.413,3.25,8.054,2.685,11.728c-0.565,3.674,6.217,4.098,8.054,6.217
	c1.837,2.119,8.478,4.804,11.728,4.098c3.25-0.706,5.087-6.5,1.272-7.489s-8.761-3.391-8.619-6.782
	c0.141-3.391,0.565-3.815,3.391-1.554c2.826,2.261,8.195,1.13,11.445,3.109c3.25,1.978,3.191,4.522,6.682,0.565s2.02-4.38,0-7.63
	c-2.02-3.25-4.48-5.369,0-8.76c4.48-3.391,7.871-7.489,8.719-9.467c0.848-1.978,2.402,0.989,4.804,1.696
	c2.402,0.706,4.663,1.413,6.076,3.391c1.413,1.978,3.815,1.554,3.674-1.978c-0.141-3.532,1.13-13.141-1.413-13.706
	c-2.543-0.565-5.793-0.424-4.522-4.804c1.272-4.38,1.413-8.478-1.272-11.728c-2.685-3.25-0.707-4.945,3.674-4.38
	c4.38,0.565,5.087,3.674,8.054,5.652c2.967,1.978,1.413,2.261-0.848,4.38s-4.239,6.5-1.554,9.467
	c2.685,2.967,6.782,5.511,8.902,6.076s6.358-3.674,6.924-5.793c0.565-2.119,0.989-8.902,3.815-8.761
	c2.826,0.141,3.956-4.522,6.076-3.815c2.119,0.706,7.206,4.804,8.76,7.489c1.554,2.685,4.804,5.652,6.358,8.195
	s0.424,3.815-0.989,6.641c-1.413,2.826-0.141,4.945-0.141,8.054c0,3.109-0.706,7.489-1.696,11.728
	c-0.989,4.239-3.25,6.5-3.532,9.043c-0.283,2.543,3.815,5.228,5.369,9.608c1.554,4.38,2.826,1.272,3.956,6.782
	c1.13,5.511,2.543,7.348,5.511,8.478c2.967,1.13,6.924,4.945,7.065,7.771s1.272,7.206,3.25,8.478
	c1.978,1.272,1.837,3.815,2.119,5.511c0.283,1.696,2.967,3.956,4.239,7.489c1.272,3.532,3.25,6.076,5.511,8.337
	c2.261,2.261,2.826,5.369,3.674,7.065c0.848,1.696,6.5,6.924,3.815,10.032s-2.826,5.793-1.413,9.326
	c1.413,3.532-1.696,4.804-1.696,6.924s3.815,8.337,5.935,8.76c2.119,0.424,2.826-2.685,7.348-2.967
	c4.522-0.283,9.608-2.119,9.608,0.565c0,2.685-0.424,5.469-3.674,4.642s-4.804,0.304-6.782,2.282s-6.358,1.696-5.228,3.532
	c1.13,1.837,6.641,9.75,10.456,8.337s7.913-4.522,8.619-6.641c0.707-2.119,3.109-3.391,4.663-5.793
	c1.554-2.402,3.25,3.815,1.696,6.782c-1.554,2.967-5.793,8.478-0.283,9.326c5.511,0.848,6.924,2.685,6.641,5.935
	c-0.283,3.25,4.663,10.173,6.5,8.76c1.837-1.413,3.674-3.391,5.369-4.945c1.696-1.554,1.696,1.696,4.945,4.38
	c3.25,2.685,6.358,1.413,8.619,1.13s1.837,3.391,5.652,5.793c3.815,2.402,6.5,7.206,2.826,7.206s-6.924-3.391-7.63-0.848
	s-1.413,2.543-5.793,2.119s-5.511-6.076-8.054-5.087c-2.543,0.989-3.674,2.261-7.771,0.989c-4.098-1.272-5.228,2.543-6.782,4.522
	c-1.554,1.978-7.206-3.109-8.478-1.413c-1.272,1.696-7.348-2.826-11.021-4.663c-3.674-1.837-4.804-5.087-8.054-3.674
	c-3.25,1.413-6.782,2.685-8.902,0.989s-1.554-0.989-2.967,1.272c-1.413,2.261-7.206,4.945-7.206,6.5s-1.554,4.239-4.239,4.522
	s2.685,7.771,0.706,9.043c-1.978,1.272-5.087-6.076-8.054-6.217c-2.967-0.141-2.967,3.391-4.38,5.652
	c-1.413,2.261-0.141,4.804-0.141,7.206c0,2.402-0.706,7.206,1.837,7.489s-0.283,4.945,4.239,4.804
	c4.522-0.141,8.337,3.25,9.608,5.793c1.272,2.543-3.815,4.945,0.424,5.935c4.239,0.989,2.261,3.956,0.424,5.935
	s-7.065,4.098-8.478,6.5s-3.815,9.891-1.272,11.021c2.543,1.13,6.5,4.663,7.206,8.195c0.706,3.532,1.554,9.184,5.369,11.728
	c3.815,2.543,7.206,6.217,9.184,8.76s3.25,6.782,6.217,6.924s0.424,1.978-0.848,2.826c-1.272,0.848-2.261,7.63-2.826,9.184
	c-0.565,1.554-2.119,0.989-2.119,3.25s-1.978,6.924-2.543,4.945s-1.413-11.304-4.098-9.75c-2.685,1.554-8.902,6.076-11.869,6.641
	c-2.967,0.565-6.782-0.424-8.478-3.25c-1.696-2.826-3.109-6.641-4.804-4.804s-4.098,1.554-4.239,3.109
	c-0.141,1.554,3.25,5.511,2.543,7.771s-0.424,4.522,0.283,6.924c0.707,2.402,4.804,5.793,3.956,7.065
	c-0.848,1.272-6.5-2.967-9.608-2.119c-3.109,0.848-12.858,2.402-17.238,2.543s-5.652,3.532-10.315,3.674s-8.902-1.978-12.999-0.848
	c-4.098,1.13-5.228,3.109-7.63,5.511s-6.358,0.989-4.38-1.696c1.978-2.685,1.696-3.815-1.272-2.826
	c-2.967,0.989-7.206-0.989-8.761-0.565c-1.554,0.424-3.956,6.197-8.76,6.348s-5.935-1.827-9.891-4.087s-10.88-3.956-11.586-1.696
	c-0.707,2.261-7.206,5.935-7.913,4.098s-3.391-3.815-5.652-4.239s-9.184-0.141-9.184-3.815s-2.402-7.065-4.663-7.63
	c-2.261-0.565-0.707-1.696,0.706-5.793s0.848-7.065-1.837-7.206s-3.956-7.206-0.424-6.782s12.858,2.261,14.978,0
	s0.424-3.956,3.25-3.956c2.826,0-4.239-4.522,1.413-4.663c5.652-0.141,11.869,1.554,13.706-1.272s5.935-4.663,9.184-4.945
	c3.25-0.283,10.739-2.261,13.282-1.837c2.543,0.424,5.511,5.087,7.065,2.685s2.826,0.424,4.239,1.554
	c1.413,1.13,10.032,3.956,12.999,4.239c2.967,0.283,4.239-1.413,9.467-0.283c5.228,1.13,8.195,0.424,11.869-1.837
	c3.674-2.261,5.228-9.043,4.098-12.152c-1.13-3.109-5.228-7.489-7.489-7.63s-5.793-3.815-9.891-6.782
	c-4.098-2.967-6.924-5.652-11.021-6.217s-10.597-7.63-8.054-6.782c2.543,0.848,4.239-1.837,4.098-3.532s0.706-1.696,3.109-3.674
	c2.402-1.978-5.228-3.674,0.565-5.087s5.652-4.38,4.38-5.935s-5.511-1.696-10.456,0.424s-6.641,4.098-11.021,4.239
	c-4.38,0.141-4.239-0.565-8.054,2.402c-3.815,2.967-4.945,2.826-10.739,3.532c-5.793,0.707-9.043-1.272-6.782-2.967
	s0.283-1.837-3.391-2.685c-3.674-0.848-8.761,0-10.739,3.532c-1.978,3.532-5.511,9.891-4.804,12.717
	c0.706,2.826-2.543,1.978-4.522,4.522c-1.978,2.543-1.696,4.098-2.119,8.054s-3.25,2.119-4.239,6.076
	c-0.989,3.956-2.261,7.771,0.283,11.021c2.543,3.25,10.032,7.489,7.489,8.619c-2.543,1.13-7.63,0.565-8.761,2.402
	c-1.13,1.837-7.63,1.13-10.315-0.141c-2.685-1.272-3.532-0.989-7.206-1.554s-6.641,1.837-7.771,4.098
	c-1.13,2.261-3.391,5.793-5.228,3.815c-1.837-1.978-5.793,1.413-3.956,3.956c1.837,2.543,3.25,4.804,2.543,7.206
	s4.098,3.25,6.217,6.217c2.119,2.967,1.978,5.652-0.565,5.228c-2.543-0.424-5.511,0.989-4.098,3.956
	c1.413,2.967,0.989,4.239-3.25,4.098c-4.239-0.141-5.228-3.391-6.076-5.087c-0.848-1.696-6.217-5.228-0.706-4.945
	s9.326-2.119,5.793-3.109c-3.532-0.989-10.032-0.565-11.304-3.815c-1.272-3.25-3.956-4.945-5.793-7.63
	c-1.837-2.685-0.706-3.815-3.532-5.228c-2.826-1.413-3.532-3.956-2.826-7.771c0.706-3.815,1.413-6.076-1.696-8.619
	c-3.109-2.543-4.804-7.913-6.217-8.478c-1.413-0.565-5.369,1.837-7.065-2.119c-1.696-3.956-2.402-4.663-5.652-4.804
	s-8.619-2.402-9.184-5.087c-0.565-2.685-2.685-4.804-3.391-6.924s-4.38-6.5-6.076-3.532c-1.696,2.967-3.815,6.076-3.956,2.967
	c-0.141-3.109,2.826-8.337-3.25-7.348c-6.076,0.989-10.173,3.532-8.195,5.652s0.989,2.967,0.989,5.087s0.989,3.815,5.369,8.337
	c4.38,4.522,9.326,12.152,10.739,13.565c1.413,1.413,6.5,3.815,9.467,4.239s2.543,1.696,2.543,2.967
	c0,1.272,5.511,3.391,9.326,5.087c3.815,1.696,5.087,3.391,7.348,4.38c2.261,0.989,0.989,5.652,0.141,3.956
	c-0.848-1.696-7.63-5.793-8.619-4.945c-0.989,0.848-2.826,6.217-2.967,6.782s2.119,2.967,3.391,4.38
	c1.272,1.413-2.402,7.913-3.674,9.608c-1.272,1.696-2.685,6.076-3.956,4.239s1.272-6.358,2.119-8.054s-1.978-7.913-2.261-9.75
	s-0.141-3.109-2.402-3.391c-2.261-0.283-3.391-5.369-5.652-5.369c-2.261,0-5.511-3.815-7.63-3.956s-9.891-4.522-12.434-7.771
	c-2.543-3.25-10.315-8.619-11.021-10.456c-0.706-1.837-3.109-8.619-7.489-10.456s-8.054-2.685-10.739,0
	c-2.685,2.685-3.815,3.532-6.641,4.663c-2.826,1.13-4.38,4.239-5.793,5.935c-1.413,1.696-3.674-0.141-6.641-1.696
	c-2.967-1.554-2.826-2.543-5.652-1.696c-2.826,0.848-6.076-1.13-7.489,0.283c-1.413,1.413-4.945,9.75-4.804,12.717
	c0.141,2.967,0.283,4.522-4.239,7.348c-4.522,2.826-6.076,1.696-8.054,4.098c-1.978,2.402-7.489,8.337-8.619,11.021
	c-1.13,2.685,0.565,4.663,1.837,6.782c1.272,2.119,0.848,3.25-1.554,4.239c-2.402,0.989-2.685,5.087-3.25,6.782
	S58.625,438.886,56.223,441.57z"/>
<path class="st2" d="M363.924,82.343c-1.484,1.62-4.71,3.391-4.71,4.333c0,0.942-1.696-0.188-2.638-2.167
	c-0.942-1.978,0-4.051,0-5.558c0-1.507,3.014-5.464,4.333-3.391S365.191,80.959,363.924,82.343z"/>
<path class="st1" d="M315.129,364.374c-0.922-0.597-1.319-2.638-3.956-3.768c-2.638-1.13-5.087-1.13-6.217,0
	c-1.13,1.13-7.536,1.696-3.014,3.768s4.333,4.145,3.956,5.84s2.826,2.072,6.406,0c3.58-2.072,6.782-3.956,9.608-4.145
	c2.826-0.188,5.652-4.145,3.014-2.826S318.332,366.447,315.129,364.374z"/>
<path class="st1" d="M129.746,391.88c-1.279,0.959-2.449,2.826-0.942,5.464s3.014,7.348,4.145,4.71
	C134.079,399.416,132.76,389.62,129.746,391.88z"/>
<path class="st1" d="M128.094,408.459c-1.244-1.078,2.405,6.217,1.652,9.232s-1.663,9.985,0.11,7.724
	c1.774-2.261,3.846-3.58,4.788-2.261s1.319-3.325,1.319-5.995s-0.754-4.178,0-6.439c0.754-2.261-2.398-6.217-4.025-4.522
	S129.833,409.967,128.094,408.459z"/>
<path class="st1" d="M176.845,438.603c2.526-3.109,4.522-5.652,0-3.956s-6.406,0.565-9.42,0.942
	c-3.014,0.377-4.898-1.319-6.406-0.377c-1.507,0.942-3.58,1.884,0,3.391c3.58,1.507,9.797,3.391,10.55,4.333
	c0.754,0.942,2.826,4.145,4.522,2.449C177.787,443.69,174.963,440.92,176.845,438.603z"/>
<polygon class="st3" points="341.731,272.47 344.969,282.438 355.449,282.438 346.971,288.598 350.209,298.565 341.731,292.405 
	333.252,298.565 336.491,288.598 328.012,282.438 338.492,282.438 "/>
<polygon class="st3" points="194.773,272.47 198.012,282.438 208.491,282.438 200.013,288.598 203.251,298.565 194.773,292.405 
	186.295,298.565 189.533,288.598 181.055,282.438 191.535,282.438 "/>
<polygon class="st3" points="268.252,199.205 271.49,209.172 281.97,209.172 273.492,215.332 276.73,225.299 268.252,219.139 
	259.773,225.299 263.012,215.332 254.533,209.172 265.013,209.172 "/>
<polygon class="st3" points="231.735,208.666 234.974,218.633 245.454,218.633 236.975,224.793 240.214,234.76 231.735,228.6 
	223.257,234.76 226.495,224.793 218.017,218.633 228.497,218.633 "/>
<polygon class="st3" points="231.735,336.275 234.974,346.242 245.454,346.242 236.975,352.402 240.214,362.369 231.735,356.209 
	223.257,362.369 226.495,352.402 218.017,346.242 228.497,346.242 "/>
<polygon class="st3" points="204.501,234.76 207.74,244.727 218.22,244.727 209.741,250.887 212.98,260.854 204.501,254.694 
	196.023,260.854 199.261,250.887 190.783,244.727 201.263,244.727 "/>
<polygon class="st3" points="204.501,310.181 207.74,320.148 218.22,320.148 209.741,326.308 212.98,336.275 204.501,330.115 
	196.023,336.275 199.261,326.308 190.783,320.148 201.263,320.148 "/>
<polygon class="st3" points="304.768,336.275 301.53,346.242 291.05,346.242 299.529,352.402 296.29,362.369 304.768,356.209 
	313.247,362.369 310.009,352.402 318.487,346.242 308.007,346.242 "/>
<polygon class="st3" points="332.002,310.181 328.764,320.148 318.284,320.148 326.762,326.308 323.524,336.275 332.002,330.115 
	340.481,336.275 337.242,326.308 345.721,320.148 335.241,320.148 "/>
<polygon class="st3" points="304.768,208.666 301.53,218.633 291.05,218.633 299.529,224.793 296.29,234.76 304.768,228.6 
	313.247,234.76 310.009,224.793 318.487,218.633 308.007,218.633 "/>
<polygon class="st3" points="332.002,234.76 328.764,244.727 318.284,244.727 326.762,250.887 323.524,260.854 332.002,254.694 
	340.481,260.854 337.242,250.887 345.721,244.727 335.241,244.727 "/>
<polygon class="st3" points="268.252,346.163 271.49,356.13 281.97,356.13 273.492,362.29 276.73,372.257 268.252,366.097 
	259.773,372.257 263.012,362.29 254.533,356.13 265.013,356.13 "/>
<polygon class="st2" points="336.721,275.477 339.959,285.444 350.439,285.444 341.961,291.604 345.199,301.571 336.721,295.411 
	328.242,301.571 331.481,291.604 323.002,285.444 333.482,285.444 "/>
<polygon class="st2" points="189.763,275.477 193.001,285.444 203.481,285.444 195.003,291.604 198.241,301.571 189.763,295.411 
	181.284,301.571 184.523,291.604 176.044,285.444 186.524,285.444 "/>
<polygon class="st4" points="263.242,202.211 266.48,212.178 276.96,212.178 268.482,218.338 271.72,228.305 263.242,222.145 
	254.763,228.305 258.002,218.338 249.523,212.178 260.003,212.178 "/>
<polygon class="st4" points="226.725,211.672 229.964,221.639 240.444,221.639 231.965,227.799 235.204,237.766 226.725,231.606 
	218.247,237.766 221.485,227.799 213.007,221.639 223.487,221.639 "/>
<polygon class="st2" points="226.725,339.281 229.964,349.248 240.444,349.248 231.965,355.408 235.204,365.375 226.725,359.215 
	218.247,365.375 221.485,355.408 213.007,349.248 223.487,349.248 "/>
<polygon class="st2" points="199.491,237.766 202.73,247.733 213.21,247.733 204.731,253.893 207.97,263.86 199.491,257.7 
	191.013,263.86 194.251,253.893 185.773,247.733 196.253,247.733 "/>
<polygon class="st2" points="199.491,313.187 202.73,323.154 213.21,323.154 204.731,329.314 207.97,339.281 199.491,333.121 
	191.013,339.281 194.251,329.314 185.773,323.154 196.253,323.154 "/>
<polygon class="st4" points="299.758,339.281 296.52,349.248 286.04,349.248 294.518,355.408 291.28,365.375 299.758,359.215 
	308.237,365.375 304.998,355.408 313.477,349.248 302.997,349.248 "/>
<polygon class="st2" points="326.992,313.187 323.754,323.154 313.274,323.154 321.752,329.314 318.514,339.281 326.992,333.121 
	335.471,339.281 332.232,329.314 340.711,323.154 330.231,323.154 "/>
<polygon class="st2" points="299.758,211.672 296.52,221.639 286.04,221.639 294.518,227.799 291.28,237.766 299.758,231.606 
	308.237,237.766 304.998,227.799 313.477,221.639 302.997,221.639 "/>
<polygon class="st2" points="326.992,237.766 323.754,247.733 313.274,247.733 321.752,253.893 318.514,263.86 326.992,257.7 
	335.471,263.86 332.232,253.893 340.711,247.733 330.231,247.733 "/>
<polygon class="st2" points="263.242,349.169 266.48,359.136 276.96,359.136 268.482,365.296 271.72,375.263 263.242,369.103 
	254.763,375.263 258.002,365.296 249.523,359.136 260.003,359.136 "/>
</svg>
