<?xml version="1.0" encoding="utf-8"?>
<!-- Generator: Adobe Illustrator 21.0.2, SVG Export Plug-In . SVG Version: 6.00 Build 0)  -->
<svg version="1.1" id="Layer_2" xmlns="http://www.w3.org/2000/svg" xmlns:xlink="http://www.w3.org/1999/xlink" x="0px" y="0px"
	 viewBox="0 0 500 500" style="enable-background:new 0 0 500 500;" xml:space="preserve">
<style type="text/css">
	.st0{fill:#EECFB4;}
	.st1{fill:none;stroke:#000000;stroke-width:6.8;stroke-linecap:round;stroke-linejoin:round;stroke-miterlimit:10;}
	.st2{fill:none;stroke:#000000;stroke-width:3.4;stroke-linecap:round;stroke-linejoin:round;stroke-miterlimit:10;}
	.st3{stroke:#000000;stroke-width:3.4;stroke-linecap:round;stroke-linejoin:round;stroke-miterlimit:10;}
	.st4{fill:#FFFFFF;stroke:#000000;stroke-width:3.4;stroke-linecap:round;stroke-linejoin:round;stroke-miterlimit:10;}
</style>
<path class="st0" d="M414.17,205.72c0-6.26,3.75-14.7,7.51-19.08c3.75-4.38,3.75-13.14-3.75-36.91
	c-7.51-23.77-15.9-54.18-23.15-66.63C379.5,56.86,335.03,9.28,234.31,9.28S54.44,72.15,54.44,188.51c0,96.34,61,95.09,51.61,167.35
	C98.19,416.43,72.27,496,72.27,496h223.65c0,0-13.14-20.96,0.94-42.23c14.08-21.27,19.08-36.6,63.19-33.47
	c44.11,3.13,54.43,3.75,59.43-10.95s0.63-22.21-4.69-31.91c-5.32-9.7,3.44-20.33,5.94-22.52c2.5-2.19,0.94-11.57-0.94-13.45
	c6.26-4.69,11.57-11.26,8.76-18.46c-2.82-7.19-8.15-20.96,0.77-22.83c8.92-1.88,17.37,1.25,22.69-3.75c5.32-5,8.76-14.7,0-25.02
	C443.26,261.09,414.17,211.08,414.17,205.72z"/>
<path class="st1" d="M232.74,338.66c4.38,20.02,5.32,41.6,57.24,58.81c51.93,17.2,75.18,23.62,89.51,24.13"/>
<path class="st1" d="M217.1,215.42c-6.57-16.27-19.39-29.09-36.6-29.09s-31.6,13.65-29.04,46.82c2.05,26.51,29.35,50.15,35.92,58.91
	c6.57,8.76,11.7,19,22.34,19c10.64,0,16.45-11.18,15.51-21.82"/>
<path class="st2" d="M428.86,330.2c-5.62-2.17-10.31-4.68-15.94-2.17c-5.63,2.5-16.58,8.76-21.58,10.64c-5,1.88-11.83,2.5-11.83,2.5
	s36.55,0,40.3,0.31"/>
<path class="st3" d="M407.52,189.3l2.56-6.38c1.04-1.24,0.56-3.13-0.94-3.7c-8.73-3.33-34-12.26-46.92-9.46
	c-15.78,3.41-40.96,23.37-40.96,23.37s29.31-14.54,39.06-15.27c23.49-1.76,34.56,7.11,40.53,12.06
	C402.86,191.58,405.83,191.3,407.52,189.3z"/>
<path class="st2" d="M389.24,201.41c0,0-3.44-1.98-14.78,1.59c-7.8,2.45-22.12,12.18-22.12,12.18s12.84,5.04,18.5,7.14
	c5.67,2.1,10.17,5.46,10.17,5.46"/>
<path class="st4" d="M379.03,202.08c1.26,2.32,1.98,5,1.98,7.85c0,5.71-2.89,10.74-7.26,13.61l-21.42-8.36
	C352.34,215.18,371.66,202.08,379.03,202.08z"/>
<path class="st2" d="M200.46,241.18c1.88-10.83,1.77-17.96,1.77-24.95s-9.54-14.28-17.99-14.28s-18.49,8.95-19.17,21.27
	c-0.99,18.03,6.69,33.64,15.45,43.78c8.76,10.13,22.81,16.46,22.81,16.46"/>
<path class="st2" d="M210.78,245.72c5.24,2.1,3.14,7.69,5.59,12.93c2.45,5.24,11.18,12.23,3.84,14.67
	c-7.34,2.45-10.48-5.94-18.17-5.94s-11.82,2.19-17.97-7.64c-6.14-9.83-7.48-22.41,0-27.3c7.48-4.89,17.43-2.76,18.07-7.65"/>
<line class="st2" x1="345.04" y1="219.6" x2="352.34" y2="215.18"/>
<path class="st2" d="M408.08,300.53l-3.13-4.2c-3.56-4.78-3.29-11.39,0.64-15.86l3.37-3.83"/>
<path class="st2" d="M430.98,290.66l-9.63-1.3c-2.95-0.4-5.57,1.9-5.57,4.87l0,0"/>
<path class="st2" d="M400.78,358.62c0,0,10.78,0.76,17.01-0.32"/>
<path d="M357.6,48c-4.32,11.72-33.61-5.5-54.29-6.87c-20.68-1.37-34.44,2.44-48.68,25.21c-8.45,13.51,3.5,36.68,12.55,46.3
	c9.05,9.62,9.47,31.56-2.16,37.98c-11.63,6.42-28.33,21.77-19.98,44.42c15.3,41.48,11.93,47.06-3.15,48.89
	c-15.08,1.83-17.5-26.21-18.79-33.55c-2.42-13.76-15.85-24.05-28-28.87c-14.66-5.81-46.1-1.17-50.13,32.08
	c-5.59,46.07,27.6,70.68,27.6,75.72s-5.83,8.37-16.04,17.71c-10.53,9.64-7.9,10.03-21.26,18.28c-13.36,8.25-16.43,12.59-24.62,8.92
	s-50.18-67.49-56.21-89.49s-15.36-71.25-2.44-122.58S126.31,9.13,191.91,2.22C281.03-7.16,370.1,14.09,357.6,48z"/>
<path class="st1" d="M414.17,205.72c0-6.26,3.75-14.7,7.51-19.08c3.75-4.38,3.75-13.14-3.75-36.91
	c-7.51-23.77-15.9-54.18-23.15-66.63C379.5,56.86,335.03,9.28,234.31,9.28S54.44,72.15,54.44,188.51c0,96.34,61,95.09,51.61,167.35
	C98.19,416.43,72.27,496,72.27,496h223.65c0,0-13.14-20.96,0.94-42.23c14.08-21.27,19.08-36.6,63.19-33.47
	c44.11,3.13,54.43,3.75,59.43-10.95s0.63-22.21-4.69-31.91c-5.32-9.7,3.44-20.33,5.94-22.52c2.5-2.19,0.94-11.57-0.94-13.45
	c6.26-4.69,11.57-11.26,8.76-18.46c-2.82-7.19-8.15-20.96,0.77-22.83c8.92-1.88,17.37,1.25,22.69-3.75c5.32-5,8.76-14.7,0-25.02
	C443.26,261.09,414.17,211.08,414.17,205.72z"/>
<path d="M380,213c0,5.52-2.96,10-6,10s-3-4.48-3-10s2.46-10,5.5-10S380,207.48,380,213z"/>
</svg>
