<?xml version="1.0" encoding="utf-8"?>
<!-- Generator: Adobe Illustrator 21.0.2, SVG Export Plug-In . SVG Version: 6.00 Build 0)  -->
<svg version="1.1" id="Layer_2" xmlns="http://www.w3.org/2000/svg" xmlns:xlink="http://www.w3.org/1999/xlink" x="0px" y="0px"
	 viewBox="0 0 500 500" style="enable-background:new 0 0 500 500;" xml:space="preserve">
<style type="text/css">
	.st0{fill:#EECFB4;}
	.st1{fill:none;stroke:#000000;stroke-width:6.8;stroke-linecap:round;stroke-linejoin:round;stroke-miterlimit:10;}
	.st2{fill:none;stroke:#000000;stroke-width:3.4;stroke-linecap:round;stroke-linejoin:round;stroke-miterlimit:10;}
	.st3{stroke:#000000;stroke-width:3.4;stroke-linecap:round;stroke-linejoin:round;stroke-miterlimit:10;}
	.st4{fill:#FFFFFF;stroke:#000000;stroke-width:3.4;stroke-linecap:round;stroke-linejoin:round;stroke-miterlimit:10;}
</style>
<path class="st0" d="M412.51,202.58c0-6.33,3.8-14.89,7.6-19.32c3.8-4.43,3.8-13.3-3.8-37.37s-16.1-54.86-23.44-67.46
	C377.4,51.86,332.37,3.68,230.39,3.68S48.27,67.34,48.27,185.16c0,97.55,61.76,96.28,52.26,169.45
	C92.57,415.93,66.33,496.5,66.33,496.5h226.46c0,0-13.3-21.22,0.95-42.76c14.25-21.54,19.32-37.06,63.98-33.89
	s55.11,3.8,60.18-11.09c5.07-14.89,0.63-22.49-4.75-32.31c-5.38-9.82,3.48-20.59,6.02-22.8c2.53-2.22,0.95-11.72-0.95-13.62
	c6.33-4.75,11.72-11.4,8.87-18.69c-2.85-7.28-8.25-21.22,0.78-23.12c9.04-1.9,17.59,1.27,22.97-3.8c5.38-5.07,8.87-14.89,0-25.34
	C441.96,258.64,412.51,208.01,412.51,202.58z"/>
<path class="st1" d="M228.81,337.19c4.43,20.27,5.38,42.12,57.96,59.54s76.12,23.91,90.64,24.44"/>
<path class="st1" d="M212.97,212.4c-6.65-16.47-19.64-29.46-37.06-29.46s-31.99,13.82-29.4,47.41
	c2.07,26.84,29.72,50.78,36.37,59.64c6.65,8.87,11.85,19.24,22.62,19.24s16.66-11.32,15.71-22.09"/>
<path class="st2" d="M427.38,328.62c-5.69-2.2-10.44-4.73-16.14-2.2c-5.7,2.53-16.79,8.87-21.85,10.77
	c-5.07,1.9-11.98,2.53-11.98,2.53s37,0,40.81,0.32"/>
<path class="st3" d="M405.77,185.95l2.59-6.46c1.05-1.25,0.57-3.17-0.96-3.75c-8.84-3.37-34.43-12.41-47.51-9.58
	c-15.98,3.45-41.47,23.66-41.47,23.66s29.68-14.72,39.55-15.46c23.79-1.78,34.99,7.2,41.04,12.21
	C401.06,188.27,404.06,187.99,405.77,185.95z"/>
<path class="st2" d="M387.27,198.22c0,0-3.48-2.01-14.97,1.61c-7.9,2.49-22.4,12.33-22.4,12.33s13,5.1,18.74,7.23
	c5.74,2.13,10.3,5.53,10.3,5.53"/>
<path class="st4" d="M376.93,198.9c1.28,2.35,2,5.06,2,7.94c0,5.79-2.93,10.87-7.35,13.78l-21.69-8.47
	C349.9,212.16,369.46,198.9,376.93,198.9z"/>
<path class="st2" d="M196.12,238.48c1.9-10.97,1.8-18.19,1.8-25.26c0-7.07-9.66-14.46-18.21-14.46s-18.72,9.07-19.41,21.53
	c-1,18.25,6.77,34.07,15.64,44.33c8.87,10.26,23.09,16.66,23.09,16.66"/>
<path class="st2" d="M206.57,243.08c5.31,2.12,3.18,7.78,5.66,13.09c2.48,5.31,11.32,12.38,3.89,14.86
	c-7.43,2.48-10.61-6.01-18.39-6.01c-7.78,0-11.97,2.22-18.19-7.73c-6.22-9.95-7.58-22.69,0-27.64s17.64-2.8,18.3-7.75"/>
<line class="st2" x1="342.51" y1="216.63" x2="349.9" y2="212.16"/>
<path class="st2" d="M406.34,298.58l-3.17-4.26c-3.6-4.84-3.33-11.53,0.65-16.06l3.41-3.88"/>
<path class="st2" d="M429.52,288.58l-9.76-1.32c-2.99-0.4-5.64,1.92-5.64,4.93v0"/>
<path class="st2" d="M398.95,357.39c0,0,10.92,0.77,17.23-0.32"/>
<path d="M50.44,246.68c10.51,20.56,39.64,81.58,48.72,81.58c5.79,0,10.68,0.59,24.2-7.76c13.52-8.35,15.41-12.16,26.07-21.92
	c10.34-9.47,10.77-12.44,10.77-17.55s-25.94-23.84-20.27-70.48c4.09-33.67,35.92-38.37,50.76-32.49
	c12.31,4.88,17.96,11.76,27.52,25.83c5.8,8.54,8.92,18.26,12.4,19.32c14.71,4.49,11.52-13.66,2.63-36.43
	c-5.96-15.27-10.36-27.56-4.43-33.9s17.55-23.15,1.65-29.96s-23.66-15.11-31.43-33.73s-21.66-25.33-45.87-22.72
	c-24.21,2.61-42.46,19.74-47.68,42.46c-4.41,19.2-26.45,48.06-41.72,56.82c-15.27,8.76-13.37,8.83-15.49,11.96
	C42.9,185.67,41.41,229.03,50.44,246.68z"/>
<path class="st1" d="M412.51,202.58c0-6.33,3.8-14.89,7.6-19.32c3.8-4.43,3.8-13.3-3.8-37.37s-16.1-54.86-23.44-67.46
	C377.4,51.86,332.37,3.68,230.39,3.68S48.27,67.34,48.27,185.16c0,97.55,61.76,96.28,52.26,169.45
	C92.57,415.93,66.33,496.5,66.33,496.5h226.46c0,0-13.3-21.22,0.95-42.76c14.25-21.54,19.32-37.06,63.98-33.89
	s55.11,3.8,60.18-11.09c5.07-14.89,0.63-22.49-4.75-32.31c-5.38-9.82,3.48-20.59,6.02-22.8c2.53-2.22,0.95-11.72-0.95-13.62
	c6.33-4.75,11.72-11.4,8.87-18.69c-2.85-7.28-8.25-21.22,0.78-23.12c9.04-1.9,17.59,1.27,22.97-3.8c5.38-5.07,8.87-14.89,0-25.34
	C441.96,258.64,412.51,208.01,412.51,202.58z"/>
<path d="M378.21,210.02c0,5.53-2.97,10.02-6.01,10.02c-3.04,0-3.01-4.48-3.01-10.02c0-5.53,2.47-10.02,5.51-10.02
	C377.75,200.01,378.21,204.49,378.21,210.02z"/>
</svg>
