<?xml version="1.0" encoding="utf-8"?>
<!-- Generator: Adobe Illustrator 21.0.2, SVG Export Plug-In . SVG Version: 6.00 Build 0)  -->
<svg version="1.1" id="Layer_3" xmlns="http://www.w3.org/2000/svg" xmlns:xlink="http://www.w3.org/1999/xlink" x="0px" y="0px"
	 viewBox="0 0 500 500" style="enable-background:new 0 0 500 500;" xml:space="preserve">
<style type="text/css">
	.st0{fill:#EECFB4;}
	.st1{fill:none;stroke:#000000;stroke-width:6.8;stroke-linecap:round;stroke-linejoin:round;stroke-miterlimit:10;}
	.st2{fill:none;stroke:#000000;stroke-width:3.4;stroke-linecap:round;stroke-linejoin:round;stroke-miterlimit:10;}
	.st3{stroke:#000000;stroke-width:3.4;stroke-linecap:round;stroke-linejoin:round;stroke-miterlimit:10;}
	.st4{fill:#FFFFFF;stroke:#000000;stroke-width:3.4;stroke-linecap:round;stroke-linejoin:round;stroke-miterlimit:10;}
</style>
<path class="st0" d="M413.2,203.85c0-6.3,3.78-14.8,7.56-19.2c3.78-4.41,3.78-13.22-3.78-37.15c-7.56-23.93-16-54.53-23.3-67.06
	c-15.37-26.41-60.13-74.3-161.5-74.3S51.16,69.43,51.16,186.54c0,96.96,61.39,95.7,51.94,168.43c-7.92,60.95-34,141.04-34,141.04
	H294.2c0,0-13.22-21.09,0.94-42.5s19.2-36.83,63.59-33.69c44.39,3.15,54.78,3.78,59.81-11.02c5.04-14.8,0.63-22.35-4.72-32.11
	s3.46-20.46,5.98-22.67s0.94-11.65-0.94-13.54c6.3-4.72,11.65-11.33,8.81-18.57c-2.83-7.24-8.2-21.09,0.78-22.98
	s17.48,1.26,22.83-3.78c5.35-5.04,8.81-14.8,0-25.19C442.48,259.57,413.2,209.25,413.2,203.85z"/>
<path class="st1" d="M230.61,337.65c4.41,20.15,5.35,41.87,57.61,59.19s75.66,23.77,90.09,24.29"/>
<path class="st1" d="M214.87,213.61c-6.61-16.37-19.52-29.28-36.83-29.28s-31.8,13.74-29.22,47.12
	c2.06,26.68,29.54,50.47,36.15,59.28c6.61,8.81,11.78,19.13,22.48,19.13s16.56-11.26,15.61-21.96"/>
<path class="st2" d="M427.99,329.13c-5.66-2.19-10.38-4.71-16.05-2.19s-16.69,8.81-21.72,10.7c-5.04,1.89-11.91,2.52-11.91,2.52
	s36.78,0,40.56,0.31"/>
<path class="st3" d="M406.51,187.32l2.58-6.43c1.05-1.24,0.57-3.15-0.95-3.72c-8.79-3.35-34.22-12.33-47.23-9.52
	c-15.88,3.43-41.22,23.52-41.22,23.52s29.5-14.63,39.31-15.37c23.64-1.77,34.78,7.16,40.79,12.14
	C401.82,189.63,404.8,189.35,406.51,187.32z"/>
<path class="st2" d="M388.12,199.52c0,0-3.46-2-14.88,1.6c-7.85,2.47-22.27,12.25-22.27,12.25s12.92,5.07,18.62,7.18
	c5.7,2.11,10.24,5.49,10.24,5.49"/>
<path class="st4" d="M377.84,200.19c1.27,2.34,1.99,5.03,1.99,7.9c0,5.75-2.91,10.81-7.31,13.7l-21.56-8.42
	C350.97,213.37,370.41,200.19,377.84,200.19z"/>
<path class="st2" d="M198.12,239.54c1.89-10.9,1.79-18.08,1.79-25.11c0-7.03-9.6-14.37-18.11-14.37s-18.61,9.01-19.29,21.4
	c-1,18.14,6.73,33.86,15.55,44.06c8.82,10.2,22.95,16.56,22.95,16.56"/>
<path class="st2" d="M208.5,244.11c5.27,2.11,3.16,7.74,5.63,13.01c2.46,5.27,11.25,12.31,3.87,14.77
	c-7.38,2.46-10.55-5.98-18.28-5.98s-11.9,2.21-18.08-7.69c-6.18-9.89-7.53-22.55,0-27.47c7.53-4.92,17.54-2.78,18.19-7.7"/>
<line class="st2" x1="343.63" y1="217.82" x2="350.97" y2="213.37"/>
<path class="st2" d="M407.07,299.27l-3.15-4.23c-3.58-4.81-3.31-11.46,0.65-15.96l3.39-3.85"/>
<path class="st2" d="M430.12,289.34l-9.7-1.31c-2.97-0.4-5.61,1.91-5.61,4.9l0,0"/>
<path class="st2" d="M399.73,357.73c0,0,10.85,0.76,17.12-0.32"/>
<path d="M53.31,247.69c9.32,20.98,46.18,81.81,54.42,85.5c8.24,3.69,11.33-0.68,24.78-8.98c13.44-8.3,10.8-8.69,21.4-18.39
	c10.27-9.41,16.14-12.75,16.14-17.83c0-5.07-33.41-29.85-27.78-76.21c4.06-33.47,35.7-38.14,50.46-32.29
	c12.23,4.85,25.75,15.21,28.18,29.06c1.3,7.38,3.04,30.14,18.21,28.3c15.18-1.84,6.62-28.54-1.73-51.36
	c-9.22-25.18-5.77-45.39,4.09-53.28c9.86-7.89,3.77-19.72-18.33-32.04s-47.12-46.34-37.32-66.55c9.8-20.21,96.02-0.9,83.75-22.18
	c-7.64-13.25-36.26-14.61-87.86-5.96c-32.99,5.53-43.27,17.79-43.27,17.79s3.28,38.47-14.22,62.03s-63.72,50.37-73.06,52.83
	C41.82,140.58,43.53,225.65,53.31,247.69z"/>
<path class="st1" d="M413.2,203.85c0-6.3,3.78-14.8,7.56-19.2c3.78-4.41,3.78-13.22-3.78-37.15c-7.56-23.93-16-54.53-23.3-67.06
	c-15.37-26.41-60.13-74.3-161.5-74.3S51.16,69.43,51.16,186.54c0,96.96,61.39,95.7,51.94,168.43c-7.92,60.95-34,141.04-34,141.04
	H294.2c0,0-13.22-21.09,0.94-42.5s19.2-36.83,63.59-33.69c44.39,3.15,54.78,3.78,59.81-11.02c5.04-14.8,0.63-22.35-4.72-32.11
	s3.46-20.46,5.98-22.67s0.94-11.65-0.94-13.54c6.3-4.72,11.65-11.33,8.81-18.57c-2.83-7.24-8.2-21.09,0.78-22.98
	s17.48,1.26,22.83-3.78c5.35-5.04,8.81-14.8,0-25.19C442.48,259.57,413.2,209.25,413.2,203.85z"/>
<path d="M379,211c0,5.52-2.96,10-6,10s-3-4.48-3-10s2.46-10,5.5-10S379,205.48,379,211z"/>
</svg>
