<?xml version="1.0" encoding="utf-8"?>
<!-- Generator: Adobe Illustrator 21.0.2, SVG Export Plug-In . SVG Version: 6.00 Build 0)  -->
<svg version="1.1" id="Layer_2" xmlns="http://www.w3.org/2000/svg" xmlns:xlink="http://www.w3.org/1999/xlink" x="0px" y="0px"
	 viewBox="0 0 500 500" style="enable-background:new 0 0 500 500;" xml:space="preserve">
<style type="text/css">
	.st0{fill:#FFFFFF;stroke:#1C3553;stroke-width:6.8;stroke-linecap:round;stroke-linejoin:bevel;stroke-miterlimit:10;}
	.st1{fill:#FFFFFF;}
	.st2{fill:#C5E4FF;}
	.st3{fill:none;stroke:#1C3553;stroke-width:6.8;stroke-linecap:round;stroke-linejoin:round;stroke-miterlimit:10;}
	.st4{fill:#FFFFFF;stroke:#1C3553;stroke-width:6.8;stroke-linecap:round;stroke-linejoin:round;stroke-miterlimit:10;}
	.st5{fill:none;stroke:#1C3553;stroke-width:3.4;stroke-linecap:round;stroke-linejoin:round;stroke-miterlimit:10;}
	.st6{fill:#1C3553;}
</style>
<path class="st0" d="M187.44,156.41c0,0-3.44-3.19-8.6-3.19s-12.04,5.46-12.04,16.64s10.32,29.65,25.8,32.84
	C208.08,205.89,187.44,156.41,187.44,156.41z"/>
<path class="st0" d="M312.56,156.41c0,0,3.44-3.19,8.6-3.19c5.16,0,12.04,5.46,12.04,16.64s-10.32,29.65-25.8,32.84
	C291.92,205.89,312.56,156.41,312.56,156.41z"/>
<rect x="219.32" y="236.01" class="st1" width="61.36" height="59.09"/>
<path class="st2" d="M219.32,249.49c11.53,8.88,25.64,13.8,41.66,13.8c29.76,0,18.45-1.75,26.51-5.05v-22.22h-68.18V249.49z"/>
<rect x="220.05" y="236.01" class="st3" width="59.91" height="59.09"/>
<ellipse class="st4" cx="250" cy="161.76" rx="64.77" ry="91.3"/>
<path class="st1" d="M402.8,267.76l-27.32,60.46c0,0-26.82-51.86-58.92-51.86c-8.1,0-17.29-1-25.72,4.65
	c0,5.32-13.16,13.4-40.84,13.4s-40.84-8.08-40.84-13.4c-8.44-5.65-17.62-4.65-25.72-4.65c-32.09,0-58.92,51.86-58.92,51.86
	L97.2,267.76l-30.96,18.18c0,0,17.71,101.08,23.11,113.05c5.4,11.96,30.04,15.95,40.84,7.31c10.8-8.64,36.61-36.76,36.61-36.76
	v79.88l83.2,0.08l83.2-0.08v-79.88c0,0,25.81,28.11,36.61,36.76c10.8,8.64,35.44,4.65,40.84-7.31
	c5.4-11.96,23.11-113.05,23.11-113.05L402.8,267.76z"/>
<g>
	<path class="st2" d="M412.19,273.03l-27.22,58.7c0,0-26.72-50.36-58.69-50.36c-8.07,0-17.22-0.97-25.63,4.51
		c0,5.16-13.11,13-40.66,13.01v143.95l82.87-0.08v-70.9c0,0,25.71,27.3,36.47,35.69s35.31,4.52,40.68-7.1
		c5.38-11.62,23.02-109.77,23.02-109.77L412.19,273.03z"/>
	<path class="st2" d="M253.33,442.84V298.72c-23.02-1.14-34.05-8.1-34.05-12.83c-8.41-5.49-17.56-4.51-25.63-4.51
		c-31.97,0-58.69,50.36-58.69,50.36l-27.22-58.7l-30.84,17.65c0,0,17.64,98.15,23.02,109.77c5.38,11.62,29.93,15.49,40.68,7.1
		c10.76-8.39,36.47-35.69,36.47-35.69v70.9L253.33,442.84z"/>
</g>
<path class="st3" d="M402.8,267.76l-27.32,60.46c0,0-26.82-51.86-58.92-51.86c-8.1,0-17.29-1-25.72,4.65
	c0,5.32-13.16,13.4-40.84,13.4s-40.84-8.08-40.84-13.4c-8.44-5.65-17.62-4.65-25.72-4.65c-32.09,0-58.92,51.86-58.92,51.86
	L97.2,267.76l-30.96,18.18c0,0,17.71,101.08,23.11,113.05c5.4,11.96,30.04,15.95,40.84,7.31c10.8-8.64,36.61-36.76,36.61-36.76
	v79.88l83.2,0.08l83.2-0.08v-79.88c0,0,25.81,28.11,36.61,36.76c10.8,8.64,35.44,4.65,40.84-7.31
	c5.4-11.96,23.11-113.05,23.11-113.05L402.8,267.76z"/>
<line class="st3" x1="230.03" y1="153.21" x2="203.41" y2="153.21"/>
<path class="st5" d="M230.03,211.67c0,0,8.94,6.44,19.97,6.44s19.97-6.44,19.97-6.44"/>
<line class="st5" x1="241.68" y1="228.1" x2="258.32" y2="228.1"/>
<circle class="st6" cx="220" cy="169.9" r="6.61"/>
<circle class="st6" cx="279.95" cy="169.85" r="6.66"/>
<line class="st3" x1="269.97" y1="153.21" x2="296.59" y2="153.21"/>
<line class="st5" x1="248.34" y1="194.82" x2="251.66" y2="194.82"/>
<line class="st3" x1="250" y1="294.4" x2="250" y2="449.64"/>
<path class="st4" d="M194.72,104.31c-9.92,0-21.26,0-21.26,26.73s11.34,43.61,11.34,43.61s-2.59-49.99,14.3-59.46
	S194.72,104.31,194.72,104.31z"/>
<path class="st4" d="M305.28,104.31c9.92,0,21.26,0,21.26,26.73s-11.34,43.61-11.34,43.61s2.59-49.99-14.3-59.46
	S305.28,104.31,305.28,104.31z"/>
<path class="st4" d="M250,56.7c-43.18,0-64.77,29.95-64.77,44.22c0,11.41,29.69,25.67,64.77,25.67s64.77-14.26,64.77-25.67
	C314.77,86.65,293.18,56.7,250,56.7z"/>
<path class="st3" d="M312.5,105.96c-18.21,11.23-48.74,6.42-76.3-9.51"/>
<line class="st3" x1="375.48" y1="328.22" x2="364.12" y2="358.63"/>
<path class="st4" d="M472.08,231.1c-1.62-3.56-5.37-4.42-8.97-2.89l-10.9,4.63c-1.39,0.59-5.25,0.66-8.94,0.57
	c-5.94-0.14-11.81,1.21-17.09,3.92c-2.06,1.05-4.16,2.19-5.95,3.28c-4.54,2.77-8.06,6.94-10.06,11.87l-3.25,8.02l23.85,18.78
	l8.22,2.23c1.5-2.28-2.93-5.18,5.74-8.79c8.66-3.62,30.71-12.12,34.92-18.53l8.06-14.07c0.53-0.92,0.93-1.9,1.2-2.93l7.29-27.34
	c0.46-3.05-1.39-5.98-4.35-6.88l0,0c-2.92-0.89-6.06,0.48-7.4,3.22l-11.26,23.04c0,0-1.44,4.11-10.35,9.41
	c-8.9,5.3-18.56,8.14-18.56,8.14"/>
<rect x="397.21" y="266.75" transform="matrix(0.9039 0.4278 -0.4278 0.9039 159.4205 -153.6083)" class="st4" width="48.55" height="22.3"/>
<line class="st3" x1="124.52" y1="328.22" x2="135.88" y2="358.63"/>
<path class="st4" d="M27.92,231.1c1.62-3.56,5.37-4.42,8.97-2.89l10.9,4.63c1.39,0.59,5.25,0.66,8.94,0.57
	c5.94-0.14,11.81,1.21,17.09,3.92c2.06,1.05,4.16,2.19,5.95,3.28c4.54,2.77,8.06,6.94,10.06,11.87l3.25,8.02l-23.85,18.78L61,281.51
	c-1.5-2.28,2.93-5.18-5.74-8.79c-8.66-3.62-30.71-12.12-34.92-18.53l-8.06-14.07c-0.53-0.92-0.93-1.9-1.2-2.93l-7.29-27.34
	c-0.46-3.05,1.39-5.98,4.35-6.88l0,0c2.92-0.89,6.06,0.48,7.4,3.22l11.26,23.04c0,0,1.44,4.11,10.35,9.41s18.56,8.14,18.56,8.14"/>
<rect x="54.24" y="266.75" transform="matrix(-0.9039 0.4278 -0.4278 -0.9039 268.3866 495.4819)" class="st4" width="48.55" height="22.3"/>
<polygon class="st4" points="217.19,322.95 250,293.72 211.49,258.74 202.93,275.49 "/>
<polygon class="st4" points="282.81,322.95 250,293.72 288.51,258.74 297.07,275.49 "/>
<circle class="st6" cx="238.35" cy="354.57" r="4.99"/>
<circle class="st6" cx="238.35" cy="324.61" r="4.99"/>
<circle class="st6" cx="431.39" cy="281.35" r="4.99"/>
<circle class="st6" cx="68.61" cy="281.35" r="4.99"/>
<circle class="st6" cx="238.35" cy="384.52" r="4.99"/>
<circle class="st6" cx="238.35" cy="414.48" r="4.99"/>
<line class="st3" x1="166.8" y1="369.55" x2="166.8" y2="332.94"/>
<line class="st3" x1="333.2" y1="369.55" x2="333.2" y2="332.94"/>
<path class="st1" d="M451.41,103.82c0,6.69-1.84,13.03-5.52,19c-3.67,5.98-11.53,13.08-23.57,23.37
	c-6.23,5.33-10.09,9.61-11.6,12.85c-1.26,2.71-1.94,8.68-2.05,15.45c-0.04,2.25-1.86,4.05-4.1,4.05h-18.62
	c-2.25,0-4.08-1.82-4.1-4.08c-0.03-2.54-0.04-4.7-0.04-5.27c0-8.93,1.43-16.27,4.3-22.03c2.87-5.76,8.61-11.2,17.22-18.4
	c8.61-7.2,13.76-11.91,15.43-14.15c2.59-3.53,3.88-7.41,3.88-11.66c0-5.9-2.29-10.96-6.88-15.17c-4.58-4.21-10.76-6.32-18.53-6.32
	c-7.49,0-13.75,2.2-18.79,6.58c-4.36,3.8-7.54,9.33-9.55,16.58c-0.55,1.99-2.44,3.3-4.48,3.04l-19.48-2.48
	c-2.29-0.29-3.87-2.43-3.55-4.72c1.59-11.07,6.78-20.61,15.58-28.61c9.9-9,22.9-13.5,39.01-13.5c16.94,0,30.41,4.55,40.42,13.66
	C446.41,81.13,451.41,91.72,451.41,103.82z M402.28,194.67h-12.92c-4.71,0-8.52,3.82-8.52,8.52v13.06c0,4.71,3.82,8.52,8.52,8.52
	h12.92c4.71,0,8.52-3.82,8.52-8.52v-13.06C410.8,198.48,406.99,194.67,402.28,194.67z"/>
<path class="st1" d="M451.41,103.82c0,6.69-1.84,13.03-5.52,19c-3.67,5.98-11.53,13.08-23.57,23.37
	c-6.23,5.33-10.09,9.61-11.6,12.85c-1.26,2.71-1.94,8.68-2.05,15.45c-0.04,2.25-1.86,4.05-4.1,4.05h-18.62
	c-2.25,0-4.08-1.82-4.1-4.08c-0.03-2.54-0.04-4.7-0.04-5.27c0-8.93,1.43-16.27,4.3-22.03c2.87-5.76,8.61-11.2,17.22-18.4
	c8.61-7.2,13.76-11.91,15.43-14.15c2.59-3.53,3.88-7.41,3.88-11.66c0-5.9-2.29-10.96-6.88-15.17c-4.58-4.21-10.76-6.32-18.53-6.32
	c-7.49,0-13.75,2.2-18.79,6.58c-4.36,3.8-7.54,9.33-9.55,16.58c-0.55,1.99-2.44,3.3-4.48,3.04l-19.48-2.48
	c-2.29-0.29-3.87-2.43-3.55-4.72c1.59-11.07,6.78-20.61,15.58-28.61c9.9-9,22.9-13.5,39.01-13.5c16.94,0,30.41,4.55,40.42,13.66
	C446.41,81.13,451.41,91.72,451.41,103.82z M402.28,194.67h-12.92c-4.71,0-8.52,3.82-8.52,8.52v13.06c0,4.71,3.82,8.52,8.52,8.52
	h12.92c4.71,0,8.52-3.82,8.52-8.52v-13.06C410.8,198.48,406.99,194.67,402.28,194.67z"/>
<path class="st2" d="M461.4,93.83c0,6.69-1.84,13.03-5.52,19c-3.67,5.98-11.53,13.08-23.57,23.37c-6.23,5.33-10.09,9.61-11.6,12.85
	c-1.26,2.71-1.94,8.68-2.05,15.45c-0.04,2.25-1.86,4.05-4.1,4.05h-18.62c-2.25,0-4.08-1.82-4.1-4.08c-0.03-2.54-0.04-4.7-0.04-5.27
	c0-8.93,1.43-16.27,4.3-22.03c2.87-5.76,8.61-11.2,17.22-18.4c8.61-7.2,13.76-11.91,15.43-14.15c2.59-3.53,3.88-7.41,3.88-11.66
	c0-5.9-2.29-10.96-6.88-15.17c-4.58-4.21-10.76-6.32-18.53-6.32c-7.49,0-13.75,2.2-18.79,6.58c-4.36,3.8-7.54,9.33-9.55,16.58
	c-0.55,1.99-2.44,3.3-4.48,3.04l-19.48-2.48c-2.29-0.29-3.87-2.43-3.55-4.72c1.59-11.07,6.78-20.61,15.58-28.61
	c9.9-9,22.9-13.5,39.01-13.5c16.94,0,30.41,4.55,40.42,13.66C456.39,71.14,461.4,81.74,461.4,93.83z M412.26,184.68h-12.92
	c-4.71,0-8.52,3.82-8.52,8.52v13.06c0,4.71,3.82,8.52,8.52,8.52h12.92c4.71,0,8.52-3.82,8.52-8.52V193.2
	C420.79,188.5,416.97,184.68,412.26,184.68z"/>
<path class="st5" d="M451.41,103.82c0,6.69-1.84,13.03-5.52,19c-3.67,5.98-11.53,13.08-23.57,23.37
	c-6.23,5.33-10.09,9.61-11.6,12.85c-1.26,2.71-1.94,8.68-2.05,15.45c-0.04,2.25-1.86,4.05-4.1,4.05h-18.62
	c-2.25,0-4.08-1.82-4.1-4.08c-0.03-2.54-0.04-4.7-0.04-5.27c0-8.93,1.43-16.27,4.3-22.03c2.87-5.76,8.61-11.2,17.22-18.4
	c8.61-7.2,13.76-11.91,15.43-14.15c2.59-3.53,3.88-7.41,3.88-11.66c0-5.9-2.29-10.96-6.88-15.17c-4.58-4.21-10.76-6.32-18.53-6.32
	c-7.49,0-13.75,2.2-18.79,6.58c-4.36,3.8-7.54,9.33-9.55,16.58c-0.55,1.99-2.44,3.3-4.48,3.04l-19.48-2.48
	c-2.29-0.29-3.87-2.43-3.55-4.72c1.59-11.07,6.78-20.61,15.58-28.61c9.9-9,22.9-13.5,39.01-13.5c16.94,0,30.41,4.55,40.42,13.66
	C446.41,81.13,451.41,91.72,451.41,103.82z M402.28,194.67h-12.92c-4.71,0-8.52,3.82-8.52,8.52v13.06c0,4.71,3.82,8.52,8.52,8.52
	h12.92c4.71,0,8.52-3.82,8.52-8.52v-13.06C410.8,198.48,406.99,194.67,402.28,194.67z"/>
</svg>
