<?xml version="1.0" encoding="utf-8"?>
<!-- Generator: Adobe Illustrator 21.0.2, SVG Export Plug-In . SVG Version: 6.00 Build 0)  -->
<svg version="1.1" id="Layer_3" xmlns="http://www.w3.org/2000/svg" xmlns:xlink="http://www.w3.org/1999/xlink" x="0px" y="0px"
	 viewBox="0 0 500 500" style="enable-background:new 0 0 500 500;" xml:space="preserve">
<style type="text/css">
	.st0{fill:#FFFFFF;}
	.st1{fill:#C5E4FF;}
	.st2{fill:none;stroke:#1C3553;stroke-width:6.8;stroke-linecap:round;stroke-linejoin:round;stroke-miterlimit:10;}
	.st3{fill:#FFFFFF;stroke:#1C3553;stroke-width:6.8;stroke-linecap:round;stroke-linejoin:round;stroke-miterlimit:10;}
	.st4{fill:none;stroke:#1C3553;stroke-width:3.4;stroke-linecap:round;stroke-linejoin:round;stroke-miterlimit:10;}
</style>
<path class="st0" d="M438.7,60.44H52.15c-24.55,0-44.46,19.91-44.46,44.46v71.91h475.47v-71.9
	C483.17,80.35,463.26,60.44,438.7,60.44z"/>
<path class="st1" d="M452.02,50.53h-18.73v41.49c0,11.92-9.7,21.61-21.61,21.61s-21.61-9.7-21.61-21.61V50.53H273.69v41.49
	c0,11.92-9.7,21.61-21.61,21.61c-11.92,0-21.61-9.7-21.61-21.61V50.53H114.09v41.49c0,11.92-9.7,21.61-21.61,21.61
	s-21.61-9.7-21.61-21.61V50.53h-5.16c-24.54,0-44.43,19.89-44.43,44.43v71.87h475.19V94.98C496.47,70.43,476.57,50.53,452.02,50.53z
	"/>
<path class="st2" d="M438.7,60.44H52.15c-24.55,0-44.46,19.91-44.46,44.46v71.91h475.47v-71.9
	C483.17,80.35,463.26,60.44,438.7,60.44z"/>
<path class="st3" d="M483.17,176.81H7.69v299.25c0,11.02,8.93,19.95,19.95,19.95h435.57c11.02,0,19.95-8.93,19.95-19.95V176.81z"/>
<path class="st3" d="M245.43,103.66L245.43,103.66c10.1,0,18.29-8.19,18.29-18.29V22.2c0-10.1-8.19-18.29-18.29-18.29h0
	c-10.1,0-18.29,8.19-18.29,18.29v63.17C227.14,95.47,235.33,103.66,245.43,103.66z"/>
<path class="st3" d="M405.03,103.66L405.03,103.66c10.1,0,18.29-8.19,18.29-18.29V22.2c0-10.1-8.19-18.29-18.29-18.29h0
	c-10.1,0-18.29,8.19-18.29,18.29v63.17C386.74,95.47,394.93,103.66,405.03,103.66z"/>
<path class="st3" d="M85.83,103.66L85.83,103.66c10.1,0,18.29-8.19,18.29-18.29V22.2c0-10.1-8.19-18.29-18.29-18.29h0
	c-10.1,0-18.29,8.19-18.29,18.29v63.17C67.54,95.47,75.73,103.66,85.83,103.66z"/>
<circle class="st1" cx="253.74" cy="326.43" r="123.02"/>
<circle class="st2" cx="245.43" cy="334.75" r="121.36"/>
<circle class="st0" cx="250.67" cy="270.16" r="20.2"/>
<path class="st0" d="M263.15,404.85h-24.97c-4.26,0-7.72-3.46-7.72-7.72v-82.21c0-4.26,3.46-7.72,7.72-7.72h24.97
	c4.26,0,7.72,3.46,7.72,7.72v82.21C270.87,401.39,267.42,404.85,263.15,404.85z"/>
<circle class="st4" cx="245.43" cy="278.22" r="19.95"/>
<path class="st4" d="M257.66,411.22H233.2c-4.26,0-7.72-3.46-7.72-7.72v-80.99c0-4.26,3.46-7.72,7.72-7.72h24.46
	c4.26,0,7.72,3.46,7.72,7.72v80.99C265.38,407.77,261.92,411.22,257.66,411.22z"/>
<line class="st4" x1="162.31" y1="461.1" x2="72.53" y2="461.1"/>
<line class="st4" x1="62.56" y1="461.1" x2="49.26" y2="461.1"/>
</svg>
