<?xml version="1.0" encoding="utf-8"?>
<!-- Generator: Adobe Illustrator 21.0.2, SVG Export Plug-In . SVG Version: 6.00 Build 0)  -->
<svg version="1.1" id="Layer_2" xmlns="http://www.w3.org/2000/svg" xmlns:xlink="http://www.w3.org/1999/xlink" x="0px" y="0px"
	 viewBox="0 0 500 500" style="enable-background:new 0 0 500 500;" xml:space="preserve">
<style type="text/css">
	.st0{fill:#FFFFFF;}
	.st1{fill:#C5E4FF;}
	.st2{fill:none;stroke:#1C3553;stroke-width:6.8;stroke-linecap:round;stroke-linejoin:round;stroke-miterlimit:10;}
	.st3{fill:#FFFFFF;stroke:#1C3553;stroke-width:6.8;stroke-linecap:round;stroke-linejoin:round;stroke-miterlimit:10;}
	.st4{fill:none;stroke:#1C3553;stroke-width:3.4;stroke-linecap:round;stroke-linejoin:round;stroke-miterlimit:10;}
</style>
<path class="st0" d="M438.26,60.44H51.71c-24.55,0-44.46,19.91-44.46,44.46v71.91h475.47v-71.9
	C482.73,80.35,462.82,60.44,438.26,60.44z"/>
<path class="st1" d="M451.58,50.53h-18.73v41.49c0,11.92-9.7,21.61-21.61,21.61s-21.61-9.7-21.61-21.61V50.53H273.25v41.49
	c0,11.92-9.7,21.61-21.61,21.61c-11.92,0-21.61-9.7-21.61-21.61V50.53H113.65v41.49c0,11.92-9.7,21.61-21.61,21.61
	s-21.61-9.7-21.61-21.61V50.53h-5.16c-24.54,0-44.43,19.89-44.43,44.43v71.87h475.19V94.98C496.03,70.43,476.13,50.53,451.58,50.53z
	"/>
<path class="st2" d="M438.26,60.44H51.71c-24.55,0-44.46,19.91-44.46,44.46v71.91h475.47v-71.9
	C482.73,80.35,462.82,60.44,438.26,60.44z"/>
<path class="st3" d="M482.73,176.81H7.25v299.25c0,11.02,8.93,19.95,19.95,19.95h435.57c11.02,0,19.95-8.93,19.95-19.95V176.81z"/>
<path class="st3" d="M244.99,103.66L244.99,103.66c10.1,0,18.29-8.19,18.29-18.29V22.2c0-10.1-8.19-18.29-18.29-18.29h0
	c-10.1,0-18.29,8.19-18.29,18.29v63.17C226.7,95.47,234.89,103.66,244.99,103.66z"/>
<path class="st3" d="M404.59,103.66L404.59,103.66c10.1,0,18.29-8.19,18.29-18.29V22.2c0-10.1-8.19-18.29-18.29-18.29h0
	c-10.1,0-18.29,8.19-18.29,18.29v63.17C386.3,95.47,394.49,103.66,404.59,103.66z"/>
<path class="st3" d="M85.39,103.66L85.39,103.66c10.1,0,18.29-8.19,18.29-18.29V22.2c0-10.1-8.19-18.29-18.29-18.29h0
	c-10.1,0-18.29,8.19-18.29,18.29v63.17C67.1,95.47,75.29,103.66,85.39,103.66z"/>
<path class="st1" d="M335.08,298.23h-65.25c-2.47,0-4.24-2.39-3.51-4.75l28.37-91.95c1.16-3.77-3.62-6.47-6.25-3.53L162.04,339.4
	c-2.11,2.37-0.44,6.12,2.74,6.12h65.25c2.47,0,4.24,2.39,3.51,4.75l-28.37,91.95c-1.16,3.77,3.62,6.47,6.25,3.53l126.4-141.39
	C339.93,301.99,338.25,298.23,335.08,298.23z"/>
<path class="st2" d="M322.31,311h-65.25c-2.47,0-4.24-2.39-3.51-4.75l28.37-91.95c1.16-3.77-3.62-6.47-6.25-3.53l-126.4,141.39
	c-2.11,2.37-0.44,6.12,2.74,6.12h65.25c2.47,0,4.24,2.39,3.51,4.75l-28.37,91.95c-1.16,3.77,3.62,6.47,6.25,3.53l126.4-141.39
	C327.16,314.75,325.48,311,322.31,311z"/>
<line class="st4" x1="161.87" y1="461.1" x2="72.09" y2="461.1"/>
<line class="st4" x1="62.12" y1="461.1" x2="48.82" y2="461.1"/>
</svg>
