<?xml version="1.0" encoding="utf-8"?>
<!-- Generator: Adobe Illustrator 21.0.2, SVG Export Plug-In . SVG Version: 6.00 Build 0)  -->
<svg version="1.1" id="Layer_2" xmlns="http://www.w3.org/2000/svg" xmlns:xlink="http://www.w3.org/1999/xlink" x="0px" y="0px"
	 viewBox="0 0 500 500" style="enable-background:new 0 0 500 500;" xml:space="preserve">
<style type="text/css">
	.st0{fill:#FFFFFF;stroke:#1C3553;stroke-width:6.8;stroke-linecap:round;stroke-linejoin:round;stroke-miterlimit:10;}
	.st1{fill:none;stroke:#1C3553;stroke-width:6.8;stroke-linecap:round;stroke-linejoin:round;stroke-miterlimit:10;}
	.st2{fill:#C5E4FF;}
	.st3{fill:none;stroke:#1C3553;stroke-width:3.4;stroke-linecap:round;stroke-linejoin:round;stroke-miterlimit:10;}
</style>
<circle class="st0" cx="208.24" cy="275.33" r="204.03"/>
<polyline class="st1" points="208.24,131.51 208.24,275.33 311.93,275.33 "/>
<circle class="st2" cx="211.59" cy="271.99" r="20.07"/>
<circle class="st1" cx="208.24" cy="275.33" r="13.38"/>
<path class="st2" d="M496.72,236.31c-3.09-2.73-7.8-2.45-10.53,0.64l-15.7,17.72c-9.68-133.15-121.02-238.55-256.6-238.55
	c-4.12,0-7.46,3.34-7.46,7.46s3.34,7.46,7.46,7.46c127.9,0,232.92,99.58,241.77,225.27l-18.51-16.39c-3.09-2.73-7.8-2.45-10.53,0.64
	c-2.73,3.09-2.45,7.8,0.64,10.53l31.59,27.98c0.13,0.12,0.28,0.2,0.41,0.3c0.18,0.14,0.35,0.27,0.54,0.39
	c0.22,0.14,0.45,0.26,0.69,0.37c0.18,0.09,0.36,0.19,0.55,0.27c0.28,0.11,0.56,0.19,0.85,0.26c0.17,0.04,0.32,0.1,0.49,0.13
	c0.47,0.09,0.94,0.14,1.41,0.14c0,0,0,0,0,0s0,0,0,0c0.52,0,1.03-0.06,1.52-0.16c0.06-0.01,0.12-0.04,0.18-0.06
	c0.43-0.1,0.86-0.23,1.26-0.4c0.15-0.06,0.28-0.16,0.42-0.23c0.31-0.16,0.61-0.32,0.89-0.51c0.15-0.11,0.29-0.24,0.44-0.36
	c0.25-0.21,0.5-0.42,0.72-0.66c0.05-0.05,0.11-0.09,0.15-0.14l27.98-31.59C500.09,243.76,499.81,239.04,496.72,236.31z"/>
<path class="st3" d="M495.2,241.84c-3.07-2.72-7.76-2.43-10.48,0.63l-15.62,17.63c-9.62-132.45-120.39-237.3-255.26-237.3
	c-4.1,0-7.42,3.32-7.42,7.42s3.32,7.42,7.42,7.42c127.23,0,231.7,99.06,240.5,224.09l-18.41-16.31c-3.07-2.71-7.76-2.43-10.48,0.63
	c-2.72,3.07-2.43,7.76,0.63,10.48l31.42,27.83c0.13,0.12,0.28,0.2,0.41,0.3c0.18,0.14,0.35,0.27,0.54,0.39
	c0.22,0.14,0.45,0.26,0.68,0.37c0.18,0.09,0.36,0.19,0.55,0.26c0.28,0.11,0.56,0.19,0.84,0.26c0.16,0.04,0.32,0.1,0.49,0.13
	c0.46,0.09,0.93,0.14,1.4,0.14c0,0,0,0,0,0c0,0,0,0,0,0c0.52,0,1.03-0.06,1.52-0.16c0.06-0.01,0.12-0.04,0.18-0.06
	c0.43-0.1,0.85-0.23,1.25-0.4c0.15-0.06,0.28-0.16,0.42-0.23c0.3-0.16,0.61-0.31,0.88-0.51c0.15-0.11,0.29-0.24,0.43-0.36
	c0.25-0.21,0.5-0.42,0.72-0.66c0.05-0.05,0.11-0.09,0.15-0.14l27.83-31.42C498.55,249.25,498.27,244.56,495.2,241.84z"/>
<g>
	<path class="st2" d="M211.59,88.03c-3.5,0-6.34,2.85-6.34,6.34v15.86c0,3.5,2.85,6.34,6.34,6.34c3.5,0,6.34-2.85,6.34-6.34V94.37
		C217.93,90.88,215.09,88.03,211.59,88.03z"/>
	<path class="st2" d="M211.59,427.4c-3.5,0-6.34,2.85-6.34,6.34v15.86c0,3.5,2.85,6.34,6.34,6.34c3.5,0,6.34-2.85,6.34-6.34v-15.86
		C217.93,430.25,215.09,427.4,211.59,427.4z"/>
	<path class="st2" d="M389.2,265.65h-15.86c-3.5,0-6.34,2.85-6.34,6.34c0,3.5,2.85,6.34,6.34,6.34h15.86c3.5,0,6.34-2.85,6.34-6.34
		C395.55,268.49,392.7,265.65,389.2,265.65z"/>
	<path class="st2" d="M56.17,271.99c0-3.5-2.85-6.34-6.34-6.34H33.97c-3.5,0-6.34,2.85-6.34,6.34c0,3.5,2.85,6.34,6.34,6.34h15.86
		C53.33,278.33,56.17,275.49,56.17,271.99z"/>
	<path class="st2" d="M128.27,115c-1.74-3.03-5.64-4.08-8.66-2.32c-3.03,1.75-4.07,5.64-2.32,8.67l7.93,13.73
		c1.17,2.03,3.31,3.17,5.5,3.17c1.07,0,2.16-0.27,3.16-0.85c1.47-0.85,2.52-2.21,2.95-3.85c0.44-1.64,0.21-3.35-0.63-4.81
		L128.27,115z"/>
	<path class="st2" d="M297.96,408.9c-1.75-3.03-5.63-4.08-8.66-2.32c-1.47,0.85-2.52,2.21-2.95,3.85c-0.44,1.64-0.21,3.35,0.63,4.81
		l7.93,13.73c1.17,2.03,3.31,3.17,5.5,3.17c1.07,0,2.16-0.27,3.16-0.85v0c3.03-1.75,4.07-5.64,2.32-8.67L297.96,408.9z"/>
	<path class="st2" d="M350.03,197.24c0.55,0.15,1.1,0.22,1.65,0.22c1.1,0,2.19-0.29,3.16-0.85l13.73-7.93
		c3.03-1.75,4.07-5.63,2.32-8.66c-1.75-3.03-5.64-4.07-8.67-2.32l-13.73,7.93c-3.03,1.75-4.07,5.63-2.32,8.66
		C347.03,195.75,348.4,196.8,350.03,197.24z"/>
	<path class="st2" d="M73.14,346.74c-1.65-0.44-3.35-0.22-4.81,0.63l-13.73,7.93c-3.03,1.75-4.07,5.63-2.33,8.66c0,0,0,0,0,0
		c1.17,2.03,3.31,3.17,5.5,3.17c1.08,0,2.17-0.27,3.16-0.85l13.73-7.93c3.03-1.75,4.07-5.63,2.32-8.66
		C76.15,348.23,74.78,347.18,73.14,346.74z"/>
	<path class="st2" d="M74.67,185.62l-13.73-7.93c-3.04-1.75-6.91-0.71-8.67,2.32c-1.75,3.03-0.7,6.92,2.33,8.66l13.73,7.93
		c0.98,0.57,2.06,0.85,3.16,0.85c0.55,0,1.1-0.07,1.65-0.22c1.64-0.44,3-1.49,3.85-2.95C78.74,191.25,77.7,187.37,74.67,185.62z"/>
	<path class="st2" d="M368.58,355.31l-13.73-7.93c-1.46-0.85-3.17-1.07-4.81-0.63c-1.64,0.44-3,1.49-3.85,2.95
		c-1.75,3.03-0.71,6.92,2.32,8.66l13.73,7.93c1,0.58,2.08,0.85,3.16,0.85c2.19,0,4.33-1.14,5.5-3.17c0,0,0,0,0,0
		C372.65,360.94,371.61,357.05,368.58,355.31z"/>
	<path class="st2" d="M303.57,112.67c-3.03-1.74-6.92-0.7-8.66,2.33l-7.93,13.73c-0.85,1.47-1.07,3.17-0.63,4.81
		c0.44,1.64,1.49,3,2.95,3.85c1,0.58,2.08,0.85,3.16,0.85c2.2,0,4.33-1.14,5.5-3.17l7.93-13.73
		C307.64,118.31,306.59,114.43,303.57,112.67z"/>
	<path class="st2" d="M133.88,406.58c-3.03-1.75-6.91-0.71-8.66,2.32l-7.93,13.73c-1.75,3.03-0.71,6.92,2.32,8.67v0
		c1,0.57,2.08,0.85,3.16,0.85c2.2,0,4.33-1.14,5.5-3.17l7.93-13.73c0.85-1.47,1.07-3.17,0.63-4.81
		C136.4,408.8,135.35,407.43,133.88,406.58z"/>
</g>
<g>
	<path class="st3" d="M208.24,116.97L208.24,116.97c-2.65,0-4.8-2.15-4.8-4.8v-16c0-2.65,2.15-4.8,4.8-4.8h0
		c2.65,0,4.8,2.15,4.8,4.8v16C213.04,114.82,210.89,116.97,208.24,116.97z"/>
	<path class="st3" d="M208.24,459.29L208.24,459.29c-2.65,0-4.8-2.15-4.8-4.8v-16c0-2.65,2.15-4.8,4.8-4.8h0
		c2.65,0,4.8,2.15,4.8,4.8v16C213.04,457.14,210.89,459.29,208.24,459.29z"/>
	<path class="st3" d="M366.61,275.33L366.61,275.33c0-2.65,2.15-4.8,4.8-4.8h16c2.65,0,4.8,2.15,4.8,4.8v0c0,2.65-2.15,4.8-4.8,4.8
		h-16C368.76,280.13,366.61,277.98,366.61,275.33z"/>
	<path class="st3" d="M24.28,275.33L24.28,275.33c0-2.65,2.15-4.8,4.8-4.8h16c2.65,0,4.8,2.15,4.8,4.8v0c0,2.65-2.15,4.8-4.8,4.8
		h-16C26.43,280.13,24.28,277.98,24.28,275.33z"/>
	<path class="st3" d="M129.06,138.19L129.06,138.19c-2.3,1.33-5.23,0.54-6.56-1.76l-8-13.85c-1.33-2.3-0.54-5.23,1.76-6.56l0,0
		c2.3-1.33,5.23-0.54,6.56,1.76l8,13.85C132.14,133.93,131.36,136.86,129.06,138.19z"/>
	<path class="st3" d="M300.22,434.65L300.22,434.65c-2.3,1.33-5.23,0.54-6.56-1.76l-8-13.85c-1.33-2.3-0.54-5.23,1.76-6.56l0,0
		c2.3-1.33,5.23-0.54,6.56,1.76l8,13.85C303.3,430.39,302.52,433.32,300.22,434.65z"/>
	<path class="st3" d="M345.39,196.15L345.39,196.15c-1.33-2.3-0.54-5.23,1.76-6.56l13.85-8c2.3-1.33,5.23-0.54,6.56,1.76v0
		c1.33,2.3,0.54,5.23-1.76,6.56l-13.85,8C349.65,199.23,346.72,198.45,345.39,196.15z"/>
	<path class="st3" d="M48.93,367.31L48.93,367.31c-1.33-2.3-0.54-5.23,1.76-6.56l13.85-8c2.3-1.33,5.23-0.54,6.56,1.76h0
		c1.33,2.3,0.54,5.23-1.76,6.56l-13.85,8C53.19,370.4,50.25,369.61,48.93,367.31z"/>
	<path class="st3" d="M71.1,196.15L71.1,196.15c-1.33,2.3-4.26,3.08-6.56,1.76l-13.85-8c-2.3-1.33-3.08-4.26-1.76-6.56l0,0
		c1.33-2.3,4.26-3.08,6.56-1.76l13.85,8C71.63,190.92,72.42,193.86,71.1,196.15z"/>
	<path class="st3" d="M367.56,367.31L367.56,367.31c-1.33,2.3-4.26,3.08-6.56,1.76l-13.85-8c-2.3-1.33-3.08-4.26-1.76-6.56h0
		c1.33-2.3,4.26-3.08,6.56-1.76l13.85,8C368.1,362.08,368.88,365.02,367.56,367.31z"/>
	<path class="st3" d="M287.43,138.19L287.43,138.19c-2.3-1.33-3.08-4.26-1.76-6.56l8-13.85c1.33-2.3,4.26-3.08,6.56-1.76v0
		c2.3,1.33,3.08,4.26,1.76,6.56l-8,13.85C292.66,138.72,289.72,139.51,287.43,138.19z"/>
	<path class="st3" d="M116.26,434.65L116.26,434.65c-2.3-1.33-3.08-4.26-1.76-6.56l8-13.85c1.33-2.3,4.26-3.08,6.56-1.76h0
		c2.3,1.33,3.08,4.26,1.76,6.56l-8,13.85C121.49,435.19,118.56,435.97,116.26,434.65z"/>
</g>
</svg>
