<?xml version="1.0" encoding="utf-8"?>
<!-- Generator: Adobe Illustrator 21.0.2, SVG Export Plug-In . SVG Version: 6.00 Build 0)  -->
<svg version="1.1" id="Layer_2" xmlns="http://www.w3.org/2000/svg" xmlns:xlink="http://www.w3.org/1999/xlink" x="0px" y="0px"
	 viewBox="0 0 500 500" style="enable-background:new 0 0 500 500;" xml:space="preserve">
<style type="text/css">
	.st0{fill:#FFFFFF;}
	.st1{fill:#C5E4FF;}
	.st2{fill:none;stroke:#1C3553;stroke-width:6.8;stroke-linecap:round;stroke-linejoin:round;stroke-miterlimit:10;}
	.st3{fill:#FFFFFF;stroke:#1C3553;stroke-width:6.8;stroke-linecap:round;stroke-linejoin:round;stroke-miterlimit:10;}
	.st4{fill:none;stroke:#1C3553;stroke-width:3.4;stroke-linecap:round;stroke-linejoin:round;stroke-miterlimit:10;}
	.st5{fill:#1C3553;stroke:#1C3553;stroke-width:6.8;stroke-linecap:round;stroke-linejoin:round;stroke-miterlimit:10;}
</style>
<path class="st0" d="M487.21,194.86L136.68,43.26c-4.09-1.77-8.84,0.11-10.61,4.2l-85.76,198.3c-1.77,4.09,0.11,8.84,4.2,10.61
	l350.53,151.6c4.09,1.77,8.84-0.11,10.61-4.2l85.76-198.3C493.18,201.38,491.3,196.63,487.21,194.86z"/>
<g>
	<path class="st1" d="M50.45,217.76l-3.51,8.11c-1.03,2.37-0.79,4.95,0.36,7.06L50.45,217.76z"/>
	<path class="st1" d="M493.77,174.96L143.3,23.36c-4.09-1.77-8.84,0.11-10.61,4.2l-27.35,63.25l360.9,74.94
		c7.94,1.65,13.05,9.45,11.4,17.39l-19.74,95.08l40.06-92.65C499.74,181.48,497.86,176.73,493.77,174.96z"/>
</g>
<path class="st2" d="M487.21,194.86L136.68,43.26c-4.09-1.77-8.84,0.11-10.61,4.2l-85.76,198.3c-1.77,4.09,0.11,8.84,4.2,10.61
	l350.53,151.6c4.09,1.77,8.84-0.11,10.61-4.2l85.76-198.3C493.18,201.38,491.3,196.63,487.21,194.86z"/>
<path class="st2" d="M401.38,338.44l39.5-91.33c-18.5-8-27-29.48-19.01-47.97L178.31,93.79c-8,18.5-29.48,27-47.97,19.01
	l-39.5,91.33c18.5,8,27,29.48,19.01,47.97L353.4,357.44C361.4,338.95,382.88,330.44,401.38,338.44z"/>
<path class="st0" d="M441.74,182.19L67.81,104.56c-4.36-0.91-8.63,1.9-9.54,6.26L14.35,322.37c-0.91,4.36,1.9,8.63,6.26,9.54
	l373.93,77.63c4.36,0.91,8.63-1.9,9.54-6.26L448,191.73C448.91,187.37,446.11,183.1,441.74,182.19z"/>
<g>
	<path class="st1" d="M394.95,159.08L84.39,94.61c-4.36-0.91-8.63,1.9-9.54,6.26l-12.09,58.21H394.95z"/>
	<path class="st1" d="M458.33,172.24l-43.94-9.12c2.84,2.68,4.65,6.46,4.65,10.67v216.05c0,3.59-1.35,6.84-3.49,9.4
		c2.53-0.93,4.55-3.08,5.13-5.91l43.92-211.55C465.49,177.42,462.69,173.15,458.33,172.24z"/>
</g>
<path class="st2" d="M441.74,182.19L67.81,104.56c-4.36-0.91-8.63,1.9-9.54,6.26L14.35,322.37c-0.91,4.36,1.9,8.63,6.26,9.54
	l373.93,77.63c4.36,0.91,8.63-1.9,9.54-6.26L448,191.73C448.91,187.37,446.11,183.1,441.74,182.19z"/>
<path class="st2" d="M386.7,340.15l20.23-97.43c-19.73-4.1-32.4-23.41-28.31-43.14L118.8,145.64c-4.1,19.73-23.41,32.4-43.14,28.31
	l-20.23,97.43c19.73,4.1,32.4,23.41,28.31,43.14l259.82,53.94C347.65,348.73,366.97,336.06,386.7,340.15z"/>
<path class="st0" d="M394.38,178.98H12.47c-4.46,0-8.07,3.61-8.07,8.07v216.06c0,4.46,3.61,8.07,8.07,8.07h381.91
	c4.46,0,8.07-3.61,8.07-8.07V187.05C402.44,182.6,398.83,178.98,394.38,178.98z"/>
<path class="st1" d="M404.33,165.72H22.42c-4.46,0-8.07,3.61-8.07,8.07v216.06c0,4.46,3.61,8.07,8.07,8.07h381.91
	c4.46,0,8.07-3.61,8.07-8.07V173.78C412.4,169.33,408.78,165.72,404.33,165.72z"/>
<path class="st2" d="M394.38,178.98H12.47c-4.46,0-8.07,3.61-8.07,8.07v216.06c0,4.46,3.61,8.07,8.07,8.07h381.91
	c4.46,0,8.07-3.61,8.07-8.07V187.05C402.44,182.6,398.83,178.98,394.38,178.98z"/>
<path class="st0" d="M342.74,381.32H77.38c-1.83,0-3.32-1.48-3.32-3.32c0-18.29-14.88-33.17-33.17-33.17
	c-1.83,0-3.32-1.48-3.32-3.32v-99.51c0-1.83,1.48-3.32,3.32-3.32c18.29,0,33.17-14.88,33.17-33.17c0-1.83,1.48-3.32,3.32-3.32
	h265.36c1.83,0,3.32,1.48,3.32,3.32c0,18.29,14.88,33.17,33.17,33.17c1.83,0,3.32,1.48,3.32,3.32v99.51c0,1.83-1.48,3.32-3.32,3.32
	c-18.29,0-33.17,14.88-33.17,33.17C346.05,379.84,344.57,381.32,342.74,381.32z M80.56,374.69h259
	c1.6-19.31,17.05-34.75,36.35-36.35v-93.15c-19.31-1.6-34.75-17.05-36.35-36.35h-259c-1.6,19.31-17.05,34.75-36.35,36.35v93.15
	C63.51,339.94,78.96,355.38,80.56,374.69z"/>
<path class="st2" d="M372.59,344.84v-99.51c-20.15,0-36.49-16.34-36.49-36.49H70.74c0,20.15-16.34,36.49-36.49,36.49v99.51
	c20.15,0,36.49,16.34,36.49,36.49H336.1C336.1,361.17,352.44,344.84,372.59,344.84z"/>
<path class="st3" d="M464.8,457.61H340.08c-4.03,0-7.3-3.27-7.3-7.3v-31.84c0-4.03,3.27-7.3,7.3-7.3H464.8c4.03,0,7.3,3.27,7.3,7.3
	v31.84C472.1,454.35,468.83,457.61,464.8,457.61z"/>
<g>
	<line class="st4" x1="344.4" y1="455.96" x2="344.4" y2="422.79"/>
	<line class="st4" x1="357.66" y1="455.96" x2="357.66" y2="422.79"/>
	<line class="st4" x1="370.93" y1="455.96" x2="370.93" y2="422.79"/>
	<line class="st4" x1="384.2" y1="455.96" x2="384.2" y2="422.79"/>
	<line class="st4" x1="397.47" y1="455.96" x2="397.47" y2="422.79"/>
	<line class="st4" x1="410.74" y1="455.96" x2="410.74" y2="422.79"/>
	<line class="st4" x1="424" y1="455.96" x2="424" y2="422.79"/>
	<line class="st4" x1="437.27" y1="455.96" x2="437.27" y2="422.79"/>
	<line class="st4" x1="450.54" y1="455.96" x2="450.54" y2="422.79"/>
	<line class="st4" x1="463.81" y1="455.96" x2="463.81" y2="422.79"/>
</g>
<path class="st3" d="M464.8,411.18H340.08c-4.03,0-7.3-3.27-7.3-7.3v-31.84c0-4.03,3.27-7.3,7.3-7.3H464.8c4.03,0,7.3,3.27,7.3,7.3
	v31.84C472.1,407.91,468.83,411.18,464.8,411.18z"/>
<g>
	<line class="st4" x1="341.08" y1="409.52" x2="341.08" y2="376.35"/>
	<line class="st4" x1="354.35" y1="409.52" x2="354.35" y2="376.35"/>
	<line class="st4" x1="367.62" y1="409.52" x2="367.62" y2="376.35"/>
	<line class="st4" x1="380.88" y1="409.52" x2="380.88" y2="376.35"/>
	<line class="st4" x1="394.15" y1="409.52" x2="394.15" y2="376.35"/>
	<line class="st4" x1="407.42" y1="409.52" x2="407.42" y2="376.35"/>
	<line class="st4" x1="420.69" y1="409.52" x2="420.69" y2="376.35"/>
	<line class="st4" x1="433.96" y1="409.52" x2="433.96" y2="376.35"/>
	<line class="st4" x1="447.22" y1="409.52" x2="447.22" y2="376.35"/>
	<line class="st4" x1="460.49" y1="409.52" x2="460.49" y2="376.35"/>
</g>
<path class="st3" d="M464.8,364.74H340.08c-4.03,0-7.3-3.27-7.3-7.3V325.6c0-4.03,3.27-7.3,7.3-7.3H464.8c4.03,0,7.3,3.27,7.3,7.3
	v31.84C472.1,361.47,468.83,364.74,464.8,364.74z"/>
<g>
	<line class="st4" x1="344.4" y1="363.08" x2="344.4" y2="329.91"/>
	<line class="st4" x1="357.66" y1="363.08" x2="357.66" y2="329.91"/>
	<line class="st4" x1="370.93" y1="363.08" x2="370.93" y2="329.91"/>
	<line class="st4" x1="384.2" y1="363.08" x2="384.2" y2="329.91"/>
	<line class="st4" x1="397.47" y1="363.08" x2="397.47" y2="329.91"/>
	<line class="st4" x1="410.74" y1="363.08" x2="410.74" y2="329.91"/>
	<line class="st4" x1="424" y1="363.08" x2="424" y2="329.91"/>
	<line class="st4" x1="437.27" y1="363.08" x2="437.27" y2="329.91"/>
	<line class="st4" x1="450.54" y1="363.08" x2="450.54" y2="329.91"/>
	<line class="st4" x1="463.81" y1="363.08" x2="463.81" y2="329.91"/>
</g>
<path class="st3" d="M464.8,318.3H340.08c-4.03,0-7.3-3.27-7.3-7.3v-31.84c0-4.03,3.27-7.3,7.3-7.3H464.8c4.03,0,7.3,3.27,7.3,7.3
	V311C472.1,315.03,468.83,318.3,464.8,318.3z"/>
<g>
	<line class="st4" x1="341.08" y1="316.64" x2="341.08" y2="283.47"/>
	<line class="st4" x1="354.35" y1="316.64" x2="354.35" y2="283.47"/>
	<line class="st4" x1="367.62" y1="316.64" x2="367.62" y2="283.47"/>
	<line class="st4" x1="380.88" y1="316.64" x2="380.88" y2="283.47"/>
	<line class="st4" x1="394.15" y1="316.64" x2="394.15" y2="283.47"/>
	<line class="st4" x1="407.42" y1="316.64" x2="407.42" y2="283.47"/>
	<line class="st4" x1="420.69" y1="316.64" x2="420.69" y2="283.47"/>
	<line class="st4" x1="433.96" y1="316.64" x2="433.96" y2="283.47"/>
	<line class="st4" x1="447.22" y1="316.64" x2="447.22" y2="283.47"/>
	<line class="st4" x1="460.49" y1="316.64" x2="460.49" y2="283.47"/>
</g>
<path class="st3" d="M464.8,271.86H340.08c-4.03,0-7.3-3.27-7.3-7.3v-31.84c0-4.03,3.27-7.3,7.3-7.3H464.8c4.03,0,7.3,3.27,7.3,7.3
	v31.84C472.1,268.59,468.83,271.86,464.8,271.86z"/>
<g>
	<line class="st4" x1="344.4" y1="270.2" x2="344.4" y2="237.03"/>
	<line class="st4" x1="357.66" y1="270.2" x2="357.66" y2="237.03"/>
	<line class="st4" x1="370.93" y1="270.2" x2="370.93" y2="237.03"/>
	<line class="st4" x1="384.2" y1="270.2" x2="384.2" y2="237.03"/>
	<line class="st4" x1="397.47" y1="270.2" x2="397.47" y2="237.03"/>
	<line class="st4" x1="410.74" y1="270.2" x2="410.74" y2="237.03"/>
	<line class="st4" x1="424" y1="270.2" x2="424" y2="237.03"/>
	<line class="st4" x1="437.27" y1="270.2" x2="437.27" y2="237.03"/>
	<line class="st4" x1="450.54" y1="270.2" x2="450.54" y2="237.03"/>
	<line class="st4" x1="463.81" y1="270.2" x2="463.81" y2="237.03"/>
</g>
<circle class="st3" cx="329.47" cy="404.55" r="69.65"/>
<circle class="st4" cx="329.47" cy="404.54" r="58.05"/>
<circle class="st0" cx="205.08" cy="293.42" r="51.41"/>
<circle class="st2" cx="203.42" cy="295.08" r="43.12"/>
<circle class="st5" cx="107.23" cy="295.08" r="13.27"/>
<circle class="st5" cx="299.62" cy="295.08" r="13.27"/>
<path class="st4" d="M353.79,417.68c0-13.81-15.47-17.08-23.78-18.84c-6.75-1.43-9.64-3.07-10.87-4.2c-0.83-0.75-1.3-1.55-1.3-3.4
	c0-2.28,0-6.52,11.25-6.52c4.09,0,7.19,1.17,9.49,3.58c1.89,1.98,2.54,4.1,2.54,4.12l-0.02-0.07l12.52-2.64
	c-1.31-4.9-6.78-13.56-18.49-15.84v-7.48h-12.87v7.42c-5.23,0.82-9.37,2.65-12.35,5.47c-3.23,3.06-4.94,7.2-4.94,11.96
	c0,12.57,12.59,16.69,22.06,18.7c13.9,2.94,13.9,5.38,13.9,7.74c0,2.22-3.2,6.37-10.91,6.37c-7.6,0-11.97-2.88-13.76-9.06
	l-12.46,2.83c2.58,8.91,9.14,14.79,18.47,16.83v8.02h12.87v-7.62C346.78,433.23,353.79,425.19,353.79,417.68z"/>
<circle class="st4" cx="203.42" cy="295.08" r="31.51"/>
</svg>
