<svg width="478" height="339" viewBox="0 0 478 339" fill="none" xmlns="http://www.w3.org/2000/svg">
<path d="M470 296.462V31.0769C470 24.9565 467.569 19.0868 463.241 14.7591C458.913 10.4313 453.043 8 446.923 8H43.0769C36.9565 8 31.0868 10.4313 26.7591 14.7591C22.4313 19.0868 20 24.9565 20 31.0769V296.462C20 302.582 22.4313 308.452 26.7591 312.779C31.0868 317.107 36.9565 319.538 43.0769 319.538H446.923C453.043 319.538 458.913 317.107 463.241 312.779C467.569 308.452 470 302.582 470 296.462Z" stroke="#C5E4FF" stroke-width="15.8" stroke-linecap="round" stroke-linejoin="round"/>
<path d="M470 59.7033L245 163.769L20 59.7033" stroke="#C5E4FF" stroke-width="15.8" stroke-linecap="round" stroke-linejoin="round"/>
<path d="M454 312.462V47.0769C454 40.9565 451.569 35.0868 447.241 30.7591C442.913 26.4313 437.043 24 430.923 24H27.0769C20.9565 24 15.0868 26.4313 10.7591 30.7591C6.43131 35.0868 4 40.9565 4 47.0769V312.462C4 318.582 6.43131 324.452 10.7591 328.779C15.0868 333.107 20.9565 335.538 27.0769 335.538H430.923C437.043 335.538 442.913 333.107 447.241 328.779C451.569 324.452 454 318.582 454 312.462Z" stroke="#1C3553" stroke-width="6.8" stroke-linecap="round" stroke-linejoin="round"/>
<path d="M454 75.7033L229 179.769L4 75.7033" stroke="#1C3553" stroke-width="6.8" stroke-linecap="round" stroke-linejoin="round"/>
</svg>
