<svg id="info-zoom-glass" xmlns="http://www.w3.org/2000/svg" viewBox="0 0 909 457">
	<defs>
		<linearGradient id="linear-gradient" y1="228.5" x2="909" y2="228.5" gradientUnits="userSpaceOnUse">
			<stop offset="0" stop-color="#000"/>
			<stop offset="0.2" stop-color="#fff"/>
			<stop offset="0.5" stop-color="#fff"/>
			<stop offset="0.8" stop-color="#fff"/>
			<stop offset="1" stop-color="#000"/>
		</linearGradient>
		<mask id="mask-moving-elements">
			<rect width="909" height="457" fill="url(#linear-gradient)"/>
		</mask>
	</defs>
	<g mask="url(#mask-moving-elements)">
		<g id="moving-elements">
			<g id="move-icons">
				<g>
					<path d="M669,198a14,14,0,0,1,14-14h34a14,14,0,0,1,0,28H683a14,14,0,0,1-14-14Z" fill="#efefef"/>
					<path d="M710.6,193.5h1.5v3.6h.1l3.5-3.6h2l-3.9,3.9L718,202h-2.1l-3.7-4.2h-.1V202h-1.5Zm-1.8,5.4a3.24,3.24,0,0,1-.3,1.4,3.47,3.47,0,0,1-.7,1,4.11,4.11,0,0,1-1.1.7l-1.4.2L704,202a4.11,4.11,0,0,1-1.1-.7,2.28,2.28,0,0,1-.7-1,3.24,3.24,0,0,1-.3-1.4v-5.4h1.5v5.3c0,.2.1.5.1.7l.3.6.6.5.9.2.9-.2a1,1,0,0,0,.6-.5.91.91,0,0,0,.3-.6,1.66,1.66,0,0,0,.1-.7v-5.3h1.6Z" fill="#1c3553"/>
					<path d="M688,199.2a2.1,2.1,0,1,1,2.1-2.1,2.1,2.1,0,0,1-2.1,2.1Zm5.3.5a6,6,0,1,0-10.5.2h0l.6.8h0l3.6,3.7a1.3,1.3,0,0,0,1.83.17,1.37,1.37,0,0,0,.17-.17l3.6-3.7h0a.09.09,0,0,1,.1-.1,5.1,5.1,0,0,0,.5-.8A.24.24,0,0,0,693.3,199.7Z" fill="#1c3553" opacity="0.8" style="isolation: isolate"/>
				</g>
				<g>
					<path d="M368,221a14,14,0,0,1,14-14h64a14,14,0,0,1,0,28H382A14,14,0,0,1,368,221Z" fill="#efefef"/>
					<path d="M441.7,221.4l-3.2-4.9h1.9l2.1,3.4,2.1-3.4h1.8l-3.2,4.9V225h-1.5Zm-9.4-4.9h5.6v1.4h-4.1V220h3.9v1.3h-3.9v2.3h4.3V225h-5.8Zm-8.2,0h1.5v3.6h0l3.6-3.6h2l-4,3.9,4.3,4.6h-2.2l-3.6-4.2h-.1V225h-1.5Zm-4.9,3.6h.6l.6-.2a.89.89,0,0,0,.5-.3,1.51,1.51,0,0,0,.1-.7,1.36,1.36,0,0,0-.1-.6l-.4-.3-.6-.2H418v2.3Zm-2.7-3.6h4.1a2.3,2.3,0,0,1,1,.4,1.93,1.93,0,0,1,.8.8,3.75,3.75,0,0,1,.2,1.1,2.5,2.5,0,0,1-.5,1.6,1.7,1.7,0,0,1-1.4.7l2.2,3.8h-1.8l-2-3.6H418V225h-1.5Zm-1.9,5.4a3.18,3.18,0,0,1-.2,1.4,3.47,3.47,0,0,1-.7,1,4.11,4.11,0,0,1-1.1.7l-1.4.2-1.3-.2a4.11,4.11,0,0,1-1.1-.7,2.28,2.28,0,0,1-.7-1,3.24,3.24,0,0,1-.3-1.4v-5.4h1.5v5.3a1.66,1.66,0,0,0,.1.7l.3.6.6.5.9.2.9-.2a1,1,0,0,0,.6-.5.91.91,0,0,0,.3-.6,1.66,1.66,0,0,0,.1-.7v-5.3h1.5Zm-11.9-4h-2.6v-1.4h6.7v1.4h-2.6V225h-1.5Z" fill="#1c3553"/>
					<path d="M387,222.2a2.1,2.1,0,0,1-2.1-2.1h0a2.1,2.1,0,1,1,2.1,2.1Zm5.3.5a6,6,0,1,0-10.5.2h0l.6.8h0l3.6,3.7a1.3,1.3,0,0,0,1.83.17,1.37,1.37,0,0,0,.17-.17l3.6-3.7h0a.09.09,0,0,1,.1-.1h0a5.1,5.1,0,0,0,.5-.8A.24.24,0,0,0,392.3,222.7Z" fill="#1c3553" opacity="0.8" style="isolation: isolate"/>
				</g>
				<g>
					<path d="M183,335.5A24.5,24.5,0,0,1,207.5,311h92a24.5,24.5,0,0,1,0,49h-92A24.5,24.5,0,0,1,183,335.5Z" fill="#efefef"/>
					<path d="M228.2,349.2h-2.8v-2a3.21,3.21,0,0,0-2.5-3.1v-2.8l3.1,1.5a3.89,3.89,0,0,1,2.2,3.6Zm-7.8,0v-2a1.5,1.5,0,0,1,1.5-1.5h.2a1.5,1.5,0,0,1,1.5,1.5v2Zm-9.8,0a3.75,3.75,0,0,0,.2-1.1,2.89,2.89,0,0,0-2.1-2.8v-4.7l1.6-.7,4.7,7.2,4.7-7.2,1.4.6v3.6a3.1,3.1,0,0,0-2.4,3.1v2Zm-8.8-2.8a3.89,3.89,0,0,1,2.2-3.6l3-1.4v3.9a2.89,2.89,0,0,0-2.1,2.8,2,2,0,0,0,.3,1.1h-3.4Zm6.1,2.8a1.1,1.1,0,0,1-1.2-1v-.1a1.2,1.2,0,0,1,1.2-1.2h0A1.1,1.1,0,0,1,209,348v.1a1.1,1.1,0,0,1-1.1,1.1Zm9.3-8.7-2.2,3.4-2.2-3.4A8.22,8.22,0,0,0,217.2,340.5Zm-9.3-7.5a.9.9,0,0,1,.9-.9h.9a15,15,0,0,0,6.7-3,9,9,0,0,0,3.9,2.4v.6h.9a.9.9,0,0,1,.9.9,1,1,0,0,1-.9,1h-.9v.7a5.3,5.3,0,0,1-10.4,0V334H209a1,1,0,0,1-1.1-.89Zm1.8-5a5.3,5.3,0,0,1,10.6,0v1.6a6.2,6.2,0,0,1-3.1-2.3l-.6-1.2-.8,1.1s-1.8,2.2-6.1,3.1Zm17,13.2-6.3-3a6.2,6.2,0,0,0,1.4-2.5,2.81,2.81,0,0,0,2.1-2.7,2.7,2.7,0,0,0-1.9-2.5V328a7,7,0,0,0-14,0v2.5a2.7,2.7,0,0,0-1.9,2.5,2.81,2.81,0,0,0,2.1,2.7,6.2,6.2,0,0,0,1.4,2.5l-6.3,3a5.71,5.71,0,0,0-3.3,5.2V351h30v-4.6A5.71,5.71,0,0,0,226.7,341.2Z" fill="#1c3553"/>
					<path d="M307,339.2a1,1,0,0,1,1-1,.69.69,0,0,1,.6.3.91.91,0,0,1,.3.6.89.89,0,0,1-.3.7.69.69,0,0,1-.6.3h-.4l-.3-.2c-.1-.1-.2-.2-.2-.3A.42.42,0,0,1,307,339.2Zm-6.3-.6H302l1.1-.5a2.9,2.9,0,0,0,1-2.2,5.15,5.15,0,0,0-.2-1.4l-.7-.9a2.94,2.94,0,0,0-1-.5h-2.6v5.7Zm-2.7-7.1h3.4a4.37,4.37,0,0,1,1.6.3,3.69,3.69,0,0,1,1.4.7,3.41,3.41,0,0,1,.9,1.4,3.66,3.66,0,0,1,.4,1.9,3.4,3.4,0,0,1-.4,1.8,3.77,3.77,0,0,1-1.1,1.4,3.69,3.69,0,0,1-1.4.7l-1.6.3H298Zm-11,0h2.3l2.2,6,2.3-6h2.3V340h-1.4v-7.1h-.1l-2.5,7.1H291l-2.6-7.1h0V340H287Zm-6.8,6.8h1.4l-1,3.2h-1.3Zm-11.4-6.8h2.3l2.2,6,2.3-6h2.3V340h-1.4v-7.1h-.1l-2.5,7.1h-1.1l-2.6-7.1h0V340h-1.4Zm-3.5,0h1.6V340h-1.6Zm-6.4,7.1h1.3a4.07,4.07,0,0,0,1.2-.5l.7-.9a2.79,2.79,0,0,0,.3-1.3,2.83,2.83,0,0,0-.3-1.4,2.92,2.92,0,0,0-.7-.9,2.25,2.25,0,0,0-1-.5h-2.6v5.7Zm-2.6-7.1h3.3a4,4,0,0,1,1.6.3,3.09,3.09,0,0,1,1.4.7,4,4,0,0,1,1.3,3.3,3.4,3.4,0,0,1-.4,1.8,3.68,3.68,0,0,1-1,1.4,5.26,5.26,0,0,1-1.5.7,4,4,0,0,1-1.6.3h-3.1Zm-5.5,4.9-3.2-4.9h1.9l2.1,3.4,2.1-3.4h1.8l-3.2,4.9V340h-1.5Zm-5.2.4-1.3-3.5-1.3,3.5Zm-1.9-5.3H245l3.7,8.5h-1.8l-.8-1.9h-3.6l-.8,1.9H240Z" fill="#1c3553"/>
				</g>
				<g>
					<path d="M647,347.5A24.5,24.5,0,0,1,671.5,323h91a24.5,24.5,0,0,1,0,49h-91A24.5,24.5,0,0,1,647,347.5Z" fill="#efefef"/>
					<path d="M692.2,361.2h-2.8v-2a3.21,3.21,0,0,0-2.5-3.1v-2.8l3.1,1.5a3.89,3.89,0,0,1,2.2,3.6Zm-7.8,0v-2a1.5,1.5,0,0,1,1.5-1.5h.2a1.5,1.5,0,0,1,1.5,1.5v2Zm-9.8,0a3.75,3.75,0,0,0,.2-1.1,2.89,2.89,0,0,0-2.1-2.8v-4.7l1.6-.7,4.7,7.2,4.7-7.2,1.4.6v3.6a3.1,3.1,0,0,0-2.4,3.1v2Zm-8.8-2.8a3.89,3.89,0,0,1,2.2-3.6l3-1.4v3.9a2.89,2.89,0,0,0-2.1,2.8,2,2,0,0,0,.3,1.1h-3.4Zm6.1,2.8a1.11,1.11,0,0,1-1.2-1v-.1a1.2,1.2,0,0,1,1.2-1.2h0A1.1,1.1,0,0,1,673,360v.1A1.1,1.1,0,0,1,671.9,361.2Zm9.3-8.7-2.2,3.4-2.2-3.4A8.22,8.22,0,0,0,681.2,352.5Zm-9.3-7.5a.9.9,0,0,1,.9-.9h.9a15,15,0,0,0,6.7-3,9,9,0,0,0,3.9,2.4v.6h.9a.9.9,0,0,1,.9.9h0a1,1,0,0,1-.9,1h-.9v.7a5.3,5.3,0,0,1-10.4,0V346H673a1,1,0,0,1-1.09-.89A.41.41,0,0,1,671.9,345Zm1.8-5a5.3,5.3,0,0,1,10.6,0v1.6a6.2,6.2,0,0,1-3.1-2.3l-.6-1.2-.8,1.1s-1.8,2.2-6.1,3.1Zm17,13.2-6.3-3a6.2,6.2,0,0,0,1.4-2.5,2.8,2.8,0,0,0,2.1-2.7,2.7,2.7,0,0,0-1.9-2.5V340a7,7,0,0,0-14,0v2.5a2.7,2.7,0,0,0-1.9,2.5,2.8,2.8,0,0,0,2.1,2.7,6.2,6.2,0,0,0,1.4,2.5l-6.3,3a5.71,5.71,0,0,0-3.3,5.2V363h30v-4.6A5.71,5.71,0,0,0,690.7,353.2Z" fill="#1c3553"/>
					<path d="M774.5,351.2a1.32,1.32,0,0,1,.2-.7,1.09,1.09,0,0,1,.7-.3.89.89,0,0,1,.7.3.91.91,0,0,1,.3.6,1,1,0,0,1-1,1h-.3c-.2,0-.3-.1-.3-.2l-.3-.3Zm-6.4-.6h1.4l1.1-.5.7-.9a2.79,2.79,0,0,0,.3-1.3,2.83,2.83,0,0,0-.3-1.4,2.37,2.37,0,0,0-.6-.9l-1-.5H767v5.7Zm-2.6-7.1h3.3a5,5,0,0,1,1.7.3,3.23,3.23,0,0,1,1.3.7,3.68,3.68,0,0,1,1,1.4,5,5,0,0,1,.4,1.9,3.47,3.47,0,0,1-.5,1.8,3.68,3.68,0,0,1-1,1.4,4.21,4.21,0,0,1-1.5.7,3.9,3.9,0,0,1-1.5.3h-3.2Zm-11.1,0h2.3l2.3,6,2.3-6h2.3V352h-1.5v-7.1h0l-2.6,7.1h-1l-2.6-7.1h0V352h-1.5Zm-6.8,6.8h1.5l-1,3.2h-1.3Zm-12.1-6.8h1.6l1.6,6.1h0l1.9-6.1h1.5l1.9,6.1h0l1.7-6.1h1.5l-2.4,8.5h-1.5l-2-6.5h0l-1.9,6.5H738Zm-2.8,5.3-1.3-3.5-1.3,3.5Zm-1.9-5.3h1.3l3.7,8.5H734l-.8-1.9h-3.6l-.8,1.9h-1.7Zm-5.5,1.8a1.46,1.46,0,0,0-.6-.5h-1.4l-.4.2c-.2.1-.3.2-.3.4a.84.84,0,0,0-.2.4.82.82,0,0,0,.3.7,2,2,0,0,0,.8.4l1,.3.9.5a1.81,1.81,0,0,1,.8.7,2.61,2.61,0,0,1,0,2.4,1.81,1.81,0,0,1-.7.8,1.59,1.59,0,0,1-.9.5,2.6,2.6,0,0,1-1.2.2l-1.6-.2a3.42,3.42,0,0,1-1.2-.9l1.1-1.1c.2.2.4.5.7.6a1.82,1.82,0,0,0,1,.2h.5l.5-.2c.2-.1.3-.3.4-.4a.75.75,0,0,0,.1-.5.82.82,0,0,0-.3-.7l-.8-.5-.9-.3-1-.4a2.34,2.34,0,0,1-.7-.7,2.11,2.11,0,0,1-.3-1.2,2.16,2.16,0,0,1,.2-1.2,2.83,2.83,0,0,1,.7-.8l1-.5H724l1.3.2a2.66,2.66,0,0,1,1.1.7Zm-11.4,5.9a1,1,0,0,1,1-1,1.09,1.09,0,0,1,.7.3,1.42,1.42,0,0,1,.2.6,1.32,1.32,0,0,1-.2.7,1.09,1.09,0,0,1-.7.3h-.4l-.3-.2c-.1-.1-.2-.2-.2-.3a.42.42,0,0,1-.1-.4Zm-6.3-.6h1.3l1.1-.5.8-.9a5.18,5.18,0,0,0,.2-1.3,2.9,2.9,0,0,0-.2-1.4l-.7-.9-1-.5h-2.6v5.7Zm-2.7-7.1h3.4a4,4,0,0,1,1.6.3,3.69,3.69,0,0,1,1.4.7,4,4,0,0,1,1.3,3.3,3.31,3.31,0,0,1-.4,1.8,3.77,3.77,0,0,1-1.1,1.4,3.69,3.69,0,0,1-1.4.7l-1.6.3h-3.2Z" fill="#1c3553"/>
				</g>
				<g>
					<path d="M757,217.5A24.5,24.5,0,0,1,781.5,193h92a24.5,24.5,0,0,1,0,49h-92A24.5,24.5,0,0,1,757,217.5Z" fill="#efefef"/>
					<path d="M880.9,215.5a2.92,2.92,0,0,0-.9-.7h-.9a2.6,2.6,0,0,0-1.2.2l-.9.6a2.11,2.11,0,0,0-.6,1,4.86,4.86,0,0,0-.2,1.2,6.29,6.29,0,0,0,.2,1.3,1.78,1.78,0,0,0,.6.9l.9.7a2.6,2.6,0,0,0,1.2.2,1.65,1.65,0,0,0,1-.2,3.28,3.28,0,0,0,.9-.8l1.3.9a5.37,5.37,0,0,1-1.4,1.2l-1.8.3a4.83,4.83,0,0,1-1.8-.3,3.41,3.41,0,0,1-1.4-.9,7,7,0,0,1-1-1.4,4.83,4.83,0,0,1-.3-1.8,5.56,5.56,0,0,1,.3-1.9,7,7,0,0,1,1-1.4,3.41,3.41,0,0,1,1.4-.9,4.83,4.83,0,0,1,1.8-.3,4,4,0,0,1,1.6.3,3.26,3.26,0,0,1,1.4,1Zm-9.2-2h1.5V222h-1.5Zm-9.5,0h2l4.1,6.3h0v-6.3h1.5V222h-1.9l-4.2-6.5h0V222h-1.5Zm-3.4,0h1.5V222h-1.5Zm-6.2,0h1.5v7.1h3.6V222h-5.1Zm-2.4,2a2.92,2.92,0,0,0-.9-.7h-.9a2.6,2.6,0,0,0-1.2.2,4.86,4.86,0,0,0-.9.6l-.6,1a4.86,4.86,0,0,0-.2,1.2,5.68,5.68,0,0,0,.2,1.3l.6.9.9.7a2.6,2.6,0,0,0,1.2.2,1.65,1.65,0,0,0,1-.2,2.52,2.52,0,0,0,1-.8l1.2.9a3.39,3.39,0,0,1-3.2,1.5l-1.8-.3a3.9,3.9,0,0,1-2.3-2.3,4.86,4.86,0,0,1-.4-1.8,5.92,5.92,0,0,1,.4-1.9,3.9,3.9,0,0,1,2.3-2.3l1.8-.3a4,4,0,0,1,1.6.3,3.26,3.26,0,0,1,1.4,1Zm-10.7,1.6h.7l.6-.2c.2,0,.3-.2.4-.3a1.32,1.32,0,0,0,.2-.7,1.42,1.42,0,0,0-.2-.6l-.4-.3-.5-.2h-1.9v2.3Zm-2.7-3.6H841l1,.4a1.88,1.88,0,0,1,.7.8,2,2,0,0,1,.3,1.1,2.08,2.08,0,0,1-.6,1.6,1.7,1.7,0,0,1-1.4.7l2.3,3.8h-1.9l-1.9-3.6h-1.1V222h-1.6Zm-3.3,0H835V222h-1.5Zm-4,5.3-1.3-3.5-1.3,3.5Zm-1.9-5.3h1.3l3.7,8.5h-1.8l-.8-1.9h-3.6l-.8,1.9h-1.7Zm-11.7,0h1.6v3.4h3.9v-3.4h1.5V222h-1.5v-3.7h-3.9V222h-1.6Z" fill="#1c3553"/>
					<path d="M801.8,226.6a2.1,2.1,0,0,1-2.1,2.1H782.3a2.1,2.1,0,0,1-2.1-2.1V214.9l10-9.8.4-.3a1.1,1.1,0,0,1,1.1.2h.1l10,9.8v11.8Zm3.9-10.3L793,203.8a2.81,2.81,0,0,0-4,0l0,0-12.7,12.5a.9.9,0,0,0,0,1.27l0,0a.89.89,0,0,0,1.2,0l1-1v10a3.9,3.9,0,0,0,3.8,3.9h17.4a3.9,3.9,0,0,0,3.8-3.9v-10l1,1a.71.71,0,0,0,.6.2c.2,0,.5,0,.6-.2a.9.9,0,0,0,0-1.27Z" fill="#1c3553"/>
					<path d="M790.1,217v-2.9h1.8V217a.9.9,0,0,0,.8.9h2.9v1.7h-2.9a.9.9,0,0,0-.8.9v2.8h-1.8v-2.8a.9.9,0,0,0-.9-.9h-2.8v-1.7h2.8a.9.9,0,0,0,.9-.9Zm-1.7-3.7v2.8h-2.9a.81.81,0,0,0-.81.79s0,.07,0,.11v3.5a.79.79,0,0,0,.69.89h3v2.8a.9.9,0,0,0,.8.9h3.5a.9.9,0,0,0,.9-.9h0v-2.8h2.9a.9.9,0,0,0,.8-.9V217a.9.9,0,0,0-.8-.9h-2.9v-2.8a.9.9,0,0,0-.9-.9h-3.5a.9.9,0,0,0-.8.9Z" fill="#1c3553"/>
				</g>
				<g>
					<path d="M214,172.5A24.5,24.5,0,0,1,238.5,148h92a24.5,24.5,0,0,1,0,49h-92A24.5,24.5,0,0,1,214,172.5Z" fill="#efefef"/>
					<path d="M331.5,172.1h.7l.6-.2c.2,0,.3-.2.4-.3a1.32,1.32,0,0,0,.2-.7,1.42,1.42,0,0,0-.2-.6l-.4-.3-.5-.2h-1.9v2.3Zm-2.7-3.6H333l1,.4a1.88,1.88,0,0,1,.7.8,2,2,0,0,1,.3,1.1,2.08,2.08,0,0,1-.6,1.6,1.7,1.7,0,0,1-1.4.7l2.3,3.8h-1.9l-1.9-3.6h-1.1V177h-1.6Zm-3.3,0H327V177h-1.5Zm-4,5.3-1.3-3.5-1.3,3.5Zm-1.9-5.3h1.3l3.7,8.5h-1.8l-.8-1.9h-3.6l-.8,1.9h-1.7Zm-11.7,0h1.6v3.4h3.9v-3.4h1.5V177h-1.5v-3.7h-3.9V177h-1.6Zm-7.3,0h5.6v1.4h-4.1V172H306v1.3h-3.9v2.3h4.4V177h-5.9Zm-4.9,3.6h.7l.6-.2c.2,0,.3-.2.4-.3a1.32,1.32,0,0,0,.2-.7,1.42,1.42,0,0,0-.2-.6l-.4-.3-.5-.2h-1.9v2.3Zm-2.6-3.6h4.1l1,.4a1.88,1.88,0,0,1,.7.8,2,2,0,0,1,.3,1.1,2.5,2.5,0,0,1-.5,1.6,2.11,2.11,0,0,1-1.5.7l2.3,3.8h-1.9l-1.9-3.6h-1.1V177h-1.5Zm-8.9,4.2a6.29,6.29,0,0,0,.2,1.3,1.78,1.78,0,0,0,.6.9,2.14,2.14,0,0,0,.9.7,3.66,3.66,0,0,0,2.4,0,2.14,2.14,0,0,0,.9-.7,1.78,1.78,0,0,0,.6-.9,3,3,0,0,0,.2-1.3,2.6,2.6,0,0,0-.2-1.2,2.11,2.11,0,0,0-.6-1,2,2,0,0,0-.9-.6,3.66,3.66,0,0,0-2.4,0,2,2,0,0,0-.9.6,2.11,2.11,0,0,0-.6,1A4.86,4.86,0,0,0,284.2,172.7Zm-1.6.1a5.56,5.56,0,0,1,.3-1.9,7,7,0,0,1,1-1.4,3.41,3.41,0,0,1,1.4-.9,5.55,5.55,0,0,1,3.6,0,3.41,3.41,0,0,1,1.4.9,3.68,3.68,0,0,1,1,1.4,5,5,0,0,1,.3,1.8,5.56,5.56,0,0,1-.3,1.9,4.49,4.49,0,0,1-1,1.4,5.1,5.1,0,0,1-5,.9,3.41,3.41,0,0,1-1.4-.9,7,7,0,0,1-1-1.4A4.83,4.83,0,0,1,282.6,172.8ZM272,168.5h2.3l2.3,6,2.2-6h2.3V177h-1.4v-7.1h0l-2.6,7.1H276l-2.6-7.1h0V177H272Z" fill="#1c3553"/>
					<path d="M254.8,181.6a2.1,2.1,0,0,1-2.1,2.1H235.3a2.1,2.1,0,0,1-2.1-2.1h0V169.9l10-9.8.4-.3a1.1,1.1,0,0,1,1.1.2h.1l10,9.8v11.8Zm3.9-10.3L246,158.8a2.81,2.81,0,0,0-4,0l0,0-12.7,12.5a.9.9,0,0,0,0,1.27l0,0a.89.89,0,0,0,1.2,0l1-1v10a3.9,3.9,0,0,0,3.8,3.9h17.4a3.9,3.9,0,0,0,3.8-3.9v-10l1,1a.71.71,0,0,0,.6.2c.2,0,.5,0,.6-.2a.9.9,0,0,0,0-1.27Z" fill="#1c3553"/>
					<path d="M243.1,172v-2.9h1.8V172a.9.9,0,0,0,.8.9h2.9v1.7h-2.9a.9.9,0,0,0-.8.9v2.8h-1.8v-2.8a.9.9,0,0,0-.9-.9h-2.8v-1.7h2.8A.9.9,0,0,0,243.1,172Zm-1.7-3.7v2.8h-2.9a.81.81,0,0,0-.81.79s0,.07,0,.11v3.5a.79.79,0,0,0,.69.89h3v2.8a.9.9,0,0,0,.8.9h3.5a.9.9,0,0,0,.9-.9v-2.8h2.9a.9.9,0,0,0,.8-.9V172a.9.9,0,0,0-.8-.9h-2.9v-2.8a.9.9,0,0,0-.9-.9h-3.5a.9.9,0,0,0-.8.9Z" fill="#1c3553"/>
				</g>
				<g>
					<path d="M737,288a14,14,0,0,1,14-14h49a14,14,0,0,1,0,28H751A14,14,0,0,1,737,288Z" fill="#efefef"/>
					<path d="M795.8,287.8v.9a5.76,5.76,0,0,0,.3,1,3,3,0,0,0,.4.8,1.4,1.4,0,0,0,.9.3,1.19,1.19,0,0,0,.9-.3,3.47,3.47,0,0,0,.5-.8c.1-.4.1-.7.2-1v-1.9c-.1-.3-.1-.6-.2-1a1.84,1.84,0,0,0-.5-.7,1,1,0,0,0-.9-.4,1.08,1.08,0,0,0-.9.4,1.64,1.64,0,0,0-.4.7,5.76,5.76,0,0,0-.3,1Zm-1.5,0a9,9,0,0,1,.2-1.8,5.64,5.64,0,0,1,.4-1.2,2.24,2.24,0,0,1,.6-.7l.7-.5.6-.2H798l.6.2a1.84,1.84,0,0,1,.7.5,2.24,2.24,0,0,1,.6.7,5.64,5.64,0,0,1,.4,1.2,9,9,0,0,1,.2,1.8,8.87,8.87,0,0,1-.2,1.7,3.4,3.4,0,0,1-.4,1.2l-.6.8-.7.4-.6.2h-1.2l-.6-.2-.7-.4-.6-.8a3.4,3.4,0,0,1-.4-1.2A8.87,8.87,0,0,1,794.3,287.8Zm-2.5-1.5a1.36,1.36,0,0,0-.1-.6l-.3-.5-.5-.4h-1.2a3,3,0,0,0-.9.9c0,.2-.1.4-.1.6s.1.4.1.6l.4.5.5.3h1.2l.5-.3.3-.5A1.36,1.36,0,0,0,791.8,286.3Zm-3.2,5.7,2.1-3.1h-.9l-1-.2-.8-.6a4.4,4.4,0,0,1-.5-.9,1.82,1.82,0,0,1-.2-1,3.78,3.78,0,0,1,.2-1.2,3.37,3.37,0,0,1,.6-.9,2.11,2.11,0,0,1,1-.6,3.66,3.66,0,0,1,2.4,0,2.94,2.94,0,0,1,1,.5,4.86,4.86,0,0,1,.6.9,2.76,2.76,0,0,1,.2,1.3,2.6,2.6,0,0,1-.2,1.2,3.79,3.79,0,0,1-.6,1.1l-2.1,3.4Zm-3.9-5.7a1.36,1.36,0,0,0-.1-.6l-.3-.5-.5-.4h-1.2a3,3,0,0,0-.9.9c0,.2-.1.4-.1.6s.1.4.1.6l.4.5.5.3h1.2l.5-.3.3-.5a1.36,1.36,0,0,0,.1-.6Zm-3.2,5.7,2.1-3.1h-.9l-1-.2-.8-.6a4.4,4.4,0,0,1-.5-.9,1.82,1.82,0,0,1-.2-1,3.78,3.78,0,0,1,.2-1.2,3.37,3.37,0,0,1,.6-.9,2.11,2.11,0,0,1,1-.6,3.66,3.66,0,0,1,2.4,0,2.94,2.94,0,0,1,1,.5,4.86,4.86,0,0,1,.6.9,2.76,2.76,0,0,1,.2,1.3,2.6,2.6,0,0,1-.2,1.2,3.79,3.79,0,0,1-.6,1.1l-2.1,3.4Zm-4.6-.8a1,1,0,0,1,1-1,.69.69,0,0,1,.6.3.91.91,0,0,1,.3.6.89.89,0,0,1-.3.7.69.69,0,0,1-.6.3h-.4l-.3-.2c-.1-.1-.2-.2-.2-.3a.42.42,0,0,1-.1-.4Zm-7.2-.7,3.3-3.2.3-.3.3-.4.2-.3a.87.87,0,0,0,.1-.5c0-.1-.1-.3-.1-.4l-.3-.4-.4-.2h-.5a1.12,1.12,0,0,0-.8.3,1.32,1.32,0,0,0-.5.9h-1.5l.3-1.1.6-.7.9-.5h2.1a2.42,2.42,0,0,1,.9.5l.6.7a3.75,3.75,0,0,1,.2,1.1,2.32,2.32,0,0,1-.4,1.4l-.9,1.1-2.6,2.4h3.9V292h-5.7Z" fill="#1c3553"/>
					<path d="M759.6,292.7a.41.41,0,0,0-.1-.3h-1.8a4.46,4.46,0,0,1-2.3-.7,4.24,4.24,0,0,1-1.5-1.8H758c0-.1,0-.1.1-.2l.2-1.1a.41.41,0,0,0-.1-.3c0-.1-.1-.1-.2-.1h-4.5a1.7,1.7,0,0,1,0-1h4.8a.29.29,0,0,0,.3-.3l.2-1.1c.1-.1,0-.2,0-.3h-4.9a3.5,3.5,0,0,1,1.5-1.7,3.42,3.42,0,0,1,2.2-.7h1.6l.2-.2.4-1.6v-.2l-.2-.2-2-.2a6.25,6.25,0,0,0-3.9,1.3,5.73,5.73,0,0,0-2.4,3.3h-1.2V287a.41.41,0,0,0,.1.3h.9v1h-.9v1.3a.41.41,0,0,0,.1.3h1.2a6.33,6.33,0,0,0,2.3,3.4,6.41,6.41,0,0,0,4,1.3H760c.1,0,.1-.1.2-.2v-.2Z" fill="#1c3553"/>
				</g>
				<g>
					<path d="M121,193a14,14,0,0,1,14-14h49a14,14,0,0,1,0,28H135A14,14,0,0,1,121,193Z" fill="#e5e5e5"/>
					<path d="M121,193a14,14,0,0,1,14-14h49a14,14,0,0,1,0,28H135A14,14,0,0,1,121,193Z" fill="#efefef"/>
					<path d="M179.8,192.8v.9a5.76,5.76,0,0,0,.3,1,3,3,0,0,0,.4.8,1.4,1.4,0,0,0,.9.3,1.19,1.19,0,0,0,.9-.3,3.47,3.47,0,0,0,.5-.8c.1-.4.1-.7.2-1v-1.9c-.1-.3-.1-.6-.2-1a1.84,1.84,0,0,0-.5-.7,1,1,0,0,0-.9-.4,1.08,1.08,0,0,0-.9.4,1.64,1.64,0,0,0-.4.7,5.76,5.76,0,0,0-.3,1Zm-1.5,0a9,9,0,0,1,.2-1.8,5.64,5.64,0,0,1,.4-1.2,2.24,2.24,0,0,1,.6-.7l.7-.5.6-.2H182l.6.2a1.84,1.84,0,0,1,.7.5,2.24,2.24,0,0,1,.6.7,5.64,5.64,0,0,1,.4,1.2,9,9,0,0,1,.2,1.8,8.87,8.87,0,0,1-.2,1.7,3.4,3.4,0,0,1-.4,1.2l-.6.8-.7.4-.6.2h-1.2l-.6-.2-.7-.4-.6-.8a3.4,3.4,0,0,1-.4-1.2A8.87,8.87,0,0,1,178.3,192.8Zm-4.3-2.6-1.6,1.4-.9-1,2.6-2.1h1.3V197H174Zm-9.6,5.3,3.3-3.2.3-.3a.48.48,0,0,0,.2-.4l.3-.3v-.5a.63.63,0,0,0-.1-.4.48.48,0,0,0-.2-.4l-.4-.2h-.5a1.19,1.19,0,0,0-.9.3,1.29,1.29,0,0,0-.4.9h-1.5a2,2,0,0,1,.3-1.1,1.29,1.29,0,0,1,.6-.7l.8-.5h2.2l.8.5a1.29,1.29,0,0,1,.6.7,2,2,0,0,1,.2,1.1,3.24,3.24,0,0,1-.3,1.4l-1,1.1-2.6,2.4H170V197h-5.6Zm-3.5.7a1,1,0,0,1,1-1,.69.69,0,0,1,.6.3.91.91,0,0,1,.3.6.89.89,0,0,1-.3.7.69.69,0,0,1-.6.3h-.4l-.3-.2-.2-.3A.42.42,0,0,1,160.9,196.2Zm-3.9-5.7h0l-2.1,3.5H157Zm0,4.8h-3.6v-1.5l3.4-5.3h1.7V194h1.2v1.3h-1.2V197H157Z" fill="#1c3553"/>
					<path d="M143.6,197.7a.41.41,0,0,0-.1-.3h-1.8a4.46,4.46,0,0,1-2.3-.7,4.24,4.24,0,0,1-1.5-1.8H142v-.2l.2-1.1a.41.41,0,0,0-.1-.3h-4.7a1.7,1.7,0,0,1,0-1h4.8a.29.29,0,0,0,.3-.3h0l.2-1.1c.1-.1,0-.2,0-.3h-4.9a3.5,3.5,0,0,1,1.5-1.7,3.42,3.42,0,0,1,2.2-.7h1.6l.2-.2.4-1.6v-.2l-.2-.2-2-.2a6.31,6.31,0,0,0-3.9,1.3,5.73,5.73,0,0,0-2.4,3.3H134V192a.41.41,0,0,0,.1.3h.9v1h-.9v1.3a.41.41,0,0,0,.1.3h1.2a6.33,6.33,0,0,0,2.3,3.4,6.41,6.41,0,0,0,4,1.3h2.2l.2-.2v-.2Z" fill="#1c3553"/>
				</g>
				<g>
					<path d="M83,107A14,14,0,0,1,97,93h49a14,14,0,0,1,0,28H97A14,14,0,0,1,83,107Z" fill="#efefef"/>
					<path d="M83,107A14,14,0,0,1,97,93h49a14,14,0,0,1,0,28H97A14,14,0,0,1,83,107Z" fill="#efefef"/>
					<path d="M143.9,104.5h0l-2.2,3.5h2.2Zm0,4.8h-3.6v-1.5l3.4-5.3h1.6V108h1.3v1.3h-1.3V111h-1.4Zm-6.1-4a1.36,1.36,0,0,0-.1-.6l-.3-.5-.5-.4h-1.2a3,3,0,0,0-.9.9c0,.2-.1.4-.1.6s.1.4.1.6l.4.5.5.3h1.2l.5-.3.3-.5a1.36,1.36,0,0,0,.1-.6Zm-3.2,5.7,2.1-3.1h-.9l-1-.2-.8-.6a4.4,4.4,0,0,1-.5-.9,1.82,1.82,0,0,1-.2-1,3.78,3.78,0,0,1,.2-1.2,3.37,3.37,0,0,1,.6-.9,2.11,2.11,0,0,1,1-.6,3.66,3.66,0,0,1,2.4,0l1,.5a4.86,4.86,0,0,1,.6.9,2.76,2.76,0,0,1,.2,1.3,2.6,2.6,0,0,1-.2,1.2,3.79,3.79,0,0,1-.6,1.1l-2.1,3.4Zm-6.9-2.8a1.36,1.36,0,0,0,.1.6l.3.5.5.4h1.2a3,3,0,0,0,.9-.9c0-.2.1-.4.1-.6s-.1-.4-.1-.6l-.4-.5-.5-.3h-1.2l-.5.3-.3.5A1.36,1.36,0,0,0,127.7,108.2Zm3.2-5.7-2,3.1h.8l1,.2.8.6a4.4,4.4,0,0,1,.5.9,1.82,1.82,0,0,1,.2,1,2.16,2.16,0,0,1-.2,1.2l-.6,1-1,.5a2.6,2.6,0,0,1-1.2.2H128l-1-.6a4.86,4.86,0,0,1-.6-.9,4,4,0,0,1,0-2.5,3.79,3.79,0,0,1,.6-1.1l2.1-3.4Zm-8,7.7a1,1,0,0,1,1-1,.69.69,0,0,1,.6.3.91.91,0,0,1,.3.6.89.89,0,0,1-.3.7.69.69,0,0,1-.6.3h-.4l-.3-.2-.2-.3A.42.42,0,0,1,122.9,110.2Zm-5.2-4.3h.9l.6-.2.3-.3a1.42,1.42,0,0,0,.2-.6,1,1,0,0,0-.3-.8l-.9-.3a1.09,1.09,0,0,0-.8.2,1.84,1.84,0,0,0-.5.7l-1.5-.4a2,2,0,0,1,.4-.8,1.72,1.72,0,0,1,.6-.6c.3-.1.5-.3.8-.3h2l.8.4a1.93,1.93,0,0,1,.6.7,1.82,1.82,0,0,1,.2,1,2,2,0,0,1-.4,1.3,1.73,1.73,0,0,1-1,.6h0a1.89,1.89,0,0,1,1.2.7,2,2,0,0,1,.4,1.3,2,2,0,0,1-.2,1.1l-.6.8a2.94,2.94,0,0,1-1,.5h-2l-.9-.3-.6-.6a1.88,1.88,0,0,1-.4-.9l1.5-.5a1.32,1.32,0,0,0,.5.9c.2.2.5.2.9.2h.5l.5-.3.3-.4a1.36,1.36,0,0,0,.1-.6.77.77,0,0,0-.2-.6c-.1-.2-.2-.4-.4-.4l-.6-.2h-1Z" fill="#1c3553"/>
					<path d="M101.9,105.9l-2.1-1-1.2-.6a1,1,0,0,1,.3-1.8l.7-.2a5.27,5.27,0,0,1,2.7.6c.4.2.5.1.7-.3a6.58,6.58,0,0,0,.4-1.5.4.4,0,0,0-.14-.55.43.43,0,0,0-.16,0,5.37,5.37,0,0,0-1.7-.5c-.8-.1-.8-.1-.8-.9s0-1.1-1.1-1.1H99c-.5,0-.5.1-.6.6v.7c0,.7,0,.7-.6.9a3.7,3.7,0,0,0-2.7,3.4,3.51,3.51,0,0,0,2,3.3,17.35,17.35,0,0,0,2.4,1.1l.9.5a1.3,1.3,0,0,1,.19,1.83,1.28,1.28,0,0,1-.49.37,4.13,4.13,0,0,1-1.6.2,6.31,6.31,0,0,1-2.3-.8c-.5-.2-.6-.1-.8.4l-.3,1.2c-.2.6-.1.7.4,1a7.64,7.64,0,0,0,2.2.6c.5.1.6.1.6.7v.8c0,.4.1.6.5.6H100c.3,0,.5-.2.5-.6v-1.1a.7.7,0,0,1,.5-.7,3.33,3.33,0,0,0,2.1-1.3,3.8,3.8,0,0,0-.51-5.35A5.1,5.1,0,0,0,101.9,105.9Z" fill="#1c3553"/>
				</g>
				<g>
					<path d="M616,148a14,14,0,0,1,14-14h49a14,14,0,0,1,0,28H630A14,14,0,0,1,616,148Z" fill="#e5e5e5" opacity="0.6" style="isolation: isolate"/>
					<path d="M616,148a14,14,0,0,1,14-14h49a14,14,0,0,1,0,28H630A14,14,0,0,1,616,148Z" fill="#efefef"/>
					<path d="M634.9,146.9l-2.1-1-1.2-.6a1,1,0,0,1,.3-1.8l.7-.2a5.27,5.27,0,0,1,2.7.6c.4.2.5.1.7-.3a6.58,6.58,0,0,0,.4-1.5.4.4,0,0,0-.14-.55.43.43,0,0,0-.16-.05,5.37,5.37,0,0,0-1.7-.5c-.8-.1-.8-.1-.8-.9s0-1.1-1.1-1.1H632c-.5,0-.5.1-.6.6v.7c0,.7,0,.7-.6.9a3.7,3.7,0,0,0-2.7,3.4,3.51,3.51,0,0,0,2,3.3,17.35,17.35,0,0,0,2.4,1.1l.9.5a1.3,1.3,0,0,1,.19,1.83,1.28,1.28,0,0,1-.49.37,4.13,4.13,0,0,1-1.6.2,6.31,6.31,0,0,1-2.3-.8c-.5-.2-.6-.1-.8.4l-.3,1.2c-.2.6-.1.7.4,1a7.64,7.64,0,0,0,2.2.6c.5.1.6.1.6.7v.8c0,.4.1.6.5.6H633c.3,0,.5-.2.5-.6v-1.1a.7.7,0,0,1,.5-.7,3.33,3.33,0,0,0,2.1-1.3,3.8,3.8,0,0,0-.51-5.35A5.1,5.1,0,0,0,634.9,146.9Z" fill="#1c3553"/>
					<path d="M677.9,147.3a1.36,1.36,0,0,0-.1-.6l-.3-.5-.5-.4h-1.2a3,3,0,0,0-.9.9c0,.2-.1.4-.1.6s.1.4.1.6l.4.5.5.3H677l.5-.3.3-.5A1.36,1.36,0,0,0,677.9,147.3Zm-3.2,5.7,2.1-3.1h-.9l-1-.2-.8-.6a4.4,4.4,0,0,1-.5-.9,1.82,1.82,0,0,1-.2-1,3.78,3.78,0,0,1,.2-1.2,3.37,3.37,0,0,1,.6-.9,2.11,2.11,0,0,1,1-.6,2.6,2.6,0,0,1,1.2-.2,2.35,2.35,0,0,1,1.2.2l1,.5a2.37,2.37,0,0,1,.6.9,2.76,2.76,0,0,1,.2,1.3,2.6,2.6,0,0,1-.2,1.2,3.79,3.79,0,0,1-.6,1.1l-2.1,3.4Zm-4.9-6.5h-.1l-2.1,3.5h2.2Zm0,4.8h-3.6v-1.5l3.4-5.3h1.6V150h1.2v1.3h-1.2V153h-1.4Zm-10.6-6.8h5.7v1.3l-3.4,7.2h-1.7l3.5-7.1h-4.1Zm-3.3,7.7a1,1,0,0,1,1-1,.69.69,0,0,1,.6.3.91.91,0,0,1,.3.6.89.89,0,0,1-.3.7.69.69,0,0,1-.6.3h-.4l-.3-.2-.2-.3A.42.42,0,0,1,655.9,152.2Zm-4.3-3.1H651l-.5.2-.3.5a4,4,0,0,0-.1.5,1.81,1.81,0,0,0,.4,1,1.4,1.4,0,0,0,1.1.4,1.29,1.29,0,0,0,1-.4,1.81,1.81,0,0,0,.4-1,4,4,0,0,0-.1-.5l-.3-.5-.5-.2Zm0-3.5a1.19,1.19,0,0,0-.9.3,1.12,1.12,0,0,0-.3.8,1.11,1.11,0,0,0,1,1.2H652l.4-.2a.84.84,0,0,0,.2-.4.68.68,0,0,0,.1-.5,1,1,0,0,0-.89-1.1h-.21Zm0-1.2h1l.8.4.6.7a3.12,3.12,0,0,1,.2,1,2.8,2.8,0,0,1-.4,1.2,1.54,1.54,0,0,1-.9.7h0c.2.1.4.1.5.3l.6.4.3.6a2.18,2.18,0,0,1,.1.8,3.75,3.75,0,0,1-.2,1.1l-.6.8-.9.5h-2.3l-.9-.5-.6-.8a3.75,3.75,0,0,1-.2-1.1,2.18,2.18,0,0,1,.1-.8l.4-.6c.1-.2.3-.3.4-.4a3.33,3.33,0,0,1,.6-.3h0a1.54,1.54,0,0,1-.9-.7,2.8,2.8,0,0,1-.4-1.2,1.68,1.68,0,0,1,.3-1l.5-.7.8-.4Z" fill="#1c3553"/>
					<path d="M634.9,146.9l-2.1-1-1.2-.6a1,1,0,0,1,.3-1.8l.7-.2a5.27,5.27,0,0,1,2.7.6c.4.2.5.1.7-.3a6.58,6.58,0,0,0,.4-1.5.4.4,0,0,0-.14-.55.43.43,0,0,0-.16-.05,5.37,5.37,0,0,0-1.7-.5c-.8-.1-.8-.1-.8-.9s0-1.1-1.1-1.1H632c-.5,0-.5.1-.6.6v.7c0,.7,0,.7-.6.9a3.7,3.7,0,0,0-2.7,3.4,3.51,3.51,0,0,0,2,3.3,17.35,17.35,0,0,0,2.4,1.1l.9.5a1.3,1.3,0,0,1,.19,1.83,1.28,1.28,0,0,1-.49.37,4.13,4.13,0,0,1-1.6.2,6.31,6.31,0,0,1-2.3-.8c-.5-.2-.6-.1-.8.4l-.3,1.2c-.2.6-.1.7.4,1a7.64,7.64,0,0,0,2.2.6c.5.1.6.1.6.7v.8c0,.4.1.6.5.6H633c.3,0,.5-.2.5-.6v-1.1a.7.7,0,0,1,.5-.7,3.33,3.33,0,0,0,2.1-1.3,3.8,3.8,0,0,0-.51-5.35A5.1,5.1,0,0,0,634.9,146.9Z" fill="#1c3553"/>
				</g>
				<g>
					<path d="M636,259a14,14,0,0,1,14-14h49a14,14,0,0,1,0,28H650A14,14,0,0,1,636,259Z" fill="#e5e5e5" opacity="0.6" style="isolation: isolate"/>
					<path d="M636,259a14,14,0,0,1,14-14h59a14,14,0,0,1,0,28H650A14,14,0,0,1,636,259Z" fill="#efefef"/>
					<path d="M705,257.3a1.36,1.36,0,0,0-.1-.6l-.3-.5-.5-.4h-1.2a3,3,0,0,0-.9.9c0,.2-.1.4-.1.6s.1.4.1.6l.4.5.5.3h1.2l.5-.3.3-.5A1.36,1.36,0,0,0,705,257.3Zm-3.2,5.7,2.1-3.1H703l-1-.2-.8-.6a4.4,4.4,0,0,1-.5-.9,1.82,1.82,0,0,1-.2-1,3.78,3.78,0,0,1,.2-1.2,3.37,3.37,0,0,1,.6-.9,2.11,2.11,0,0,1,1-.6,2.6,2.6,0,0,1,1.2-.2,2.35,2.35,0,0,1,1.2.2l1,.5a2.37,2.37,0,0,1,.6.9,2.76,2.76,0,0,1,.2,1.3,2.6,2.6,0,0,1-.2,1.2,3.79,3.79,0,0,1-.6,1.1l-2.1,3.4Zm-3.9-5.7a1.36,1.36,0,0,0-.1-.6l-.3-.5-.5-.4h-1.2a3,3,0,0,0-.9.9c0,.2-.1.4-.1.6s.1.4.1.6l.4.5.5.3H697l.5-.3.3-.5a1.36,1.36,0,0,0,.1-.6Zm-3.2,5.7,2.1-3.1h-.9l-1-.2-.8-.6a4.4,4.4,0,0,1-.5-.9,1.82,1.82,0,0,1-.2-1,3.78,3.78,0,0,1,.2-1.2,3.37,3.37,0,0,1,.6-.9,2.11,2.11,0,0,1,1-.6,2.6,2.6,0,0,1,1.2-.2,2.35,2.35,0,0,1,1.2.2l1,.5a2.37,2.37,0,0,1,.6.9,2.76,2.76,0,0,1,.2,1.3,2.6,2.6,0,0,1-.2,1.2,3.79,3.79,0,0,1-.6,1.1l-2.1,3.4Zm-3.9-5.7a1.36,1.36,0,0,0-.1-.6l-.3-.5-.5-.4h-1.2a3,3,0,0,0-.9.9c0,.2-.1.4-.1.6s.1.4.1.6l.4.5.5.3h1.2l.5-.3.3-.5a1.36,1.36,0,0,0,.1-.6Zm-3.2,5.7,2.1-3.1h-.9l-1-.2-.8-.6a4.4,4.4,0,0,1-.5-.9,1.82,1.82,0,0,1-.2-1,3.78,3.78,0,0,1,.2-1.2,3.37,3.37,0,0,1,.6-.9,2.11,2.11,0,0,1,1-.6,3.66,3.66,0,0,1,2.4,0l1,.5a4.86,4.86,0,0,1,.6.9,2.76,2.76,0,0,1,.2,1.3,2.6,2.6,0,0,1-.2,1.2,3.79,3.79,0,0,1-.6,1.1l-2.1,3.4Zm-4.6-.8a1,1,0,0,1,1-1,1.09,1.09,0,0,1,.7.3,1.42,1.42,0,0,1,.2.6,1.32,1.32,0,0,1-.2.7,1.09,1.09,0,0,1-.7.3h-.4l-.3-.2c-.1-.1-.2-.2-.2-.3a.42.42,0,0,1-.1-.4Zm-6-3.4a3.41,3.41,0,0,0,.1.9,4.22,4.22,0,0,0,.2,1,3.47,3.47,0,0,0,.5.8,1.19,1.19,0,0,0,.9.3,1.12,1.12,0,0,0,.8-.3,3.47,3.47,0,0,0,.5-.8,4.22,4.22,0,0,0,.2-1,3.41,3.41,0,0,0,.1-.9,3.74,3.74,0,0,0-.1-1,4.22,4.22,0,0,0-.2-1,1.84,1.84,0,0,0-.5-.7.89.89,0,0,0-.8-.4,1,1,0,0,0-.9.4,1.84,1.84,0,0,0-.5.7,4.22,4.22,0,0,0-.2,1,3.74,3.74,0,0,0-.1,1Zm-1.4,0a9.88,9.88,0,0,1,.1-1.8,5.74,5.74,0,0,1,.5-1.2,1.1,1.1,0,0,1,.6-.7l.6-.5.7-.2h1.1l.7.2.6.5a1.1,1.1,0,0,1,.6.7,5.74,5.74,0,0,1,.5,1.2,9.88,9.88,0,0,1,.1,1.8,8.78,8.78,0,0,1-.1,1.7,3.44,3.44,0,0,1-.5,1.2,1.64,1.64,0,0,1-.6.8l-.6.4-.7.2h-1.1l-.7-.2-.6-.4a1.64,1.64,0,0,1-.6-.8,3.44,3.44,0,0,1-.5-1.2,8.78,8.78,0,0,1-.1-1.7Zm-4.4-2.6-1.6,1.4-.8-1,2.5-2.1h1.4V263h-1.5Z" fill="#1c3553"/>
					<path d="M654.9,257.9l-2.1-1a3.39,3.39,0,0,1-1.2-.6,1,1,0,0,1,.3-1.8l.7-.2a5.27,5.27,0,0,1,2.7.6c.4.2.5.1.7-.3a6.58,6.58,0,0,0,.4-1.5.4.4,0,0,0-.14-.55.43.43,0,0,0-.16-.05,5.37,5.37,0,0,0-1.7-.5c-.8-.1-.8-.1-.8-.9s0-1.1-1.1-1.1H652c-.5,0-.5.1-.6.6v.7c0,.7,0,.7-.6.9a3.7,3.7,0,0,0-2.7,3.4,3.51,3.51,0,0,0,2,3.3,17.35,17.35,0,0,0,2.4,1.1l.9.5a1.3,1.3,0,0,1,.19,1.83,1.28,1.28,0,0,1-.49.37,4.13,4.13,0,0,1-1.6.2,6.31,6.31,0,0,1-2.3-.8c-.5-.2-.6-.1-.8.4l-.3,1.2c-.2.6-.1.7.4,1a7.64,7.64,0,0,0,2.2.6c.5.1.6.1.6.7v.8c0,.4.1.6.5.6H653c.3,0,.5-.2.5-.6v-1.1a.7.7,0,0,1,.5-.7,3.33,3.33,0,0,0,2.1-1.3,3.8,3.8,0,0,0-.51-5.35A5.1,5.1,0,0,0,654.9,257.9Z" fill="#1c3553"/>
					<path d="M654.9,257.9l-2.1-1a3.39,3.39,0,0,1-1.2-.6,1,1,0,0,1,.3-1.8l.7-.2a5.27,5.27,0,0,1,2.7.6c.4.2.5.1.7-.3a6.58,6.58,0,0,0,.4-1.5.4.4,0,0,0-.14-.55.43.43,0,0,0-.16-.05,5.37,5.37,0,0,0-1.7-.5c-.8-.1-.8-.1-.8-.9s0-1.1-1.1-1.1H652c-.5,0-.5.1-.6.6v.7c0,.7,0,.7-.6.9a3.7,3.7,0,0,0-2.7,3.4,3.51,3.51,0,0,0,2,3.3,17.35,17.35,0,0,0,2.4,1.1l.9.5a1.3,1.3,0,0,1,.19,1.83,1.28,1.28,0,0,1-.49.37,4.13,4.13,0,0,1-1.6.2,6.31,6.31,0,0,1-2.3-.8c-.5-.2-.6-.1-.8.4l-.3,1.2c-.2.6-.1.7.4,1a7.64,7.64,0,0,0,2.2.6c.5.1.6.1.6.7v.8c0,.4.1.6.5.6H653c.3,0,.5-.2.5-.6v-1.1a.7.7,0,0,1,.5-.7,3.33,3.33,0,0,0,2.1-1.3,3.8,3.8,0,0,0-.51-5.35A5.1,5.1,0,0,0,654.9,257.9Z" fill="#1c3553"/>
				</g>
				<g>
					<path d="M433,281a14,14,0,0,1,14-14h49a14,14,0,0,1,0,28H447A14,14,0,0,1,433,281Z" fill="#efefef"/>
					<path d="M491.8,280.8v.9a5.76,5.76,0,0,0,.3,1,3,3,0,0,0,.4.8,1.4,1.4,0,0,0,.9.3,1.19,1.19,0,0,0,.9-.3,3.47,3.47,0,0,0,.5-.8c.1-.4.1-.7.2-1v-1.9c-.1-.3-.1-.6-.2-1a1.84,1.84,0,0,0-.5-.7,1,1,0,0,0-.9-.4,1.08,1.08,0,0,0-.9.4,1.64,1.64,0,0,0-.4.7,5.76,5.76,0,0,0-.3,1Zm-1.5,0a9,9,0,0,1,.2-1.8,5.64,5.64,0,0,1,.4-1.2,2.24,2.24,0,0,1,.6-.7l.7-.5.6-.2H494l.6.2a1.84,1.84,0,0,1,.7.5,2.24,2.24,0,0,1,.6.7,5.64,5.64,0,0,1,.4,1.2,9,9,0,0,1,.2,1.8,8.87,8.87,0,0,1-.2,1.7,3.4,3.4,0,0,1-.4,1.2l-.6.8-.7.4-.6.2h-1.2l-.6-.2-.7-.4-.6-.8a3.4,3.4,0,0,1-.4-1.2A8.87,8.87,0,0,1,490.3,280.8Zm-1.5-3h-3.4v1.7h.9l1.1.2a1.51,1.51,0,0,1,.9.6,2.37,2.37,0,0,1,.6.8,4.86,4.86,0,0,1,.2,1.2,3.78,3.78,0,0,1-.2,1.2,3.47,3.47,0,0,1-.7,1,2.94,2.94,0,0,1-1,.5,2.16,2.16,0,0,1-1.2.2,3.17,3.17,0,0,1-1.7-.4,2.67,2.67,0,0,1-1-1.5l1.5-.4a1.84,1.84,0,0,0,.5.7,1.19,1.19,0,0,0,.9.3h.6l.4-.3.4-.5c0-.2.1-.4.1-.6a1.32,1.32,0,0,0-.2-.7l-.4-.5a.89.89,0,0,0-.7-.3h-1.7l-.8.3v-4.6h4.8Zm-9.1.7h-.1l-2.1,3.5h2.2Zm0,4.8h-3.6v-1.5l3.4-5.3h1.6V282h1.2v1.3h-1.2V285h-1.4Zm-6.8.9a1,1,0,0,1,1-1,.69.69,0,0,1,.6.3.91.91,0,0,1,.3.6.89.89,0,0,1-.3.7.69.69,0,0,1-.6.3h-.4l-.3-.2c-.1-.1-.2-.2-.2-.3a.42.42,0,0,1-.1-.4Zm-5.9-2a1.42,1.42,0,0,0,.2.6.5.5,0,0,0,.3.5,1,1,0,0,0,.5.4h1.2l.5-.4.3-.5a1.77,1.77,0,0,0,0-1.2l-.3-.5-.5-.3H468l-.5.3c-.2.2-.3.3-.3.5a1.42,1.42,0,0,0-.2.6Zm3.2-5.7-2,3.1h.8l1.1.2.8.6a4.4,4.4,0,0,1,.5.9,3.78,3.78,0,0,1,.2,1,4.08,4.08,0,0,1-.9,2.2l-.9.5a2.6,2.6,0,0,1-1.2.2h-1.3l-.9-.6-.7-.9a4,4,0,0,1,0-2.5l.6-1.1,2.2-3.4Z" fill="#1c3553"/>
					<path d="M455.6,285.7a.41.41,0,0,0-.1-.3h-1.8a4.46,4.46,0,0,1-2.3-.7,4.24,4.24,0,0,1-1.5-1.8H454c0-.1,0-.1.1-.2l.2-1.1a.41.41,0,0,0-.1-.3c0-.1-.1-.1-.2-.1h-4.5a1.7,1.7,0,0,1,0-1h4.8a.29.29,0,0,0,.3-.3l.2-1.1c.1-.1,0-.2,0-.3h-4.9a3.5,3.5,0,0,1,1.5-1.7,3.42,3.42,0,0,1,2.2-.7h1.6l.2-.2.4-1.6v-.2l-.2-.2-2-.2a6.31,6.31,0,0,0-3.9,1.3,5.73,5.73,0,0,0-2.4,3.3h-1.2V280a.41.41,0,0,0,.1.3h.9v1h-.9v1.3a.41.41,0,0,0,.1.3h1.2a6.33,6.33,0,0,0,2.3,3.4,6.41,6.41,0,0,0,4,1.3H456c.1,0,.1-.1.2-.2v-.2Z" fill="#1c3553"/>
				</g>
				<g>
					<path d="M507,127a14,14,0,0,1,14-14h49a14,14,0,0,1,0,28H521A14,14,0,0,1,507,127Z" fill="#e5e5e5" opacity="0.6" style="isolation: isolate"/>
					<path d="M565.8,126.8v.9a5.76,5.76,0,0,0,.3,1,3,3,0,0,0,.4.8,1.4,1.4,0,0,0,.9.3,1.19,1.19,0,0,0,.9-.3,3.47,3.47,0,0,0,.5-.8c.1-.4.1-.7.2-1v-1.9c-.1-.3-.1-.6-.2-1a1.84,1.84,0,0,0-.5-.7,1,1,0,0,0-.9-.4,1.08,1.08,0,0,0-.9.4,1.64,1.64,0,0,0-.4.7,5.76,5.76,0,0,0-.3,1Zm-1.5,0a9,9,0,0,1,.2-1.8,5.64,5.64,0,0,1,.4-1.2,2.24,2.24,0,0,1,.6-.7l.7-.5.6-.2H568l.6.2a1.84,1.84,0,0,1,.7.5,2.24,2.24,0,0,1,.6.7,5.64,5.64,0,0,1,.4,1.2,9,9,0,0,1,.2,1.8,8.87,8.87,0,0,1-.2,1.7,3.4,3.4,0,0,1-.4,1.2l-.6.8-.7.4-.6.2h-1.2l-.6-.2-.7-.4-.6-.8a3.4,3.4,0,0,1-.4-1.2A8.87,8.87,0,0,1,564.3,126.8Zm-2.5-1.5a1.36,1.36,0,0,0-.1-.6l-.3-.5-.5-.4h-1.2a3,3,0,0,0-.9.9c0,.2-.1.4-.1.6s.1.4.1.6l.4.5.5.3h1.2l.5-.3.3-.5A1.36,1.36,0,0,0,561.8,125.3Zm-3.2,5.7,2.1-3.1h-.9l-1-.2-.8-.6a4.4,4.4,0,0,1-.5-.9,1.82,1.82,0,0,1-.2-1,3.78,3.78,0,0,1,.2-1.2,3.37,3.37,0,0,1,.6-.9,2.11,2.11,0,0,1,1-.6,3.66,3.66,0,0,1,2.4,0l1,.5a4.86,4.86,0,0,1,.6.9,2.76,2.76,0,0,1,.2,1.3,2.6,2.6,0,0,1-.2,1.2,3.79,3.79,0,0,1-.6,1.1l-2.1,3.4Zm-2.9-7.2h-3.4v1.7h.9l1.1.2a1.54,1.54,0,0,1,.9.6,2.37,2.37,0,0,1,.6.8,4.86,4.86,0,0,1,.2,1.2,3.78,3.78,0,0,1-.2,1.2,3.47,3.47,0,0,1-.7,1l-1,.5a2.16,2.16,0,0,1-1.2.2,3.17,3.17,0,0,1-1.7-.4,2.67,2.67,0,0,1-1-1.5l1.5-.4a1.84,1.84,0,0,0,.5.7,1.19,1.19,0,0,0,.9.3h.6l.4-.3.4-.5c0-.2.1-.4.1-.6a1.32,1.32,0,0,0-.2-.7l-.4-.5a.89.89,0,0,0-.7-.3h-1.7l-.8.3v-4.6h4.8Zm-8.8,6.4a1,1,0,0,1,1-1,.69.69,0,0,1,.6.3.91.91,0,0,1,.3.6.89.89,0,0,1-.3.7.69.69,0,0,1-.6.3h-.4l-.3-.2-.2-.3a.42.42,0,0,1-.1-.4Zm-1.8-6.4h-3.5v1.7h.9l1.2.2.9.6a2.3,2.3,0,0,1,.5.8,2.6,2.6,0,0,1,.2,1.2,2.16,2.16,0,0,1-.2,1.2,3.29,3.29,0,0,1-.6,1l-1,.5a2.6,2.6,0,0,1-1.2.2,2.45,2.45,0,0,1-2.8-1.9l1.5-.4a1.84,1.84,0,0,0,.5.7l.9.3h.6l.5-.3.3-.5a1.36,1.36,0,0,0,.1-.6.79.79,0,0,0-.2-.7,1,1,0,0,0-.4-.5.91.91,0,0,0-.6-.3H541l-.9.3v-4.6H545Z" fill="#1c3553"/>
					<path d="M529.6,131.7a.41.41,0,0,0-.1-.3h-1.8a4.46,4.46,0,0,1-2.3-.7,4.24,4.24,0,0,1-1.5-1.8H528v-.2l.2-1.1a.41.41,0,0,0-.1-.3h-4.7a1.7,1.7,0,0,1,0-1h4.8a.29.29,0,0,0,.3-.3l.2-1.1c.1-.1,0-.2,0-.3h-4.9a3.5,3.5,0,0,1,1.5-1.7,3.42,3.42,0,0,1,2.2-.7h1.6l.2-.2.4-1.6v-.2l-.2-.2-2-.2a6.31,6.31,0,0,0-3.9,1.3,5.73,5.73,0,0,0-2.4,3.3h-1c-.1,0-.2,0-.2.1s-.1.1-.1.2V126a.41.41,0,0,0,.1.3h.9v1H520c-.1.1-.1.1-.1.2v1.1a.41.41,0,0,0,.1.3h1.2a6.33,6.33,0,0,0,2.3,3.4,6.41,6.41,0,0,0,4,1.3h2.2l.2-.2v-.2Z" fill="#1c3553"/>
					<path d="M507,127a14,14,0,0,1,14-14h49a14,14,0,0,1,0,28H521A14,14,0,0,1,507,127Z" fill="#efefef"/>
					<path d="M565.8,126.8v.9a5.76,5.76,0,0,0,.3,1,3,3,0,0,0,.4.8,1.4,1.4,0,0,0,.9.3,1.19,1.19,0,0,0,.9-.3,3.47,3.47,0,0,0,.5-.8c.1-.4.1-.7.2-1v-1.9c-.1-.3-.1-.6-.2-1a1.84,1.84,0,0,0-.5-.7,1,1,0,0,0-.9-.4,1.08,1.08,0,0,0-.9.4,1.64,1.64,0,0,0-.4.7,5.76,5.76,0,0,0-.3,1Zm-1.5,0a9,9,0,0,1,.2-1.8,5.64,5.64,0,0,1,.4-1.2,2.24,2.24,0,0,1,.6-.7l.7-.5.6-.2H568l.6.2a1.84,1.84,0,0,1,.7.5,2.24,2.24,0,0,1,.6.7,5.64,5.64,0,0,1,.4,1.2,9,9,0,0,1,.2,1.8,8.87,8.87,0,0,1-.2,1.7,3.4,3.4,0,0,1-.4,1.2l-.6.8-.7.4-.6.2h-1.2l-.6-.2-.7-.4-.6-.8a3.4,3.4,0,0,1-.4-1.2A8.87,8.87,0,0,1,564.3,126.8Zm-2.5-1.5a1.36,1.36,0,0,0-.1-.6l-.3-.5-.5-.4h-1.2a3,3,0,0,0-.9.9c0,.2-.1.4-.1.6s.1.4.1.6l.4.5.5.3h1.2l.5-.3.3-.5A1.36,1.36,0,0,0,561.8,125.3Zm-3.2,5.7,2.1-3.1h-.9l-1-.2-.8-.6a4.4,4.4,0,0,1-.5-.9,1.82,1.82,0,0,1-.2-1,3.78,3.78,0,0,1,.2-1.2,3.37,3.37,0,0,1,.6-.9,2.11,2.11,0,0,1,1-.6,3.66,3.66,0,0,1,2.4,0l1,.5a4.86,4.86,0,0,1,.6.9,2.76,2.76,0,0,1,.2,1.3,2.6,2.6,0,0,1-.2,1.2,3.79,3.79,0,0,1-.6,1.1l-2.1,3.4Zm-2.9-7.2h-3.4v1.7h.9l1.1.2a1.54,1.54,0,0,1,.9.6,2.37,2.37,0,0,1,.6.8,4.86,4.86,0,0,1,.2,1.2,3.78,3.78,0,0,1-.2,1.2,3.47,3.47,0,0,1-.7,1l-1,.5a2.16,2.16,0,0,1-1.2.2,3.17,3.17,0,0,1-1.7-.4,2.67,2.67,0,0,1-1-1.5l1.5-.4a1.84,1.84,0,0,0,.5.7,1.19,1.19,0,0,0,.9.3h.6l.4-.3.4-.5c0-.2.1-.4.1-.6a1.32,1.32,0,0,0-.2-.7l-.4-.5a.89.89,0,0,0-.7-.3h-1.7l-.8.3v-4.6h4.8Zm-8.8,6.4a1,1,0,0,1,1-1,.69.69,0,0,1,.6.3.91.91,0,0,1,.3.6.89.89,0,0,1-.3.7.69.69,0,0,1-.6.3h-.4l-.3-.2-.2-.3a.42.42,0,0,1-.1-.4Zm-1.8-6.4h-3.5v1.7h.9l1.2.2.9.6a2.3,2.3,0,0,1,.5.8,2.6,2.6,0,0,1,.2,1.2,2.16,2.16,0,0,1-.2,1.2,3.29,3.29,0,0,1-.6,1l-1,.5a2.6,2.6,0,0,1-1.2.2,2.45,2.45,0,0,1-2.8-1.9l1.5-.4a1.84,1.84,0,0,0,.5.7l.9.3h.6l.5-.3.3-.5a1.36,1.36,0,0,0,.1-.6.79.79,0,0,0-.2-.7,1,1,0,0,0-.4-.5.91.91,0,0,0-.6-.3H541l-.9.3v-4.6H545Z" fill="#1c3553"/>
					<path d="M529.6,131.7a.41.41,0,0,0-.1-.3h-1.8a4.46,4.46,0,0,1-2.3-.7,4.24,4.24,0,0,1-1.5-1.8H528v-.2l.2-1.1a.41.41,0,0,0-.1-.3h-4.7a1.7,1.7,0,0,1,0-1h4.8a.29.29,0,0,0,.3-.3l.2-1.1c.1-.1,0-.2,0-.3h-4.9a3.5,3.5,0,0,1,1.5-1.7,3.42,3.42,0,0,1,2.2-.7h1.6l.2-.2.4-1.6v-.2l-.2-.2-2-.2a6.31,6.31,0,0,0-3.9,1.3,5.73,5.73,0,0,0-2.4,3.3h-1c-.1,0-.2,0-.2.1s-.1.1-.1.2V126a.41.41,0,0,0,.1.3h.9v1H520c-.1.1-.1.1-.1.2v1.1a.41.41,0,0,0,.1.3h1.2a6.33,6.33,0,0,0,2.3,3.4,6.41,6.41,0,0,0,4,1.3h2.2l.2-.2v-.2Z" fill="#1c3553"/>
				</g>
				<g>
					<path d="M59,289a14,14,0,0,1,14-14h79a14,14,0,0,1,0,28H73A14,14,0,0,1,59,289Z" fill="#efefef"/>
					<path d="M147.6,289.4l-3.2-4.9h1.9l2.1,3.4,2.1-3.4h1.8l-3.2,4.9V293h-1.5ZM136,284.5h2l4.1,6.3h0v-6.3h1.5V293h-1.9l-4.2-6.5h0V293H136Zm-4,5.3-1.3-3.5-1.4,3.5Zm-2-5.3h1.3L135,293h-1.7l-.8-1.9h-3.7L128,293h-1.7Zm-13.8,0h2.3l2.3,6,2.3-6h2.3V293h-1.5v-7.1h0l-2.6,7.1h-1l-2.6-7.1h0V293h-1.5Zm-4.9,3.6h.7l.5-.2a.89.89,0,0,0,.5-.3,1.32,1.32,0,0,0,.2-.7,1.42,1.42,0,0,0-.2-.6l-.4-.3-.6-.2h-1.9v2.3Zm-2.7-3.6h4.2l1,.4a1.88,1.88,0,0,1,.7.8,2,2,0,0,1,.2,1.1,2.12,2.12,0,0,1-.5,1.6,1.7,1.7,0,0,1-1.4.7L115,293h-1.8l-2-3.6h-1.1V293h-1.5Zm-7.3,0h5.6v1.4h-4.1V288h3.9v1.3h-3.9v2.3h4.3V293h-5.8Zm-1.8,7.9a8.15,8.15,0,0,1-3.5.8,4.83,4.83,0,0,1-1.8-.3,3.41,3.41,0,0,1-1.4-.9,7,7,0,0,1-1-1.4,4.83,4.83,0,0,1-.3-1.8,5.56,5.56,0,0,1,.3-1.9,7,7,0,0,1,1-1.4,3.41,3.41,0,0,1,1.4-.9,4.83,4.83,0,0,1,1.8-.3l1.8.2a3.84,3.84,0,0,1,1.5.9l-1.1,1.1a2.11,2.11,0,0,0-1-.6,3.66,3.66,0,0,0-2.4,0,2,2,0,0,0-.9.6,2.11,2.11,0,0,0-.6,1,2.6,2.6,0,0,0-.2,1.2,3,3,0,0,0,.2,1.3,1.78,1.78,0,0,0,.6.9,2.14,2.14,0,0,0,.9.7,2.6,2.6,0,0,0,1.2.2h1.1a1.62,1.62,0,0,0,.9-.3v-2H96.2V288h3.3Z" fill="#1c3553"/>
					<path d="M78,290.2a2.1,2.1,0,0,1-2.1-2.1h0a2.1,2.1,0,1,1,2.1,2.1Zm5.3.5a6,6,0,1,0-10.5.2h0l.6.8h0l3.6,3.7a1.3,1.3,0,0,0,1.83.17l.17-.17,3.6-3.7h0a.09.09,0,0,1,.1-.1h0a5.1,5.1,0,0,0,.5-.8A.24.24,0,0,0,83.3,290.7Z" fill="#1c3553" opacity="0.8" style="isolation: isolate"/>
				</g>
				<g>
					<path d="M183,242a14,14,0,0,1,14-14h66a14,14,0,0,1,0,28H197a14,14,0,0,1-14-14Z" fill="#efefef"/>
					<path d="M260.4,244.6h1.3l1.1-.5.7-.9a2.79,2.79,0,0,0,.3-1.3,5.15,5.15,0,0,0-.2-1.4l-.7-.9a2.94,2.94,0,0,0-1-.5h-2.7v5.7Zm-2.7-7.1h3.4a4.37,4.37,0,0,1,1.6.3,3.69,3.69,0,0,1,1.4.7,3.41,3.41,0,0,1,.9,1.4,3.66,3.66,0,0,1,.4,1.9,4.86,4.86,0,0,1-.4,1.8,5.37,5.37,0,0,1-1.1,1.4,3.51,3.51,0,0,1-1.5.7,3.9,3.9,0,0,1-1.5.3h-3.2Zm-9.5,0h2l4.1,6.3h0v-6.3h1.5V246h-1.9l-4.2-6.5h0V246h-1.5Zm-4,5.3-1.3-3.5-1.4,3.5Zm-1.9-5.3h1.3l3.6,8.5h-1.7l-.8-1.9H241l-.8,1.9h-1.6Zm-9,0h1.5v7.1h3.6V246h-5.1Zm-8.9,4.2a6.29,6.29,0,0,0,.2,1.3l.6.9.9.7a2.6,2.6,0,0,0,1.2.2,2.16,2.16,0,0,0,1.2-.2l1-.7a2.74,2.74,0,0,0,.5-.9,3.09,3.09,0,0,0,.3-1.3,2.77,2.77,0,0,0-.3-1.2,2.94,2.94,0,0,0-.5-1,3.29,3.29,0,0,0-1-.6,2.16,2.16,0,0,0-1.2-.2,2.6,2.6,0,0,0-1.2.2l-.9.6-.6,1A4.86,4.86,0,0,0,224.4,241.7Zm-1.6.1a4.14,4.14,0,0,1,.4-1.9,3.9,3.9,0,0,1,2.3-2.3l1.8-.3a4.83,4.83,0,0,1,1.8.3,3.84,3.84,0,0,1,1.5.9,3.41,3.41,0,0,1,.9,1.4,5,5,0,0,1,.3,1.8,5.56,5.56,0,0,1-.3,1.9,4.15,4.15,0,0,1-.9,1.4,5.44,5.44,0,0,1-1.5.9,4.83,4.83,0,0,1-1.8.3l-1.8-.3a3.9,3.9,0,0,1-2.3-2.3,3.31,3.31,0,0,1-.4-1.8Zm-4.4-.6h.6l.7-.2.5-.3a1.32,1.32,0,0,0,.2-.7.77.77,0,0,0-.2-.6c-.1-.2-.3-.3-.4-.4l-.6-.2h-1.7v2.4Zm-2.5-3.7H220l1,.4a2.83,2.83,0,0,1,.7.8,3.78,3.78,0,0,1,.2,1.2,5.18,5.18,0,0,1-.2,1.3,2.83,2.83,0,0,1-.8.7l-1.1.4h-2.3V246h-1.6Z" fill="#1c3553"/>
					<path d="M202,243.2a2.1,2.1,0,0,1-2.1-2.1h0a2.1,2.1,0,1,1,2.1,2.1Zm5.3.5a6,6,0,1,0-10.5.2h0l.6.8h0l3.6,3.7a1.3,1.3,0,0,0,1.83.17l.17-.17,3.6-3.7h0a.09.09,0,0,1,.1-.1h0a5.1,5.1,0,0,0,.5-.8A.24.24,0,0,0,207.3,243.7Z" fill="#1c3553" opacity="0.8" style="isolation: isolate"/>
				</g>
				<g>
					<path d="M37,155a14,14,0,0,1,14-14h79a14,14,0,0,1,0,28H51A14,14,0,0,1,37,155Z" fill="#efefef"/>
					<path d="M118.8,155.8l-1.3-3.5-1.3,3.5Zm-1.9-5.3h1.3l3.7,8.5h-1.8l-.8-1.9h-3.6l-.8,1.9h-1.7Zm-9.2,7.1H109l1.1-.5a2.9,2.9,0,0,0,1-2.2,5.15,5.15,0,0,0-.2-1.4l-.7-.9-1-.5h-2.7v5.7Zm-2.7-7.1h3.4a4.37,4.37,0,0,1,1.6.3,3.69,3.69,0,0,1,1.4.7,3.41,3.41,0,0,1,.9,1.4,3.66,3.66,0,0,1,.4,1.9,3.31,3.31,0,0,1-.4,1.8,3.77,3.77,0,0,1-1.1,1.4,3.69,3.69,0,0,1-1.4.7l-1.6.3H105Zm-4,5.3-1.3-3.5-1.3,3.5Zm-1.9-5.3h1.3l3.7,8.5h-1.7l-.8-1.9H97.9l-.8,1.9H95.4Zm-12.3,0h2l4.1,6.3H93v-6.3h1.5V159H92.6l-4.2-6.5h-.1V159H86.8Zm-4,5.3-1.3-3.5-1.3,3.5Zm-1.9-5.3h1.3l3.7,8.5H84.2l-.8-1.9H79.7l-.8,1.9H77.2Zm-5.1,2a2.92,2.92,0,0,0-.9-.7H74a2.6,2.6,0,0,0-1.2.2,2,2,0,0,0-.9.6,2.11,2.11,0,0,0-.6,1,2.6,2.6,0,0,0-.2,1.2,3,3,0,0,0,.2,1.3,1.78,1.78,0,0,0,.6.9,2.14,2.14,0,0,0,.9.7,2.6,2.6,0,0,0,1.2.2,1.82,1.82,0,0,0,1-.2,3.28,3.28,0,0,0,.9-.8l1.2.9a3.33,3.33,0,0,1-1.4,1.2,4.69,4.69,0,0,1-1.7.3,4.83,4.83,0,0,1-1.8-.3,3.41,3.41,0,0,1-1.4-.9,7,7,0,0,1-1-1.4,4.83,4.83,0,0,1-.3-1.8,5.56,5.56,0,0,1,.3-1.9,7,7,0,0,1,1-1.4,3.41,3.41,0,0,1,1.4-.9,4.83,4.83,0,0,1,1.8-.3,4,4,0,0,1,1.6.3,4.09,4.09,0,0,1,1.4,1Z" fill="#1c3553"/>
					<path d="M56,156.2a2.1,2.1,0,0,1-2.1-2.1h0a2.1,2.1,0,1,1,2.1,2.1Zm5.3.5a6,6,0,1,0-10.5.2h0l.6.8h0l3.6,3.7a1.3,1.3,0,0,0,1.83.17,1.37,1.37,0,0,0,.17-.17l3.6-3.7h0a.09.09,0,0,1,.1-.1h0a5.1,5.1,0,0,0,.5-.8A.24.24,0,0,0,61.3,156.7Z" fill="#1c3553" opacity="0.8" style="isolation: isolate"/>
				</g>
				<g>
					<path d="M707,125a14,14,0,0,1,14-14h84a14,14,0,0,1,0,28H721A14,14,0,0,1,707,125Z" fill="#efefef"/>
					<path d="M801.5,125.8l-1.3-3.5-1.3,3.5Zm-1.9-5.3h1.3l3.6,8.5h-1.7l-.8-1.9h-3.7l-.7,1.9h-1.7Zm-6.1,0H795V129h-1.5Zm-6.2,0h1.5v7.1h3.6V129h-5.1Zm-4,5.3-1.3-3.5-1.4,3.5Zm-1.9-5.3h1.3l3.6,8.5h-1.7l-.8-1.9h-3.7l-.7,1.9h-1.7Zm-7.7,3.6h.7l.6-.2c.2,0,.3-.2.4-.3a1.32,1.32,0,0,0,.2-.7,1.42,1.42,0,0,0-.2-.6l-.4-.3-.5-.2h-1.9v2.3Zm-2.7-3.6h4.2l1,.4a1.88,1.88,0,0,1,.7.8,2,2,0,0,1,.3,1.1,2.5,2.5,0,0,1-.5,1.6,2.11,2.11,0,0,1-1.5.7l2.3,3.8h-1.9l-1.9-3.6h-1.1V129H771Zm-5.1,1.4h-2.6v-1.4H770v1.4h-2.6V129h-1.5Zm-4.5.4a1,1,0,0,0-.6-.5h-1.4l-.4.2-.3.4a.63.63,0,0,0-.1.4.82.82,0,0,0,.3.7l.7.4,1,.3.9.5a1.81,1.81,0,0,1,.8.7,2.61,2.61,0,0,1,0,2.4,1.81,1.81,0,0,1-.7.8,1.59,1.59,0,0,1-.9.5,2.6,2.6,0,0,1-1.2.2L758,129a3,3,0,0,1-1.3-.9l1.1-1.1a2.37,2.37,0,0,0,.8.6,1.5,1.5,0,0,0,.9.2h.5l.5-.2c.2-.1.3-.3.4-.4a.87.87,0,0,0,.1-.5.82.82,0,0,0-.3-.7l-.7-.5-1-.3-1-.4-.7-.7a2.11,2.11,0,0,1-.3-1.2,3.78,3.78,0,0,1,.2-1.2l.7-.8,1-.5h1.2l1.3.2a2.66,2.66,0,0,1,1.1.7Zm-6,3.6a3.24,3.24,0,0,1-.3,1.4,2.28,2.28,0,0,1-.7,1,3,3,0,0,1-1.1.7l-1.3.2-1.4-.2-1.1-.7a3.47,3.47,0,0,1-.7-1,6.06,6.06,0,0,1-.2-1.4v-5.4h1.5v5.3a1.66,1.66,0,0,0,.1.7.91.91,0,0,0,.3.6,1,1,0,0,0,.6.5l.9.2.9-.2.6-.5.3-.6a1.66,1.66,0,0,0,.1-.7v-5.3h1.5Zm-10.8-.1-1.3-3.5-1.3,3.5Zm-1.9-5.3H744l3.7,8.5h-1.8l-.8-1.9h-3.6l-.8,1.9H739Z" fill="#1c3553"/>
					<path d="M726,126.2a2.1,2.1,0,1,1,2.1-2.1,2.1,2.1,0,0,1-2.1,2.1Zm5.3.5a6,6,0,1,0-10.5.2h0l.6.8h0l3.6,3.7a1.3,1.3,0,0,0,1.83.17,1.37,1.37,0,0,0,.17-.17l3.6-3.7h.1a5.1,5.1,0,0,0,.5-.8Z" fill="#1c3553" opacity="0.8" style="isolation: isolate"/>
				</g>
				<g>
					<path d="M206,113a14,14,0,0,1,14-14h51a14,14,0,0,1,0,28H220A14,14,0,0,1,206,113Z" fill="#efefef"/>
					<path d="M269,113.8l-1.4-3.5-1.3,3.5Zm-2-5.3h1.3L272,117h-1.7l-.8-1.9h-3.7L265,117h-1.7Zm-6.1,0h1.5V117h-1.5Zm-6.4,7.1h1.3l1.1-.5a2.9,2.9,0,0,0,1-2.2,5.15,5.15,0,0,0-.2-1.4l-.7-.9-1-.5h-2.6v5.7Zm-2.7-7.1h3.4a4.37,4.37,0,0,1,1.6.3,3.69,3.69,0,0,1,1.4.7,3.41,3.41,0,0,1,.9,1.4,3.66,3.66,0,0,1,.4,1.9,3.4,3.4,0,0,1-.4,1.8A3.77,3.77,0,0,1,258,116a3.69,3.69,0,0,1-1.4.7l-1.6.3h-3.2Zm-9.5,0h2l4.1,6.3h0v-6.3h1.5V117H248l-4.2-6.5h0V117h-1.5Zm-3.4,0h1.5V117h-1.5Z" fill="#1c3553"/>
					<path d="M225,114.2a2.1,2.1,0,0,1-2.1-2.1h0a2.1,2.1,0,1,1,2.1,2.1Zm5.3.5a6,6,0,1,0-10.5.2h0l.6.8h0l3.6,3.7a1.3,1.3,0,0,0,1.83.17l.17-.17,3.6-3.7h.1a5.1,5.1,0,0,0,.5-.8Z" fill="#1c3553" opacity="0.8" style="isolation: isolate"/>
				</g>
				<g>
					<path d="M571,306a14,14,0,0,1,14-14h42a14,14,0,0,1,0,28H585A14,14,0,0,1,571,306Z" fill="#efefef"/>
					<path d="M624.2,306.8l-1.3-3.5-1.4,3.5Zm-2-5.3h1.4l3.6,8.5h-1.7l-.8-1.9H621l-.8,1.9h-1.6Zm-5.4,1.8a1.84,1.84,0,0,0-.7-.5h-1.3l-.5.2-.3.4a.63.63,0,0,0-.1.4.82.82,0,0,0,.3.7l.7.4,1,.3a2.94,2.94,0,0,1,1,.5,1.58,1.58,0,0,1,.7.7,2.11,2.11,0,0,1,.3,1.2,3.78,3.78,0,0,1-.2,1.2,2.83,2.83,0,0,1-.7.8,1.91,1.91,0,0,1-1,.5,2.6,2.6,0,0,1-1.2.2l-1.5-.2a3.89,3.89,0,0,1-1.3-.9l1.2-1.1c.2.2.4.5.7.6a1.65,1.65,0,0,0,1,.2h.5l.5-.2.3-.4a.87.87,0,0,0,.1-.5.82.82,0,0,0-.3-.7l-.7-.5-1-.3a2.51,2.51,0,0,1-.9-.4,2.83,2.83,0,0,1-.8-.7,2.5,2.5,0,0,1,0-2.4,2.83,2.83,0,0,1,.7-.8l1-.5h1.1l1.3.2a2.86,2.86,0,0,1,1.2.7Zm-6,3.6a3.24,3.24,0,0,1-.3,1.4,3.47,3.47,0,0,1-.7,1,4.11,4.11,0,0,1-1.1.7l-1.4.2L606,310a4.11,4.11,0,0,1-1.1-.7,2.28,2.28,0,0,1-.7-1,3.24,3.24,0,0,1-.3-1.4v-5.4h1.5v5.3c0,.2.1.5.1.7l.3.6.6.5.9.2.9-.2a1,1,0,0,0,.6-.5.91.91,0,0,0,.3-.6,1.66,1.66,0,0,0,.1-.7v-5.3h1.6Z" fill="#1c3553"/>
					<path d="M590,307.2a2.1,2.1,0,1,1,2.1-2.1,2.1,2.1,0,0,1-2.1,2.1Zm5.3.5a6,6,0,1,0-10.5.2h0l.6.8h0l3.6,3.7a1.3,1.3,0,0,0,1.83.17,1.37,1.37,0,0,0,.17-.17l3.6-3.7h0a.09.09,0,0,1,.1-.1,5.1,5.1,0,0,0,.5-.8A.24.24,0,0,0,595.3,307.7Z" fill="#1c3553" opacity="0.8" style="isolation: isolate"/>
				</g>
				<g>
					<path d="M801,164a14,14,0,0,1,14-14h49a14,14,0,0,1,0,28H815A14,14,0,0,1,801,164Z" fill="#e5e5e5" opacity="0.6" style="isolation: isolate"/>
					<path d="M801,164a14,14,0,0,1,14-14h49a14,14,0,0,1,0,28H815A14,14,0,0,1,801,164Z" fill="#efefef"/>
					<path d="M860.5,162.9h1l.5-.2c.2,0,.3-.2.4-.3a1.36,1.36,0,0,0,.1-.6,1,1,0,0,0-.3-.8,1.19,1.19,0,0,0-.9-.3.79.79,0,0,0-.7.2,1.15,1.15,0,0,0-.5.7l-1.6-.4.4-.8a1.29,1.29,0,0,1,.7-.6,1.9,1.9,0,0,1,.8-.3h1.9l.9.4.6.7a3.78,3.78,0,0,1,.2,1,2,2,0,0,1-.4,1.3,2,2,0,0,1-1.1.6h0a1.9,1.9,0,0,1,1.3.7,2,2,0,0,1,.4,1.3,3.75,3.75,0,0,1-.2,1.1,2.83,2.83,0,0,1-.7.8,1.87,1.87,0,0,1-.9.5h-2.1a1.9,1.9,0,0,1-.8-.3l-.7-.6a3.64,3.64,0,0,1-.4-.9l1.5-.5a1.87,1.87,0,0,0,.5.9c.2.2.5.2.9.2h.6l.4-.3a.5.5,0,0,0,.3-.4,1.42,1.42,0,0,0,.2-.6.77.77,0,0,0-.2-.6.68.68,0,0,0-.5-.4l-.6-.2h-1Zm-6.2,1.2h-.5l-.5.2-.3.5a.74.74,0,0,0-.1.5,1.29,1.29,0,0,0,.4,1,1.4,1.4,0,0,0,2,0l0,0a1.29,1.29,0,0,0,.4-1,.68.68,0,0,0-.1-.5l-.3-.5-.4-.2Zm0-3.5a1.19,1.19,0,0,0-.9.3,1.12,1.12,0,0,0-.3.8,1.2,1.2,0,0,0,1.2,1.2h.4l.4-.2.3-.4a4,4,0,0,0,.1-.5.89.89,0,0,0-.4-.8,1.09,1.09,0,0,0-.8-.4Zm0-1.2h1l.8.4a1.93,1.93,0,0,1,.6.7,3.12,3.12,0,0,1,.2,1,2.77,2.77,0,0,1-.3,1.2,1.51,1.51,0,0,1-1,.7h0l.6.3a1,1,0,0,1,.5.4c.1.2.3.4.3.6a2.41,2.41,0,0,1,.2.8,2,2,0,0,1-.3,1.1,1.64,1.64,0,0,1-.6.8,1.87,1.87,0,0,1-.9.5h-2.2a1.87,1.87,0,0,1-.9-.5,1.64,1.64,0,0,1-.6-.8,2,2,0,0,1-.3-1.1,2.41,2.41,0,0,1,.2-.8c0-.2.2-.4.3-.6a1,1,0,0,1,.5-.4l.6-.3h0a1.83,1.83,0,0,1-1-.7,2.77,2.77,0,0,1-.3-1.2,3.12,3.12,0,0,1,.2-1,1.93,1.93,0,0,1,.6-.7l.8-.4Zm-5.6,2.9a1.36,1.36,0,0,0-.1-.6l-.3-.5-.5-.4h-1.2a3,3,0,0,0-.9.9c0,.2-.1.4-.1.6s.1.4.1.6l.4.5.5.3h1.2l.5-.3.3-.5a1.36,1.36,0,0,0,.1-.6Zm-3.2,5.7,2.1-3.1h-.9l-1-.2-.8-.6a4.4,4.4,0,0,1-.5-.9,1.82,1.82,0,0,1-.2-1,3.78,3.78,0,0,1,.2-1.2,3.37,3.37,0,0,1,.6-.9,2.11,2.11,0,0,1,1-.6,3.66,3.66,0,0,1,2.4,0l1,.5a4.86,4.86,0,0,1,.6.9,2.76,2.76,0,0,1,.2,1.3,2.6,2.6,0,0,1-.2,1.2,3.79,3.79,0,0,1-.6,1.1l-2.1,3.4Zm-4.6-.8a1,1,0,0,1,1-1,.69.69,0,0,1,.6.3.91.91,0,0,1,.3.6.89.89,0,0,1-.3.7.69.69,0,0,1-.6.3h-.4l-.3-.2-.2-.3a.42.42,0,0,1-.1-.4Zm-1.8-6.4h-3.5v1.7h.9l1.2.2.9.6a2.3,2.3,0,0,1,.5.8,2.6,2.6,0,0,1,.2,1.2,2.16,2.16,0,0,1-.2,1.2,3.29,3.29,0,0,1-.6,1l-1,.5a2.6,2.6,0,0,1-1.2.2,2.45,2.45,0,0,1-2.8-1.9l1.5-.4a1.84,1.84,0,0,0,.5.7l.9.3h.6l.5-.3.3-.5a1.36,1.36,0,0,0,.1-.6.79.79,0,0,0-.2-.7,1,1,0,0,0-.4-.5.91.91,0,0,0-.6-.3H835l-.9.3v-4.6H839Z" fill="#1c3553"/>
					<path d="M823.8,167.5l-.4.7a2.9,2.9,0,0,1-1.8,1.1,2.49,2.49,0,0,1-1.9-.5l-1.4-.8a6,6,0,0,0,.8-2.9v-.2h3.5v-2.6h-4.2a3.31,3.31,0,0,1-.9-2.1,2.59,2.59,0,0,1,2.6-2.6,2.8,2.8,0,0,1,2.5,1.8l2.5-.8a6.15,6.15,0,0,0-1.9-2.6,5.63,5.63,0,0,0-3.1-1,5.2,5.2,0,0,0-5.2,5.2h0a5.2,5.2,0,0,0,.4,2.1H813v2.6h3.5v.2a3.19,3.19,0,0,1-1.9,2.8,4.79,4.79,0,0,0-2,1.4l-.6.6,1.9,1.8.6-.6a1.64,1.64,0,0,1,.8-.6h.8a2.52,2.52,0,0,1,2,.6h0a5.1,5.1,0,0,0,3.2,1h.6a5.11,5.11,0,0,0,3.6-2.2l.5-.7Z" fill="#1c3553"/>
				</g>
				<g>
					<path d="M63,233a14,14,0,0,1,14-14h49a14,14,0,0,1,0,28H77A14,14,0,0,1,63,233Z" fill="#e5e5e5" opacity="0.6" style="isolation: isolate"/>
					<path d="M63,233a14,14,0,0,1,14-14h49a14,14,0,0,1,0,28H77A14,14,0,0,1,63,233Z" fill="#efefef"/>
					<path d="M125.9,229.8h-3.4v1.7h.9l1.1.2a1.51,1.51,0,0,1,.9.6,1.64,1.64,0,0,1,.6.8,4.86,4.86,0,0,1,.2,1.2,3.78,3.78,0,0,1-.2,1.2,3.47,3.47,0,0,1-.7,1,2.94,2.94,0,0,1-1,.5,2.16,2.16,0,0,1-1.2.2,3.36,3.36,0,0,1-1.7-.4,2.67,2.67,0,0,1-1-1.5l1.5-.4a1.84,1.84,0,0,0,.5.7,1.19,1.19,0,0,0,.9.3h.6l.4-.3.4-.5c0-.2.1-.4.1-.6a1.32,1.32,0,0,0-.2-.7l-.4-.5a.89.89,0,0,0-.7-.3h-1.7l-.8.3v-4.6h4.8Zm-12.4,5.7,3.3-3.2.3-.3a.48.48,0,0,0,.2-.4l.3-.3v-.5a.63.63,0,0,0-.1-.4.48.48,0,0,0-.2-.4l-.4-.2h-.5a1.19,1.19,0,0,0-.9.3,1.29,1.29,0,0,0-.4.9h-1.5a2,2,0,0,1,.3-1.1,1.29,1.29,0,0,1,.6-.7l.8-.5h2.2l.8.5a1.29,1.29,0,0,1,.6.7,2,2,0,0,1,.2,1.1,3.24,3.24,0,0,1-.3,1.4l-1,1.1-2.6,2.4h3.9V237h-5.6Zm-7.3-7h5.7v1.3l-3.4,7.2h-1.7l3.5-7.1h-4.1Zm-3.3,7.7a1,1,0,0,1,1-1,.69.69,0,0,1,.6.3.91.91,0,0,1,.3.6.89.89,0,0,1-.3.7.69.69,0,0,1-.6.3h-.4l-.3-.2-.2-.3A.42.42,0,0,1,102.9,236.2Zm-5.9-2a1.42,1.42,0,0,0,.2.6.5.5,0,0,0,.3.5,1,1,0,0,0,.5.4h1.2l.5-.4.3-.5a1.89,1.89,0,0,0,0-1.2l-.3-.5-.5-.3H98l-.5.3c-.2.2-.3.3-.3.5A1.42,1.42,0,0,0,97,234.2Zm3.2-5.7-2,3.1H99l1.1.2.8.6a4.4,4.4,0,0,1,.5.9,3.78,3.78,0,0,1,.2,1,4.08,4.08,0,0,1-.9,2.2l-.9.5a2.6,2.6,0,0,1-1.2.2H97.3l-.9-.6-.7-.9a4,4,0,0,1,0-2.5l.6-1.1,2.2-3.4Z" fill="#1c3553"/>
					<path d="M85.8,236.5l-.4.7a2.9,2.9,0,0,1-1.8,1.1,2.49,2.49,0,0,1-1.9-.5l-1.4-.8a6,6,0,0,0,.8-2.9v-.2h3.5v-2.6H80.4a3.31,3.31,0,0,1-.9-2.1,2.59,2.59,0,0,1,2.6-2.6h0a2.8,2.8,0,0,1,2.5,1.8l2.5-.8a6.15,6.15,0,0,0-1.9-2.6,5.63,5.63,0,0,0-3.1-1,5.28,5.28,0,0,0-4.8,7.3H75v2.6h3.5v.2a3.19,3.19,0,0,1-1.9,2.8,4.79,4.79,0,0,0-2,1.4l-.6.6,1.9,1.8.6-.6a1.64,1.64,0,0,1,.8-.6h.8a2.52,2.52,0,0,1,2,.6h0a5.1,5.1,0,0,0,3.2,1h.6a5.11,5.11,0,0,0,3.6-2.2l.5-.7Z" fill="#1c3553"/>
				</g>
				<g>
					<path d="M52,337a14,14,0,0,1,14-14h49a14,14,0,0,1,0,28H66A14,14,0,0,1,52,337Z" fill="#e5e5e5" opacity="0.6" style="isolation: isolate"/>
					<path d="M52,337a14,14,0,0,1,14-14h49a14,14,0,0,1,0,28H66A14,14,0,0,1,52,337Z" fill="#efefef"/>
					<path d="M111.5,335.9h1l.5-.2c.2,0,.3-.2.4-.3a1.36,1.36,0,0,0,.1-.6,1,1,0,0,0-.3-.8,1.19,1.19,0,0,0-.9-.3.79.79,0,0,0-.7.2,1.15,1.15,0,0,0-.5.7l-1.6-.4a6,6,0,0,1,.4-.8,1.29,1.29,0,0,1,.7-.6,1.9,1.9,0,0,1,.8-.3h1.9l.9.4.6.7a3.78,3.78,0,0,1,.2,1,2,2,0,0,1-.4,1.3,2,2,0,0,1-1.1.6h0a1.9,1.9,0,0,1,1.3.7,2,2,0,0,1,.4,1.3,3.75,3.75,0,0,1-.2,1.1,2.83,2.83,0,0,1-.7.8,1.87,1.87,0,0,1-.9.5h-2.1a1.9,1.9,0,0,1-.8-.3l-.7-.6a3.64,3.64,0,0,1-.4-.9l1.5-.5a1.87,1.87,0,0,0,.5.9c.2.2.5.2.9.2h.6l.4-.3a.5.5,0,0,0,.3-.4,1.42,1.42,0,0,0,.2-.6.77.77,0,0,0-.2-.6.68.68,0,0,0-.5-.4l-.6-.2h-1Zm-6.2,1.2h-.5l-.5.2-.3.5a.68.68,0,0,0-.1.5,1.29,1.29,0,0,0,.4,1,1.4,1.4,0,0,0,2,0l0,0a1.29,1.29,0,0,0,.4-1,.68.68,0,0,0-.1-.5l-.3-.5-.4-.2Zm0-3.5a1.19,1.19,0,0,0-.9.3,1.12,1.12,0,0,0-.3.8,1.2,1.2,0,0,0,1.2,1.2h.4a.48.48,0,0,0,.4-.2l.3-.4a4,4,0,0,0,.1-.5.89.89,0,0,0-.4-.8A1.09,1.09,0,0,0,105.3,333.6Zm0-1.2h1l.8.4a1.93,1.93,0,0,1,.6.7,3.12,3.12,0,0,1,.2,1,2.77,2.77,0,0,1-.3,1.2,1.51,1.51,0,0,1-1,.7h0l.6.3a1,1,0,0,1,.5.4c.1.2.3.4.3.6a2.41,2.41,0,0,1,.2.8,2,2,0,0,1-.3,1.1,1.64,1.64,0,0,1-.6.8,1.87,1.87,0,0,1-.9.5h-2.2a1.87,1.87,0,0,1-.9-.5,1.64,1.64,0,0,1-.6-.8,2,2,0,0,1-.3-1.1,2.41,2.41,0,0,1,.2-.8c0-.2.2-.4.3-.6a1,1,0,0,1,.5-.4l.6-.3h0a1.83,1.83,0,0,1-1-.7,2.77,2.77,0,0,1-.3-1.2,3.12,3.12,0,0,1,.2-1,1.93,1.93,0,0,1,.6-.7l.8-.4Zm-9.9,7.1,3.3-3.2.3-.3a.48.48,0,0,0,.2-.4l.3-.3v-.5a.63.63,0,0,0-.1-.4.48.48,0,0,0-.2-.4l-.4-.2h-.5a1.19,1.19,0,0,0-.9.3,1.29,1.29,0,0,0-.4.9H95.5a2,2,0,0,1,.3-1.1,1.29,1.29,0,0,1,.6-.7l.8-.5h2.2l.8.5a1.29,1.29,0,0,1,.6.7,2,2,0,0,1,.2,1.1,3.24,3.24,0,0,1-.3,1.4l-1,1.1-2.6,2.4H101V341H95.4Zm-3.5.7a1,1,0,0,1,1-1,.69.69,0,0,1,.6.3.91.91,0,0,1,.3.6.89.89,0,0,1-.3.7.69.69,0,0,1-.6.3h-.4l-.3-.2c-.1-.1-.2-.2-.2-.3A.42.42,0,0,1,91.9,340.2Zm-5.9-2a1.42,1.42,0,0,0,.2.6.5.5,0,0,0,.3.5,1,1,0,0,0,.5.4h1.2l.5-.4.3-.5a1.77,1.77,0,0,0,0-1.2l-.3-.5-.5-.3H87l-.5.3c-.2.2-.3.3-.3.5A1.42,1.42,0,0,0,86,338.2Zm3.2-5.7-2,3.1H88l1.1.2.8.6a4.4,4.4,0,0,1,.5.9,3.78,3.78,0,0,1,.2,1,4.08,4.08,0,0,1-.9,2.2l-.9.5a2.6,2.6,0,0,1-1.2.2H86.3l-.9-.6-.7-.9a4,4,0,0,1,0-2.5l.6-1.1,2.2-3.4Z" fill="#1c3553"/>
					<path d="M74.8,340.5l-.4.7a2.9,2.9,0,0,1-1.8,1.1,2.49,2.49,0,0,1-1.9-.5l-1.4-.8a6,6,0,0,0,.8-2.9v-.2h3.5v-2.6H69.4a3.31,3.31,0,0,1-.9-2.1,2.59,2.59,0,0,1,2.6-2.6h0a2.8,2.8,0,0,1,2.5,1.8l2.5-.8a6.15,6.15,0,0,0-1.9-2.6,5.63,5.63,0,0,0-3.1-1,5.2,5.2,0,0,0-5.2,5.2h0a5.2,5.2,0,0,0,.4,2.1H64v2.6h3.5v.2a3.19,3.19,0,0,1-1.9,2.8,4.79,4.79,0,0,0-2,1.4l-.6.6,1.9,1.8.6-.6a1.64,1.64,0,0,1,.8-.6h.8a2.52,2.52,0,0,1,2,.6h0a5.1,5.1,0,0,0,3.2,1h.6a5.11,5.11,0,0,0,3.6-2.2l.5-.7Z" fill="#1c3553"/>
				</g>
				<g>
					<path d="M375,346a14,14,0,0,1,14-14h79a14,14,0,0,1,0,28H389A14,14,0,0,1,375,346Z" fill="#efefef"/>
					<path d="M450.7,341.5H453l2.2,6,2.3-6h2.3V350h-1.4v-7.1h-.1l-2.5,7.1h-1.1l-2.6-7.1h0V350h-1.4Zm-1.9,5.4a3.24,3.24,0,0,1-.3,1.4,3.47,3.47,0,0,1-.7,1,4.11,4.11,0,0,1-1.1.7l-1.3.2L444,350a4.11,4.11,0,0,1-1.1-.7,3.47,3.47,0,0,1-.7-1,3.24,3.24,0,0,1-.3-1.4v-5.4h1.5v5.3c0,.2.1.5.1.7l.4.6.5.5,1,.2.9-.2.5-.5.4-.6c0-.2.1-.5.1-.7v-5.3h1.5Zm-10.2-5.4h1.5V350h-1.5Zm-1.8,7.9a7.74,7.74,0,0,1-3.5.8,5.53,5.53,0,0,1-1.8-.3,3.9,3.9,0,0,1-2.3-2.3,3.4,3.4,0,0,1-.4-1.8,4.14,4.14,0,0,1,.4-1.9,3.9,3.9,0,0,1,2.3-2.3,5.53,5.53,0,0,1,1.8-.3l1.8.2a5.16,5.16,0,0,1,1.6.9l-1.1,1.1a2.7,2.7,0,0,0-1-.6,2.76,2.76,0,0,0-1.3-.2,2.6,2.6,0,0,0-1.2.2l-.9.6-.6,1a4.86,4.86,0,0,0-.2,1.2,6.29,6.29,0,0,0,.2,1.3,7,7,0,0,0,.6.9l.9.7a2.6,2.6,0,0,0,1.2.2h1.1a1.19,1.19,0,0,0,.9-.3v-2h-1.7V345h3.2Zm-13.7-7.9h1.5v7.1h3.6V350h-5.1Zm-7.4,0h5.7v1.4h-4.2V345h3.9v1.3h-3.9v2.3h4.4V350h-5.9Zm-6.2,7.2h2l.6-.2.4-.4c.2-.1.2-.4.2-.6a1.1,1.1,0,0,0-.4-1,2.79,2.79,0,0,0-1.4-.2h-1.4Zm0-3.7h1.3a2.11,2.11,0,0,0,1.2-.3,1.23,1.23,0,0,0,.4-.8,1,1,0,0,0-.4-.8,2.27,2.27,0,0,0-1.3-.3h-1.2Zm-1.6-3.5h4.3a2,2,0,0,1,.8.4,1.29,1.29,0,0,1,.6.7,1.4,1.4,0,0,1,.3.9,2.16,2.16,0,0,1-.4,1.2,2.66,2.66,0,0,1-1.1.7h0c.3.1.5.1.7.3a1.28,1.28,0,0,1,.6.4l.4.6a2.18,2.18,0,0,1,.1.8,2,2,0,0,1-.3,1.1,1.81,1.81,0,0,1-.7.8l-1,.4h-4.3Z" fill="#1c3553"/>
					<path d="M394,347.2a2.1,2.1,0,0,1-2.1-2.1h0a2.1,2.1,0,1,1,2.1,2.1Zm5.3.5a6,6,0,1,0-10.5.2h0l.6.8h0l3.6,3.7a1.3,1.3,0,0,0,1.83.17l.17-.17,3.6-3.7h0a.09.09,0,0,1,.1-.1h0a5.1,5.1,0,0,0,.5-.8A.24.24,0,0,0,399.3,347.7Z" fill="#1c3553" opacity="0.8" style="isolation: isolate"/>
				</g>
				<g>
					<path d="M311,270a14,14,0,0,1,14-14h49a14,14,0,0,1,0,28H325A14,14,0,0,1,311,270Z" fill="#efefef"/>
					<path d="M371.4,270.1h-.5l-.5.2-.3.5a.74.74,0,0,0-.1.5,1.29,1.29,0,0,0,.4,1,1.5,1.5,0,0,0,2,0,1.29,1.29,0,0,0,.4-1,.74.74,0,0,0-.1-.5l-.3-.5-.4-.2Zm0-3.5a1.4,1.4,0,0,0-.9.3,1.12,1.12,0,0,0-.3.8,1.2,1.2,0,0,0,1.2,1.2h.5l.3-.2.3-.4a4,4,0,0,0,.1-.5.89.89,0,0,0-.4-.8A1.09,1.09,0,0,0,371.4,266.6Zm0-1.2h1l.8.4a1.93,1.93,0,0,1,.6.7,3.12,3.12,0,0,1,.2,1,2.77,2.77,0,0,1-.3,1.2,1.51,1.51,0,0,1-1,.7h0c.2.1.4.1.6.3a1,1,0,0,1,.5.4.91.91,0,0,1,.3.6,2.41,2.41,0,0,1,.2.8,2,2,0,0,1-.3,1.1,1.64,1.64,0,0,1-.6.8,1.87,1.87,0,0,1-.9.5h-2.2a1.87,1.87,0,0,1-.9-.5,1.64,1.64,0,0,1-.6-.8,2,2,0,0,1-.3-1.1,2.41,2.41,0,0,1,.2-.8c0-.2.2-.4.3-.6l.5-.4c.2-.2.4-.2.6-.3h0a1.83,1.83,0,0,1-1-.7,2.77,2.77,0,0,1-.3-1.2,3.12,3.12,0,0,1,.2-1,1.93,1.93,0,0,1,.6-.7l.8-.4Zm-8,3.5h1l.5-.2c.2,0,.3-.2.4-.3a1.36,1.36,0,0,0,.1-.6,1,1,0,0,0-.3-.8,1.19,1.19,0,0,0-.9-.3.79.79,0,0,0-.7.2,1.15,1.15,0,0,0-.5.7l-1.6-.4.4-.8a1.29,1.29,0,0,1,.7-.6,1.9,1.9,0,0,1,.8-.3h1.9l.9.4.6.7a3.78,3.78,0,0,1,.2,1,2,2,0,0,1-.4,1.3,2,2,0,0,1-1.1.6h0a1.9,1.9,0,0,1,1.3.7,2.71,2.71,0,0,1,.4,1.3,2,2,0,0,1-.3,1.1,1.64,1.64,0,0,1-.6.8,1.87,1.87,0,0,1-.9.5h-2.1a1.9,1.9,0,0,1-.8-.3l-.7-.6a3.64,3.64,0,0,1-.4-.9l1.5-.5a1.87,1.87,0,0,0,.5.9c.2.2.5.2.9.2h.6l.4-.3a.5.5,0,0,0,.3-.4,1.36,1.36,0,0,0,.1-.6c0-.3,0-.5-.1-.6a.68.68,0,0,0-.5-.4l-.6-.2h-1Zm-4.7-.6a1.36,1.36,0,0,0-.1-.6l-.3-.5-.5-.4h-1.2a3,3,0,0,0-.9.9c0,.2-.1.4-.1.6s.1.4.1.6l.4.5.5.3h1.2l.5-.3.3-.5a1.36,1.36,0,0,0,.1-.6Zm-3.2,5.7,2.1-3.1h-.9l-1-.2-.8-.6a4.4,4.4,0,0,1-.5-.9,1.82,1.82,0,0,1-.2-1,3.78,3.78,0,0,1,.2-1.2,3.37,3.37,0,0,1,.6-.9,2.11,2.11,0,0,1,1-.6,3.66,3.66,0,0,1,2.4,0,2.94,2.94,0,0,1,1,.5,4.86,4.86,0,0,1,.6.9,2.76,2.76,0,0,1,.2,1.3,2.6,2.6,0,0,1-.2,1.2,3.79,3.79,0,0,1-.6,1.1l-2.1,3.4Zm-4.6-.8a1,1,0,0,1,1-1,.69.69,0,0,1,.6.3.91.91,0,0,1,.3.6.89.89,0,0,1-.3.7.69.69,0,0,1-.6.3h-.4l-.3-.2c-.1-.1-.2-.2-.2-.3a.42.42,0,0,1-.1-.4Zm-7.4-7.7h5.8v1.3l-3.4,7.2h-1.7l3.5-7.1h-4.2Z" fill="#1c3553"/>
					<path d="M333.8,273.5l-.4.7a2.9,2.9,0,0,1-1.8,1.1,2.49,2.49,0,0,1-1.9-.5l-1.4-.8a6,6,0,0,0,.8-2.9v-.2h3.5v-2.6h-4.2a3.31,3.31,0,0,1-.9-2.1,2.59,2.59,0,0,1,2.6-2.6h0a2.8,2.8,0,0,1,2.5,1.8l2.5-.8a6.15,6.15,0,0,0-1.9-2.6,5.63,5.63,0,0,0-3.1-1,5.2,5.2,0,0,0-5.2,5.2h0a5.2,5.2,0,0,0,.4,2.1H323v2.6h3.5v.2a3.19,3.19,0,0,1-1.9,2.8,4.79,4.79,0,0,0-2,1.4l-.6.6,1.9,1.8.6-.6a1.64,1.64,0,0,1,.8-.6h.8a2.52,2.52,0,0,1,2,.6h0a5.1,5.1,0,0,0,3.2,1h.6a5.11,5.11,0,0,0,3.6-2.2l.5-.7Z" fill="#1c3553"/>
				</g>
				<g>
					<path d="M361,151.5A24.5,24.5,0,0,1,385.5,127h94a24.5,24.5,0,0,1,0,49h-94A24.5,24.5,0,0,1,361,151.5Z" fill="#efefef"/>
					<path d="M406.2,165.2h-2.8v-2a3.21,3.21,0,0,0-2.5-3.1v-2.8l3.1,1.5a3.89,3.89,0,0,1,2.2,3.6Zm-7.8,0v-2a1.5,1.5,0,0,1,1.5-1.5h.2a1.5,1.5,0,0,1,1.5,1.5v2Zm-9.8,0a3.75,3.75,0,0,0,.2-1.1,2.89,2.89,0,0,0-2.1-2.8v-4.7l1.6-.7,4.7,7.2,4.7-7.2,1.4.6v3.6a3.1,3.1,0,0,0-2.4,3.1v2Zm-8.8-2.8a3.89,3.89,0,0,1,2.2-3.6l3-1.4v3.9a2.89,2.89,0,0,0-2.1,2.8,2,2,0,0,0,.3,1.1h-3.4Zm6.1,2.8a1.11,1.11,0,0,1-1.2-1v-.1a1.2,1.2,0,0,1,1.2-1.2h0A1.1,1.1,0,0,1,387,164v.1a1.1,1.1,0,0,1-1.1,1.1Zm9.3-8.7-2.2,3.4-2.2-3.4a8.22,8.22,0,0,0,4.4,0Zm-9.3-7.5a.9.9,0,0,1,.9-.9h.9a15,15,0,0,0,6.7-3,9,9,0,0,0,3.9,2.4v.6h.9a.9.9,0,0,1,.9.9,1,1,0,0,1-.9,1h-.9v.7a5.3,5.3,0,0,1-10.4,0V150H387a1,1,0,0,1-1.1-.89V149Zm1.8-5a5.3,5.3,0,0,1,10.6,0v1.6a6.2,6.2,0,0,1-3.1-2.3l-.6-1.2-.8,1.1s-1.8,2.2-6.1,3.1Zm17,13.2-6.3-3a6.2,6.2,0,0,0,1.4-2.5,2.8,2.8,0,0,0,2.1-2.7,2.7,2.7,0,0,0-1.9-2.5V144a7,7,0,0,0-14,0v2.5a2.7,2.7,0,0,0-1.9,2.5,2.81,2.81,0,0,0,2.1,2.7,6.2,6.2,0,0,0,1.4,2.5l-6.3,3a5.71,5.71,0,0,0-3.3,5.2V167h30v-4.6a5.71,5.71,0,0,0-3.3-5.2Z" fill="#1c3553"/>
					<path d="M482.7,151.1h.7l.6-.2c.2,0,.3-.2.4-.3a1.32,1.32,0,0,0,.2-.7,1.42,1.42,0,0,0-.2-.6l-.4-.3-.5-.2h-1.9v2.3Zm-2.7-3.6h4.2l1,.4a1.88,1.88,0,0,1,.7.8,2,2,0,0,1,.3,1.1,2.5,2.5,0,0,1-.5,1.6,2.11,2.11,0,0,1-1.5.7l2.3,3.8h-1.9l-1.9-3.6h-1.1V156H480Zm-8.8,4.2a3,3,0,0,0,.2,1.3,1.78,1.78,0,0,0,.6.9,2.14,2.14,0,0,0,.9.7,3.66,3.66,0,0,0,2.4,0,2.14,2.14,0,0,0,.9-.7,1.78,1.78,0,0,0,.6-.9,3,3,0,0,0,.2-1.3,2.6,2.6,0,0,0-.2-1.2,2.11,2.11,0,0,0-.6-1,2,2,0,0,0-.9-.6,3.66,3.66,0,0,0-2.4,0,2,2,0,0,0-.9.6,2.11,2.11,0,0,0-.6,1A2.6,2.6,0,0,0,471.2,151.7Zm-1.6.1a5.56,5.56,0,0,1,.3-1.9,7,7,0,0,1,1-1.4,3.41,3.41,0,0,1,1.4-.9,4.83,4.83,0,0,1,1.8-.3,5,5,0,0,1,1.8.3,3.41,3.41,0,0,1,1.4.9,5.12,5.12,0,0,1,1,1.4,5,5,0,0,1,.3,1.8,5.56,5.56,0,0,1-.3,1.9,7,7,0,0,1-1,1.4,4.79,4.79,0,0,1-1.4.9,5,5,0,0,1-1.8.3,4.83,4.83,0,0,1-1.8-.3,3.41,3.41,0,0,1-1.4-.9,7,7,0,0,1-1-1.4A4.83,4.83,0,0,1,469.6,151.8Zm-5.8-4.3h1.5v7.1H469V156h-5.2Zm-5.5,4.9-3.1-4.9h1.9l2,3.4,2.2-3.4h1.8l-3.2,4.9V156h-1.6Zm-5.1.4-1.3-3.5-1.4,3.5Zm-1.9-5.3h1.3l3.6,8.5h-1.7l-.8-1.9H450l-.8,1.9h-1.6Zm-6.8,1.4h-2.7v-1.4h6.8v1.4H446V156h-1.5Zm-9,6.3a.89.89,0,0,1,.3-.7.69.69,0,0,1,.6-.3.89.89,0,0,1,.7.3.91.91,0,0,1,.3.6,1,1,0,0,1-1,1h-.3l-.3-.2-.2-.3a.42.42,0,0,1-.1-.4Zm-4.8-4.1h.7l.6-.2c.2,0,.3-.2.4-.3a1.32,1.32,0,0,0,.2-.7,1.42,1.42,0,0,0-.2-.6l-.4-.3-.5-.2h-1.9v2.3Zm-2.6-3.6h4.1l1,.4a1.88,1.88,0,0,1,.7.8,2,2,0,0,1,.3,1.1,2.5,2.5,0,0,1-.5,1.6,2.11,2.11,0,0,1-1.5.7l2.3,3.8h-1.9l-1.9-3.6h-1.1V156h-1.5Zm-6.5,7.1h1.3l1.1-.5.8-.9a5.18,5.18,0,0,0,.2-1.3,2.9,2.9,0,0,0-.2-1.4l-.7-.9-1-.5h-2.6v5.7Zm-2.7-7.1h3.4a4,4,0,0,1,1.6.3,3.69,3.69,0,0,1,1.4.7,4,4,0,0,1,1.3,3.3,3.31,3.31,0,0,1-.4,1.8,3.77,3.77,0,0,1-1.1,1.4,3.69,3.69,0,0,1-1.4.7l-1.6.3h-3.2Z" fill="#1c3553"/>
				</g>
				<g>
					<path d="M509,210.5A24.5,24.5,0,0,1,533.5,186h82a24.5,24.5,0,0,1,0,49h-82A24.5,24.5,0,0,1,509,210.5Z" fill="#efefef"/>
					<path d="M554.2,224.2h-2.8v-2a3.21,3.21,0,0,0-2.5-3.1v-2.8l3.1,1.5a3.89,3.89,0,0,1,2.2,3.6Zm-7.8,0v-2a1.5,1.5,0,0,1,1.5-1.5h.2a1.5,1.5,0,0,1,1.5,1.5v2Zm-9.8,0a3.75,3.75,0,0,0,.2-1.1,2.89,2.89,0,0,0-2.1-2.8v-4.7l1.6-.7,4.7,7.2,4.7-7.2,1.4.6v3.6a3.1,3.1,0,0,0-2.4,3.1v2Zm-8.8-2.8a3.89,3.89,0,0,1,2.2-3.6l3-1.4v3.9a2.89,2.89,0,0,0-2.1,2.8,2,2,0,0,0,.3,1.1h-3.4Zm6.1,2.8a1.11,1.11,0,0,1-1.2-1v-.1a1.2,1.2,0,0,1,1.2-1.2h0A1.1,1.1,0,0,1,535,223v.1A1.1,1.1,0,0,1,533.9,224.2Zm9.3-8.7-2.2,3.4-2.2-3.4A8.22,8.22,0,0,0,543.2,215.5Zm-9.3-7.5a.9.9,0,0,1,.9-.9h.9a15,15,0,0,0,6.7-3,9,9,0,0,0,3.9,2.4v.6h.9a.9.9,0,0,1,.9.9h0a1,1,0,0,1-.9,1h-.9v.7a5.3,5.3,0,0,1-10.4,0V209H535a1,1,0,0,1-1.09-.89A.41.41,0,0,1,533.9,208Zm1.8-5a5.3,5.3,0,0,1,10.6,0v1.6a6.2,6.2,0,0,1-3.1-2.3l-.6-1.2-.8,1.1s-1.8,2.2-6.1,3.1Zm17,13.2-6.3-3a6.2,6.2,0,0,0,1.4-2.5,2.81,2.81,0,0,0,2.1-2.7,2.7,2.7,0,0,0-1.9-2.5V203a7,7,0,0,0-14,0v2.5a2.7,2.7,0,0,0-1.9,2.5,2.81,2.81,0,0,0,2.1,2.7,6.2,6.2,0,0,0,1.4,2.5l-6.3,3a5.71,5.71,0,0,0-3.3,5.2V226h30v-4.6A5.71,5.71,0,0,0,552.7,216.2Z" fill="#1c3553"/>
					<path d="M619.4,206.5h2l4.1,6.3h0v-6.3H627V215h-1.9l-4.2-6.5h0V215h-1.5Zm-4.9,3.6h.7l.6-.2.4-.3a1.32,1.32,0,0,0,.2-.7,1.42,1.42,0,0,0-.2-.6l-.4-.3-.6-.2h-1.9v2.3Zm-2.7-3.6H616l1,.4a1.88,1.88,0,0,1,.7.8,2,2,0,0,1,.3,1.1,2.08,2.08,0,0,1-.6,1.6,1.7,1.7,0,0,1-1.4.7l2.2,3.8h-1.8l-2-3.6h-1.1V215h-1.5Zm-7.3,0h5.6v1.4H606V210h3.9v1.3H606v2.3h4.3V215h-5.8Zm-5.2,1.4h-2.6v-1.4h6.8v1.4h-2.6V215h-1.6Zm-4.4.4a1.84,1.84,0,0,0-.7-.5h-1.3l-.5.2-.3.4a.63.63,0,0,0-.1.4.82.82,0,0,0,.3.7l.7.4,1,.3,1,.5a1.58,1.58,0,0,1,.7.7,2.11,2.11,0,0,1,.3,1.2,3.78,3.78,0,0,1-.2,1.2,2.83,2.83,0,0,1-.7.8,1.91,1.91,0,0,1-1,.5,2.6,2.6,0,0,1-1.2.2l-1.5-.2a3.89,3.89,0,0,1-1.3-.9l1.2-1.1c.2.2.4.5.7.6a1.65,1.65,0,0,0,1,.2h.5l.5-.2.3-.4a.87.87,0,0,0,.1-.5.82.82,0,0,0-.3-.7l-.7-.5-1-.3-.9-.4a2.83,2.83,0,0,1-.8-.7,2.5,2.5,0,0,1,0-2.4,2.83,2.83,0,0,1,.7-.8l1-.5h1.1l1.3.2a2.86,2.86,0,0,1,1.2.7Zm-11.4,5.9a.89.89,0,0,1,.3-.7.69.69,0,0,1,.6-.3.89.89,0,0,1,.7.3.91.91,0,0,1,.3.6,1,1,0,0,1-1,1h-.3l-.3-.2-.2-.3a.42.42,0,0,1-.1-.4Zm-4.8-4.1h.7l.6-.2c.2,0,.3-.2.4-.3a1.32,1.32,0,0,0,.2-.7,1.42,1.42,0,0,0-.2-.6l-.4-.3-.5-.2h-1.9v2.3Zm-2.6-3.6h4.1l1,.4a1.88,1.88,0,0,1,.7.8,2,2,0,0,1,.3,1.1,2.5,2.5,0,0,1-.5,1.6,2.11,2.11,0,0,1-1.5.7l2.3,3.8h-1.9l-1.9-3.6h-1.1V215h-1.5Zm-6.5,7.1h1.3l1.1-.5.8-.9a5.18,5.18,0,0,0,.2-1.3,2.9,2.9,0,0,0-.2-1.4l-.7-.9-1-.5h-2.6v5.7Zm-2.7-7.1h3.4a4,4,0,0,1,1.6.3,3.69,3.69,0,0,1,1.4.7,4,4,0,0,1,1.3,3.3,3.31,3.31,0,0,1-.4,1.8,3.77,3.77,0,0,1-1.1,1.4,3.69,3.69,0,0,1-1.4.7l-1.6.3h-3.2Z" fill="#1c3553"/>
				</g>
			</g>
			<use href="#move-icons" transform="translate(849.7, 0)"/>
		</g>
	</g>
	<path id="zoom-glass" d="M317.2,207.3A120.1,120.1,0,1,1,437.3,327.4h0A120.3,120.3,0,0,1,317.2,207.3ZM636,386.8l-85.4-85.4a147.09,147.09,0,0,0,34-94.1C584.6,126.1,518.5,60,437.3,60S290,126.1,290,207.3s66.1,147.3,147.3,147.3a147.09,147.09,0,0,0,94.1-34L616.8,406a13.5,13.5,0,0,0,19.09.11L636,406A13.6,13.6,0,0,0,636,386.8Z" fill="#1c3553"/>
	<style>
		#info-zoom-glass #moving-elements {
			animation: moveElements 6s linear 0s infinite;
		}

		#info-zoom-glass #zoom-glass {
			transform-origin: 437.3px 207.3px;
			animation: moveGlass 2s ease-in-out 0s infinite alternate;
		}

		@keyframes moveElements {
			to {
				transform: translate(-849.7px, 0px);
			}
		}

		@keyframes moveGlass {
			0%, 70% {
				transform: scale(1, 1) rotate(0deg);
			}
			100% {
				transform: scale(0.9, 0.9) rotate(-15deg);
			}
		}
	</style>
</svg>
