<?xml version="1.0" encoding="utf-8"?>
<!-- Generator: Adobe Illustrator 21.0.2, SVG Export Plug-In . SVG Version: 6.00 Build 0)  -->
<svg version="1.1" id="Layer_3" xmlns="http://www.w3.org/2000/svg" xmlns:xlink="http://www.w3.org/1999/xlink" x="0px" y="0px"
	 viewBox="0 0 500 500" style="enable-background:new 0 0 500 500;" xml:space="preserve">
<style type="text/css">
	.st0{fill:#FFFFFF;stroke:#1C3553;stroke-width:6.8;stroke-linecap:round;stroke-linejoin:round;stroke-miterlimit:10;}
	.st1{fill:none;stroke:#1C3553;stroke-width:6.8;stroke-linecap:round;stroke-linejoin:round;stroke-miterlimit:10;}
	.st2{fill:#C5E4FF;}
	.st3{fill:none;stroke:#1C3553;stroke-width:3.4;stroke-linecap:round;stroke-linejoin:round;stroke-miterlimit:10;}
</style>
<circle class="st0" cx="261.39" cy="251.85" r="183"/>
<polyline class="st1" points="261.39,122.85 261.39,251.85 354.38,251.85 "/>
<circle class="st2" cx="264.39" cy="248.85" r="18"/>
<circle class="st1" cx="261.39" cy="251.85" r="12"/>
<path class="st2" d="M263.14,10.7c-3.7,0-6.7,3-6.7,6.7s3,6.7,6.7,6.7c122.87,0,222.83,99.96,222.83,222.83
	s-99.96,222.83-222.83,222.83c-118.74,0-216.07-93.36-222.48-210.53l0.25-0.03l16.62,14.72c2.77,2.45,7,2.2,9.46-0.57
	c2.45-2.77,2.2-7-0.57-9.46l-28.37-25.13c-0.12-0.1-0.25-0.18-0.37-0.27c-0.16-0.12-0.31-0.25-0.48-0.35
	c-0.2-0.13-0.41-0.23-0.62-0.34c-0.16-0.08-0.32-0.17-0.49-0.24c-0.25-0.1-0.5-0.17-0.76-0.24c-0.15-0.04-0.29-0.09-0.44-0.12
	c-0.42-0.08-0.84-0.13-1.27-0.13c0,0,0,0,0,0s0,0,0,0c-0.47,0-0.93,0.05-1.37,0.14c-0.05,0.01-0.11,0.04-0.16,0.05
	c-0.39,0.09-0.77,0.21-1.13,0.36c-0.13,0.06-0.25,0.14-0.38,0.21c-0.27,0.14-0.55,0.28-0.8,0.46c-0.14,0.1-0.26,0.22-0.39,0.32
	c-0.23,0.19-0.45,0.38-0.65,0.59c-0.04,0.05-0.1,0.08-0.14,0.12L3.45,267.72c-2.45,2.77-2.2,7,0.57,9.46
	c2.77,2.45,7.01,2.2,9.46-0.57l13.87-15.65c7.28,123.76,110.23,222.22,235.79,222.22c130.26,0,236.24-105.98,236.24-236.24
	S393.4,10.7,263.14,10.7z"/>
<path class="st3" d="M261.39,17.19c-3.68,0-6.66,2.98-6.66,6.66s2.98,6.66,6.66,6.66c122.05,0,221.34,99.29,221.34,221.34
	s-99.29,221.34-221.34,221.34c-117.94,0-214.62-92.73-220.99-209.12l0.25-0.03l16.51,14.63c2.75,2.43,6.96,2.18,9.4-0.57
	c2.44-2.75,2.18-6.96-0.57-9.4L37.8,243.74c-0.12-0.1-0.25-0.18-0.37-0.27c-0.16-0.12-0.31-0.24-0.48-0.35
	c-0.2-0.13-0.41-0.23-0.61-0.33c-0.16-0.08-0.32-0.17-0.49-0.24c-0.25-0.1-0.5-0.17-0.75-0.23c-0.15-0.04-0.29-0.09-0.44-0.12
	c-0.42-0.08-0.84-0.13-1.26-0.13c0,0,0,0,0,0c0,0,0,0,0,0c-0.47,0-0.92,0.05-1.36,0.14c-0.05,0.01-0.1,0.04-0.16,0.05
	c-0.39,0.09-0.76,0.21-1.12,0.36c-0.13,0.06-0.25,0.14-0.38,0.21c-0.27,0.14-0.54,0.28-0.79,0.46c-0.14,0.1-0.26,0.21-0.39,0.32
	c-0.23,0.19-0.45,0.37-0.65,0.59c-0.04,0.05-0.09,0.08-0.14,0.12L3.44,272.49c-2.44,2.75-2.18,6.96,0.57,9.4
	c2.75,2.44,6.96,2.18,9.4-0.57l13.77-15.55c7.23,122.93,109.49,220.74,234.21,220.74c129.39,0,234.66-105.27,234.66-234.66
	S390.78,17.19,261.39,17.19z"/>
<g>
	<path class="st2" d="M264.39,83.85c-3.14,0-5.69,2.55-5.69,5.69v14.22c0,3.14,2.55,5.69,5.69,5.69s5.69-2.55,5.69-5.69V89.54
		C270.07,86.41,267.52,83.85,264.39,83.85z"/>
	<path class="st2" d="M264.39,388.25c-3.14,0-5.69,2.55-5.69,5.69v14.22c0,3.14,2.55,5.69,5.69,5.69s5.69-2.55,5.69-5.69v-14.22
		C270.07,390.8,267.52,388.25,264.39,388.25z"/>
	<path class="st2" d="M423.69,243.16h-14.22c-3.14,0-5.69,2.55-5.69,5.69c0,3.14,2.55,5.69,5.69,5.69h14.22
		c3.14,0,5.69-2.55,5.69-5.69C429.38,245.71,426.83,243.16,423.69,243.16z"/>
	<path class="st2" d="M124.99,248.85c0-3.14-2.55-5.69-5.69-5.69h-14.22c-3.14,0-5.69,2.55-5.69,5.69c0,3.14,2.55,5.69,5.69,5.69
		h14.22C122.44,254.54,124.99,251.99,124.99,248.85z"/>
	<path class="st2" d="M189.66,108.04c-1.56-2.71-5.06-3.66-7.77-2.08c-2.71,1.57-3.65,5.06-2.08,7.77l7.11,12.32
		c1.05,1.82,2.97,2.84,4.94,2.84c0.96,0,1.94-0.24,2.83-0.76c1.32-0.76,2.26-1.99,2.65-3.45c0.39-1.47,0.19-3-0.57-4.32
		L189.66,108.04z"/>
	<path class="st2" d="M341.85,371.65c-1.57-2.71-5.05-3.66-7.77-2.08c-1.32,0.76-2.26,1.99-2.65,3.45c-0.39,1.47-0.19,3,0.57,4.32
		l7.11,12.32c1.05,1.83,2.97,2.84,4.94,2.84c0.96,0,1.94-0.24,2.83-0.76v0c2.71-1.57,3.65-5.06,2.08-7.77L341.85,371.65z"/>
	<path class="st2" d="M388.56,181.8c0.49,0.13,0.99,0.2,1.48,0.2c0.99,0,1.96-0.26,2.84-0.77l12.32-7.11
		c2.72-1.57,3.65-5.05,2.08-7.77c-1.57-2.72-5.06-3.65-7.77-2.08l-12.32,7.11c-2.71,1.57-3.65,5.05-2.08,7.77
		C385.86,180.47,387.09,181.41,388.56,181.8z"/>
	<path class="st2" d="M140.21,315.9c-1.48-0.4-3.01-0.19-4.32,0.57l-12.32,7.11c-2.72,1.57-3.65,5.05-2.09,7.77c0,0,0,0,0,0
		c1.05,1.82,2.97,2.84,4.94,2.84c0.97,0,1.94-0.24,2.84-0.76l12.32-7.11c2.71-1.57,3.65-5.05,2.08-7.77
		C142.91,317.23,141.68,316.29,140.21,315.9z"/>
	<path class="st2" d="M141.58,171.38l-12.32-7.11c-2.72-1.57-6.2-0.63-7.78,2.08c-1.57,2.72-0.63,6.2,2.09,7.77l12.32,7.11
		c0.88,0.51,1.85,0.77,2.84,0.77c0.49,0,0.99-0.07,1.48-0.2c1.47-0.39,2.69-1.33,3.45-2.65
		C145.23,176.44,144.3,172.95,141.58,171.38z"/>
	<path class="st2" d="M405.19,323.58l-12.32-7.11c-1.31-0.76-2.84-0.96-4.32-0.57c-1.47,0.39-2.69,1.33-3.45,2.65
		c-1.57,2.72-0.63,6.2,2.08,7.77l12.32,7.11c0.89,0.52,1.87,0.76,2.84,0.76c1.97,0,3.88-1.02,4.94-2.84c0,0,0,0,0,0
		C408.85,328.63,407.91,325.15,405.19,323.58z"/>
	<path class="st2" d="M346.88,105.96c-2.72-1.56-6.21-0.63-7.77,2.09L332,120.36c-0.76,1.31-0.96,2.85-0.57,4.32
		c0.39,1.47,1.33,2.69,2.65,3.45c0.89,0.52,1.87,0.76,2.83,0.76c1.97,0,3.88-1.02,4.94-2.84l7.11-12.32
		C350.54,111.01,349.6,107.53,346.88,105.96z"/>
	<path class="st2" d="M194.69,369.57c-2.72-1.57-6.2-0.63-7.77,2.08l-7.11,12.32c-1.57,2.72-0.63,6.2,2.08,7.77v0
		c0.89,0.51,1.87,0.76,2.83,0.76c1.97,0,3.89-1.02,4.94-2.84l7.11-12.32c0.76-1.31,0.96-2.85,0.57-4.32
		C196.95,371.56,196,370.33,194.69,369.57z"/>
</g>
<g>
	<path class="st3" d="M261.39,109.81L261.39,109.81c-2.38,0-4.3-1.93-4.3-4.3V91.16c0-2.38,1.93-4.3,4.3-4.3l0,0
		c2.38,0,4.3,1.93,4.3,4.3v14.35C265.69,107.88,263.76,109.81,261.39,109.81z"/>
	<path class="st3" d="M261.39,416.85L261.39,416.85c-2.38,0-4.3-1.93-4.3-4.3V398.2c0-2.38,1.93-4.3,4.3-4.3l0,0
		c2.38,0,4.3,1.93,4.3,4.3v14.35C265.69,414.92,263.76,416.85,261.39,416.85z"/>
	<path class="st3" d="M403.43,251.85L403.43,251.85c0-2.38,1.93-4.3,4.3-4.3h14.35c2.38,0,4.3,1.93,4.3,4.3v0
		c0,2.38-1.93,4.3-4.3,4.3h-14.35C405.35,256.16,403.43,254.23,403.43,251.85z"/>
	<path class="st3" d="M96.39,251.85L96.39,251.85c0-2.38,1.93-4.3,4.3-4.3h14.35c2.38,0,4.3,1.93,4.3,4.3v0c0,2.38-1.93,4.3-4.3,4.3
		h-14.35C98.31,256.16,96.39,254.23,96.39,251.85z"/>
	<path class="st3" d="M190.36,128.84L190.36,128.84c-2.06,1.19-4.69,0.48-5.88-1.58l-7.17-12.43c-1.19-2.06-0.48-4.69,1.58-5.88l0,0
		c2.06-1.19,4.69-0.48,5.88,1.58l7.17,12.43C193.13,125.02,192.42,127.65,190.36,128.84z"/>
	<path class="st3" d="M343.88,394.74L343.88,394.74c-2.06,1.19-4.69,0.48-5.88-1.58l-7.17-12.43c-1.19-2.06-0.48-4.69,1.58-5.88l0,0
		c2.06-1.19,4.69-0.48,5.88,1.58l7.17,12.43C346.65,390.92,345.94,393.56,343.88,394.74z"/>
	<path class="st3" d="M384.4,180.83L384.4,180.83c-1.19-2.06-0.48-4.69,1.58-5.88l12.43-7.17c2.06-1.19,4.69-0.48,5.88,1.58l0,0
		c1.19,2.06,0.48,4.69-1.58,5.88l-12.43,7.17C388.22,183.59,385.59,182.89,384.4,180.83z"/>
	<path class="st3" d="M118.49,334.35L118.49,334.35c-1.19-2.06-0.48-4.69,1.58-5.88l12.43-7.17c2.06-1.19,4.69-0.48,5.88,1.58l0,0
		c1.19,2.06,0.48,4.69-1.58,5.88l-12.43,7.17C122.31,337.11,119.68,336.41,118.49,334.35z"/>
	<path class="st3" d="M138.37,180.83L138.37,180.83c-1.19,2.06-3.82,2.76-5.88,1.58l-12.43-7.17c-2.06-1.19-2.76-3.82-1.58-5.88h0
		c1.19-2.06,3.82-2.76,5.88-1.58l12.43,7.17C138.86,176.14,139.56,178.77,138.37,180.83z"/>
	<path class="st3" d="M404.28,334.35L404.28,334.35c-1.19,2.06-3.82,2.76-5.88,1.58l-12.43-7.17c-2.06-1.19-2.76-3.82-1.58-5.88l0,0
		c1.19-2.06,3.82-2.76,5.88-1.58l12.43,7.17C404.76,329.66,405.47,332.29,404.28,334.35z"/>
	<path class="st3" d="M332.41,128.84L332.41,128.84c-2.06-1.19-2.76-3.82-1.58-5.88l7.17-12.43c1.19-2.06,3.82-2.76,5.88-1.58l0,0
		c2.06,1.19,2.76,3.82,1.58,5.88l-7.17,12.43C337.1,129.32,334.47,130.03,332.41,128.84z"/>
	<path class="st3" d="M178.89,394.74L178.89,394.74c-2.06-1.19-2.76-3.82-1.58-5.88l7.17-12.43c1.19-2.06,3.82-2.76,5.88-1.58l0,0
		c2.06,1.19,2.76,3.82,1.58,5.88l-7.17,12.43C183.58,395.23,180.94,395.93,178.89,394.74z"/>
</g>
</svg>
