<?xml version="1.0" encoding="utf-8"?>
<!-- Generator: Adobe Illustrator 21.0.2, SVG Export Plug-In . SVG Version: 6.00 Build 0)  -->
<svg version="1.1" id="Layer_2" xmlns="http://www.w3.org/2000/svg" xmlns:xlink="http://www.w3.org/1999/xlink" x="0px" y="0px"
	 viewBox="0 0 500 500" style="enable-background:new 0 0 500 500;" xml:space="preserve">
<style type="text/css">
	.st0{fill:#FFFFFF;}
	.st1{fill:#C5E4FF;}
	.st2{fill:none;stroke:#1C3553;stroke-width:6.8;stroke-linecap:round;stroke-linejoin:round;stroke-miterlimit:10;}
</style>
<path class="st0" d="M415.01,89.51c-0.57-0.73-1.18-1.44-1.85-2.11c-0.67-0.67-1.38-1.28-2.11-1.85
	c-46.94-45.86-112.54-72.7-184.23-67.77C108.33,25.95,12.74,121.54,4.58,240.02c-4.94,71.69,21.9,137.29,67.76,184.23
	c0.57,0.73,1.18,1.44,1.85,2.11c0.67,0.67,1.38,1.28,2.11,1.85c46.94,45.86,112.54,72.7,184.23,67.77
	c118.49-8.16,214.08-103.75,222.24-222.23C487.71,202.05,460.87,136.45,415.01,89.51z M229.53,64.98
	c43.79-3.16,84.76,8.48,118.5,30.37c7.43,4.82,8.44,15.32,2.18,21.58L103.72,363.42c-6.26,6.26-16.76,5.25-21.58-2.18
	c-21.89-33.74-33.53-74.71-30.37-118.51C58.59,148.15,134.94,71.79,229.53,64.98z M257.83,448.79
	c-43.79,3.16-84.76-8.48-118.5-30.37c-7.43-4.82-8.44-15.32-2.18-21.58l246.49-246.49c6.26-6.26,16.76-5.25,21.58,2.18
	c21.89,33.74,33.53,74.71,30.37,118.51C428.76,365.62,352.41,441.97,257.83,448.79z"/>
<path class="st1" d="M431.66,72.87c-0.57-0.73-1.18-1.44-1.85-2.11c-0.67-0.67-1.38-1.28-2.11-1.85
	C380.76,23.04,315.15-3.8,243.46,1.14C124.97,9.3,29.39,104.89,21.23,223.38c-4.94,71.69,21.9,137.29,67.76,184.23
	c0.57,0.73,1.18,1.44,1.85,2.11c0.67,0.67,1.38,1.28,2.11,1.85c46.94,45.86,112.54,72.7,184.23,67.77
	c118.49-8.16,214.08-103.75,222.24-222.23C504.36,185.41,477.52,119.81,431.66,72.87z M246.17,48.33
	c42.26-3.05,81.89,7.68,114.93,28.11c9.33,5.77,10.87,18.73,3.11,26.48L123.01,344.13c-7.76,7.76-20.72,6.22-26.48-3.11
	c-20.42-33.04-31.16-72.68-28.11-114.94C75.24,131.5,151.59,55.15,246.17,48.33z M274.47,432.14c-44.45,3.2-85.98-8.83-120.01-31.35
	c-6.61-4.38-7.55-13.72-1.95-19.32l249.03-249.03c5.61-5.61,14.95-4.66,19.32,1.95c22.52,34.02,34.56,75.56,31.35,120.01
	C445.41,348.97,369.06,425.33,274.47,432.14z"/>
<path class="st2" d="M415.01,89.51c-0.57-0.73-1.18-1.44-1.85-2.11c-0.67-0.67-1.38-1.28-2.11-1.85
	C367.82,43.31,308.75,17.2,243.68,17.2C111.52,17.2,4,124.72,4,256.88c0,65.07,26.1,124.14,68.34,167.37
	c0.57,0.73,1.18,1.44,1.85,2.11c0.67,0.67,1.38,1.28,2.11,1.85c43.23,42.24,102.3,68.35,167.37,68.35
	c132.16,0,239.68-107.52,239.68-239.68C483.36,191.81,457.25,132.75,415.01,89.51z M229.53,64.98c43.64-3.15,84.48,8.4,118.15,30.14
	c7.62,4.92,8.65,15.69,2.24,22.11L104.02,363.12c-6.42,6.42-17.19,5.39-22.11-2.24c-21.74-33.67-33.29-74.51-30.14-118.15
	C58.59,148.15,134.94,71.79,229.53,64.98z M257.83,448.79c-43.64,3.15-84.48-8.4-118.15-30.14c-7.62-4.92-8.65-15.69-2.24-22.11
	l245.89-245.89c6.42-6.42,17.19-5.39,22.11,2.24c21.74,33.67,33.29,74.51,30.14,118.15C428.76,365.62,352.41,441.97,257.83,448.79z"
	/>
</svg>
