<?xml version="1.0" encoding="utf-8"?>
<!-- Generator: Adobe Illustrator 21.0.2, SVG Export Plug-In . SVG Version: 6.00 Build 0)  -->
<svg version="1.1" id="Layer_2" xmlns="http://www.w3.org/2000/svg" xmlns:xlink="http://www.w3.org/1999/xlink" x="0px" y="0px"
	 viewBox="0 0 500 500" style="enable-background:new 0 0 500 500;" xml:space="preserve">
<style type="text/css">
	.st0{fill:#FFFFFF;stroke:#1C3553;stroke-width:6.8;stroke-linecap:round;stroke-linejoin:bevel;stroke-miterlimit:10;}
	.st1{fill:#FFFFFF;stroke:#1C3553;stroke-width:6.8;stroke-linecap:round;stroke-linejoin:round;stroke-miterlimit:10;}
	.st2{fill:none;stroke:#1C3553;stroke-width:9.84;stroke-linecap:round;stroke-linejoin:round;stroke-miterlimit:10;}
	.st3{fill:#FFFFFF;}
	.st4{fill:#C5E4FF;}
	.st5{fill:none;stroke:#1C3553;stroke-width:6.8;stroke-linecap:round;stroke-linejoin:round;stroke-miterlimit:10;}
	.st6{fill:#1C3553;}
</style>
<path class="st0" d="M158.97,150.3c0,0-5.02-4.67-12.55-4.67c-7.53,0-17.57,8-17.57,24.36s15.06,43.4,37.66,48.08
	S158.97,150.3,158.97,150.3z"/>
<path class="st0" d="M341.59,150.3c0,0,5.02-4.67,12.55-4.67c7.53,0,17.57,8,17.57,24.36s-15.06,43.4-37.66,48.08
	S341.59,150.3,341.59,150.3z"/>
<polygon class="st1" points="186.81,323.39 222,496.4 281.89,496.4 311.21,323.39 "/>
<line class="st2" x1="220.34" y1="145.4" x2="183.74" y2="145.4"/>
<path class="st3" d="M155.93,323.39c-46.2,0-83.65,37.45-83.65,83.65v89.35H222l-35.19-173.01H155.93z"/>
<path class="st4" d="M145.34,418.51c-0.83-1.08-0.88-2.57-0.12-3.7l22.58-33.87l-20.33-2.54c-0.99-0.12-1.87-0.7-2.36-1.57
	c-0.5-0.87-0.56-1.92-0.16-2.83l13.08-30.52c-38.27,0.61-69.1,31.8-69.1,70.21v75.03h110.43L145.34,418.51z"/>
<path class="st5" d="M155.93,323.39c-46.2,0-83.65,37.45-83.65,83.65v89.35H222l-35.19-173.01H155.93z"/>
<path class="st5" d="M155.93,323.39c-46.2,0-83.65,37.45-83.65,83.65v89.35H222l-35.19-173.01H155.93z"/>
<path class="st3" d="M344.63,323.39h-33.42L281.89,496.4h146.39v-89.35C428.28,360.85,390.82,323.39,344.63,323.39z"/>
<path class="st4" d="M339.36,331.26h-30.61l-26.86,158.49h134.1v-81.86C415.99,365.57,381.68,331.26,339.36,331.26z"/>
<path class="st5" d="M344.63,323.39h-33.42L281.89,496.4h146.39v-89.35C428.28,360.85,390.82,323.39,344.63,323.39z"/>
<rect x="202.04" y="266.84" class="st3" width="96.48" height="86.5"/>
<path class="st4" d="M202.04,287.54c8.12,5.81,17.29,10.53,27.65,14c3.75,1.26,7.64,1.89,11.57,1.89h50.06
	c3.93,0,7.83-0.64,11.57-1.89c1.93-0.65,3.76-1.4,5.62-2.13v-32.57H202.04V287.54z"/>
<rect x="202.04" y="266.84" class="st5" width="96.48" height="86.5"/>
<path class="st1" d="M250.28,24.46c-47.07,0-79.21,15.74-91.49,36.1c-16.8,27.84-13.31,69.87-3.33,109.79
	c0,61.67,19.93,102.23,62.8,118.09c2.99,1.11,6.15,1.69,9.33,1.69h45.37c3.19,0,6.35-0.58,9.33-1.69
	c42.87-15.86,62.8-56.41,62.8-118.09c9.98-39.92,8.09-81.99-6.65-109.79C326.75,38.5,299.59,24.46,250.28,24.46z"/>
<polygon class="st1" points="202.25,396.17 250.28,352.43 198.71,303.43 182.08,323.39 "/>
<line class="st5" x1="138.82" y1="496.4" x2="138.82" y2="459.8"/>
<line class="st5" x1="361.74" y1="496.4" x2="361.74" y2="459.8"/>
<circle class="st6" cx="205.37" cy="170.35" r="9.98"/>
<circle class="st6" cx="295.19" cy="170.35" r="9.98"/>
<polygon class="st3" points="240.3,496.4 192.06,306.76 172.09,320.07 152.13,366.65 178.75,369.97 152.13,409.9 218.67,496.4 "/>
<polygon class="st4" points="242.31,496.4 196.61,316.74 177.7,329.35 158.79,373.48 184,376.63 158.79,414.45 221.83,496.4 "/>
<polygon class="st5" points="240.3,496.4 192.06,306.76 172.09,320.07 152.13,366.65 178.75,369.97 152.13,409.9 218.67,496.4 "/>
<polygon class="st1" points="298.31,396.17 250.28,352.43 301.85,303.43 318.48,323.39 "/>
<polygon class="st3" points="260.26,496.4 308.5,306.76 328.47,320.07 348.43,366.65 321.81,369.97 348.43,409.9 281.89,496.4 "/>
<polygon class="st4" points="321.81,369.97 343.45,367.27 330.35,336.71 312.27,324.65 268.58,496.4 281.89,496.4 345.51,413.69 
	324.33,381.9 329.35,381.27 "/>
<polygon class="st5" points="260.26,496.4 308.5,306.76 328.47,320.07 348.43,366.65 321.81,369.97 348.43,409.9 281.89,496.4 "/>
<path class="st1" d="M361.74,105.72C361.74,72.21,335.12,4,250.28,4S138.82,72.21,138.82,105.72c0,33.91,16.64,64.63,16.64,64.63
	s-9.98-123.1,34.81-123.1c40.49,0,31.74,23.27,60.02,23.27s19.53-23.27,60.01-23.27c44.79,0,34.81,123.1,34.81,123.1
	S361.74,139.63,361.74,105.72z"/>
<line class="st2" x1="220.34" y1="138.74" x2="183.74" y2="138.74"/>
<line class="st2" x1="280.22" y1="138.74" x2="316.82" y2="138.74"/>
<path class="st1" d="M344.98,170.82c0,0-4.32,10.39-7.06,21.8c-2.74,11.41-17.21,33.84-20.21,39.42c-1.03,1.91-1.65,4.63-2.02,7.4
	c-0.37,2.72-4.05,3.3-5.27,0.84c-2.58-5.21-5.63-11.05-7.57-13.69c-2.98-4.05-25.2-13.35-35.59-17.53
	c-3.48-1.4-7.17-2.11-10.92-2.11h-12.1c-3.75,0-7.45,0.71-10.92,2.11c-10.39,4.19-32.6,13.48-35.59,17.53
	c-1.94,2.64-4.99,8.48-7.57,13.69c-1.22,2.46-4.9,1.87-5.27-0.84c-0.37-2.76-1-5.49-2.02-7.4c-3-5.58-17.48-28.01-20.21-39.42
	c-2.74-11.41-7.06-21.8-7.06-21.8s-0.12,42.78-0.12,52.76c0,9.26-0.12,17.58,8.75,33.14c8.87,15.56,50.08,52.9,60.77,59.25
	c0.03,0.02,0.06,0.03,0.09,0.05c4.75,2.81,10.28,4.03,15.8,4.03h18.83c5.52,0,11.04-1.23,15.8-4.03c0.03-0.02,0.06-0.03,0.09-0.05
	c10.69-6.35,51.9-43.7,60.77-59.25c8.87-15.56,8.75-23.88,8.75-33.14C345.1,213.6,344.98,170.82,344.98,170.82z M298.66,254.99
	c-0.26,1.69-17.87,10.11-23.6,10.11c-3.03,0-4.66-5.99-5.53-11.66c-0.87-5.69-5.75-9.9-11.51-9.9h-15.46
	c-5.76,0-10.64,4.2-11.51,9.9c-0.87,5.67-2.51,11.66-5.53,11.66c-5.74,0-23.34-8.43-23.6-10.11c-0.26-1.69,2.48-16.08,9.26-18.54
	c4.24-1.54,18.49-5.47,28.57-8.2c6.91-1.87,14.2-1.87,21.11,0c10.07,2.73,24.32,6.66,28.57,8.2
	C296.19,238.91,298.92,253.31,298.66,254.99z"/>
<path class="st5" d="M208.69,196.97h-16.64c-14.7,0-26.62-11.92-26.62-26.62v-8.91c0-6.11,4.95-11.06,11.06-11.06h47.76
	c6.11,0,11.06,4.95,11.06,11.06v8.91C235.31,185.05,223.39,196.97,208.69,196.97z"/>
<path class="st5" d="M308.5,196.97h-16.64c-14.7,0-26.62-11.92-26.62-26.62v-8.91c0-6.11,4.95-11.06,11.06-11.06h47.76
	c6.11,0,11.06,4.95,11.06,11.06v8.91C335.12,185.05,323.2,196.97,308.5,196.97z"/>
<path class="st5" d="M265.25,170.88c0-7.64-6.7-13.84-14.97-13.84c-8.27,0-14.97,6.2-14.97,13.84"/>
<line class="st5" x1="250.28" y1="352.31" x2="250.28" y2="496.4"/>
<circle class="st6" cx="235.31" cy="413.22" r="6.65"/>
</svg>
