<svg width="478" height="473" viewBox="0 0 478 473" fill="none" xmlns="http://www.w3.org/2000/svg">
<path d="M448.185 306.358C422.438 303.211 396.873 298.749 371.59 292.99C365.418 290.947 358.817 290.516 352.428 291.74C346.038 292.964 340.075 295.8 335.116 299.975C328.673 306.479 310.071 324.664 290.74 343.451C221.479 309.725 165.465 254.199 131.47 185.566C150.315 166.418 167.944 148.112 175.118 141.729C179.332 136.818 182.196 130.911 183.432 124.582C184.667 118.252 184.232 111.714 182.169 105.6C176.348 80.5177 171.844 55.153 168.674 29.6085C168.334 26.3556 167.329 23.2052 165.721 20.3495C164.112 17.4938 161.933 14.9924 159.317 12.998C156.7 11.0035 153.701 9.55771 150.502 8.74869C147.304 7.93966 143.972 7.78436 140.71 8.29225H37.1246C32.8489 8.67462 28.8464 10.5389 25.8218 13.557C22.7972 16.575 20.9445 20.5532 20.5898 24.7913C13.9029 117.402 66.0606 216.517 76.638 235.545V236.268L78.097 239.038C115.961 304.087 170.48 358.091 236.15 395.597V395.597L241.5 398.608C265.816 411.374 362.472 459.546 452.805 452.922C457.127 452.626 461.201 450.814 464.298 447.813C467.394 444.812 469.311 440.817 469.705 436.544V334.057C470.218 330.827 470.061 327.527 469.244 324.358C468.427 321.189 466.968 318.219 464.954 315.627C462.941 313.035 460.416 310.877 457.533 309.283C454.65 307.69 451.469 306.695 448.185 306.358Z" stroke="#C5E4FF" stroke-width="15.8" stroke-linecap="round" stroke-linejoin="round"/>
<path d="M432.185 322.358C406.438 319.211 380.873 314.749 355.59 308.99C349.418 306.947 342.817 306.516 336.428 307.74C330.038 308.964 324.075 311.8 319.116 315.975C312.673 322.479 294.071 340.664 274.74 359.451C205.479 325.725 149.465 270.199 115.47 201.566C134.315 182.418 151.944 164.112 159.118 157.729C163.332 152.818 166.196 146.911 167.432 140.582C168.667 134.252 168.232 127.714 166.169 121.6C160.348 96.5177 155.844 71.153 152.674 45.6085C152.334 42.3556 151.329 39.2052 149.721 36.3495C148.112 33.4938 145.933 30.9924 143.317 28.998C140.7 27.0035 137.701 25.5577 134.502 24.7487C131.304 23.9397 127.972 23.7844 124.71 24.2922H21.1246C16.8489 24.6746 12.8464 26.5389 9.82179 29.557C6.79722 32.575 4.9445 36.5532 4.58981 40.7913C-2.09707 133.402 50.0606 232.517 60.638 251.545V252.268L62.097 255.038C99.9611 320.087 154.48 374.091 220.15 411.597V411.597L225.5 414.608C249.816 427.374 346.472 475.546 436.805 468.922C441.127 468.626 445.201 466.814 448.298 463.813C451.394 460.812 453.311 456.817 453.705 452.544V350.057C454.218 346.827 454.061 343.527 453.244 340.358C452.427 337.189 450.968 334.219 448.954 331.627C446.941 329.035 444.416 326.877 441.533 325.283C438.65 323.69 435.469 322.695 432.185 322.358Z" stroke="#1C3553" stroke-width="6.8" stroke-linecap="round" stroke-linejoin="round"/>
</svg>
