<?xml version="1.0" encoding="utf-8"?>
<!-- Generator: Adobe Illustrator 21.0.2, SVG Export Plug-In . SVG Version: 6.00 Build 0)  -->
<svg version="1.1" id="Layer_2" xmlns="http://www.w3.org/2000/svg" xmlns:xlink="http://www.w3.org/1999/xlink" x="0px" y="0px"
	 viewBox="0 0 500 500" style="enable-background:new 0 0 500 500;" xml:space="preserve">
<style type="text/css">
	.st0{fill:#FFFFFF;}
	.st1{fill:#C5E4FF;}
	.st2{fill:none;stroke:#1C3553;stroke-width:6.8;stroke-linecap:round;stroke-linejoin:round;stroke-miterlimit:10;}
	.st3{fill:none;stroke:#1C3553;stroke-width:3.4;stroke-linecap:round;stroke-linejoin:round;stroke-miterlimit:10;}
</style>
<path class="st0" d="M235.65,372.32L128.4,325.21c-4.73-2.08-10.25,0.07-12.33,4.8L69.36,436.35c-2.88,6.56,2.37,13.79,9.5,13.07
	l56.41-5.62c3.26-0.32,6.45,1.08,8.41,3.7l34.01,45.35c4.3,5.73,13.17,4.7,16.05-1.85l46.72-106.34
	C242.53,379.92,240.38,374.4,235.65,372.32z"/>
<path class="st0" d="M250.9,372.32l107.25-47.12c4.73-2.08,10.25,0.07,12.33,4.8l46.72,106.34c2.88,6.56-2.37,13.79-9.5,13.07
	l-56.41-5.62c-3.26-0.32-6.45,1.08-8.41,3.7l-34.01,45.35c-4.3,5.73-13.17,4.7-16.05-1.85L246.1,384.65
	C244.02,379.92,246.17,374.4,250.9,372.32z"/>
<path class="st0" d="M255.31,22.96l24.38-15.63c11.06-7.09,25.81-3.13,31.85,8.53l13.3,25.72c4,7.74,12.14,12.44,20.85,12.04
	l28.92-1.35c13.12-0.61,23.92,10.19,23.31,23.31l-1.35,28.92c-0.4,8.7,4.3,16.84,12.04,20.85l25.72,13.3
	c11.67,6.03,15.62,20.79,8.53,31.85l-15.63,24.38c-4.7,7.33-4.7,16.74,0,24.07l15.63,24.38c7.09,11.06,3.13,25.81-8.53,31.85
	l-25.72,13.3c-7.74,4-12.44,12.14-12.04,20.85l1.35,28.92c0.61,13.12-10.19,23.92-23.31,23.31l-28.92-1.35
	c-8.7-0.4-16.85,4.3-20.85,12.04l-13.3,25.72c-6.03,11.67-20.79,15.62-31.85,8.53l-24.38-15.63c-7.33-4.7-16.74-4.7-24.07,0
	l-24.38,15.63c-11.06,7.09-25.81,3.13-31.85-8.53l-13.3-25.72c-4-7.74-12.14-12.44-20.85-12.04l-28.92,1.35
	c-13.12,0.61-23.92-10.19-23.31-23.31l1.35-28.92c0.4-8.7-4.3-16.84-12.04-20.85l-25.72-13.3c-11.67-6.03-15.62-20.79-8.53-31.85
	l15.63-24.38c4.7-7.33,4.7-16.74,0-24.07L43.7,170.5c-7.09-11.06-3.13-25.81,8.53-31.85l25.72-13.3c7.74-4,12.44-12.14,12.04-20.85
	l-1.35-28.92c-0.61-13.12,10.19-23.92,23.31-23.31l28.92,1.35c8.7,0.4,16.84-4.3,20.85-12.04l13.3-25.72
	c6.03-11.67,20.79-15.62,31.85-8.53l24.38,15.63C238.58,27.66,247.98,27.66,255.31,22.96z"/>
<path class="st1" d="M443.35,227.13c-3.99-6.22-3.99-14.25,0-20.47l15.63-24.38c3.88-6.06,5.04-13.52,3.18-20.47
	c-1.86-6.95-6.6-12.83-12.99-16.13l-25.72-13.3c-6.56-3.39-10.58-10.35-10.24-17.73l1.35-28.92c0.33-7.19-2.39-14.23-7.48-19.32
	c-5.09-5.09-12.09-7.85-19.32-7.48l-28.92,1.35c-7.43,0.3-14.35-3.68-17.73-10.24l-13.3-25.72c-3.3-6.39-9.18-11.12-16.13-12.99
	c-6.95-1.86-14.41-0.71-20.47,3.18l-24.38,15.63c-6.22,3.99-14.25,3.99-20.47,0l-24.38-15.63c-6.06-3.89-13.52-5.04-20.47-3.18
	c-6.95,1.86-12.83,6.6-16.13,12.99l-13.3,25.72c-3.39,6.56-10.37,10.54-17.73,10.24l-28.92-1.35c-7.21-0.37-14.23,2.39-19.32,7.48
	s-7.81,12.13-7.48,19.32l1.35,28.92c0.34,7.38-3.68,14.35-10.24,17.73l-25.72,13.3c-6.39,3.3-11.12,9.18-12.99,16.13
	c-1.86,6.95-0.7,14.41,3.18,20.47l15.63,24.38c3.99,6.22,3.99,14.25,0,20.47l-15.63,24.38c-3.88,6.06-5.04,13.52-3.18,20.47
	c1.86,6.95,6.6,12.83,12.99,16.13l25.72,13.3c6.56,3.39,10.58,10.35,10.24,17.73l-1.35,28.92c-0.33,7.19,2.39,14.23,7.48,19.32
	c5.09,5.09,12.11,7.79,19.32,7.48l28.92-1.35c7.41-0.35,14.35,3.68,17.73,10.24l13.3,25.72c3.3,6.39,9.18,11.12,16.13,12.99
	c2.18,0.58,4.4,0.87,6.62,0.87c4.86,0,9.69-1.38,13.85-4.05l24.38-15.63c6.22-3.99,14.25-3.99,20.47,0l24.38,15.63
	c6.06,3.89,13.53,5.04,20.47,3.18c6.95-1.86,12.83-6.6,16.13-12.99l13.3-25.72c3.39-6.56,10.35-10.61,17.73-10.24l28.92,1.35
	c7.23,0.31,14.23-2.39,19.32-7.48c5.09-5.09,7.81-12.13,7.48-19.32l-1.35-28.92c-0.34-7.38,3.68-14.35,10.24-17.73l25.72-13.3
	c6.39-3.3,11.12-9.18,12.99-16.13c1.86-6.95,0.7-14.41-3.18-20.47L443.35,227.13z"/>
<path class="st2" d="M255.31,22.96l24.38-15.63c11.06-7.09,25.81-3.13,31.85,8.53l13.3,25.72c4,7.74,12.14,12.44,20.85,12.04
	l28.92-1.35c13.12-0.61,23.92,10.19,23.31,23.31l-1.35,28.92c-0.4,8.7,4.3,16.84,12.04,20.85l25.72,13.3
	c11.67,6.03,15.62,20.79,8.53,31.85l-15.63,24.38c-4.7,7.33-4.7,16.74,0,24.07l15.63,24.38c7.09,11.06,3.13,25.81-8.53,31.85
	l-25.72,13.3c-7.74,4-12.44,12.14-12.04,20.85l1.35,28.92c0.61,13.12-10.19,23.92-23.31,23.31l-28.92-1.35
	c-8.7-0.4-16.85,4.3-20.85,12.04l-13.3,25.72c-6.03,11.67-20.79,15.62-31.85,8.53l-24.38-15.63c-7.33-4.7-16.74-4.7-24.07,0
	l-24.38,15.63c-11.06,7.09-25.81,3.13-31.85-8.53l-13.3-25.72c-4-7.74-12.14-12.44-20.85-12.04l-28.92,1.35
	c-13.12,0.61-23.92-10.19-23.31-23.31l1.35-28.92c0.4-8.7-4.3-16.84-12.04-20.85l-25.72-13.3c-11.67-6.03-15.62-20.79-8.53-31.85
	l15.63-24.38c4.7-7.33,4.7-16.74,0-24.07L43.7,170.5c-7.09-11.06-3.13-25.81,8.53-31.85l25.72-13.3c7.74-4,12.44-12.14,12.04-20.85
	l-1.35-28.92c-0.61-13.12,10.19-23.92,23.31-23.31l28.92,1.35c8.7,0.4,16.84-4.3,20.85-12.04l13.3-25.72
	c6.03-11.67,20.79-15.62,31.85-8.53l24.38,15.63C238.58,27.66,247.98,27.66,255.31,22.96z"/>
<circle class="st0" cx="256.59" cy="193.59" r="143.17"/>
<circle class="st3" cx="243.28" cy="203.58" r="148.17"/>
<circle class="st2" cx="243.28" cy="203.58" r="136.51"/>
<path class="st1" d="M283.62,133.66c-15.49,0-29.22,8.08-37.93,20.53c-8.72-12.46-22.44-20.53-37.93-20.53
	c-26.36,0-47.72,23.26-47.72,51.95c0,13.56,4.77,25.91,12.59,35.16c7.7,9.11,41.55,44.25,65.78,59.7c4.5,2.87,10.06,2.87,14.57,0
	c24.23-15.46,58.08-50.6,65.78-59.7c7.82-9.25,12.59-21.6,12.59-35.16C331.34,156.91,309.98,133.66,283.62,133.66z"/>
<path class="st2" d="M277.19,143.64c-13.85,0-26.12,7.22-33.91,18.36c-7.79-11.14-20.06-18.36-33.91-18.36
	c-23.56,0-42.67,20.79-42.67,46.44c0,12.12,4.27,23.16,11.26,31.43c6.88,8.14,37.15,39.56,58.81,53.38c4.03,2.57,9,2.57,13.02,0
	c21.67-13.82,51.93-45.24,58.81-53.38c6.99-8.27,11.26-19.31,11.26-31.43C319.86,164.44,300.75,143.64,277.19,143.64z"/>
<path class="st2" d="M102.87,360.07l-33.51,76.28c-2.88,6.56,2.37,13.79,9.5,13.07l56.41-5.62c3.26-0.32,6.45,1.08,8.41,3.7
	l34.01,45.35c4.3,5.73,13.17,4.7,16.05-1.85l45.36-103.26"/>
<path class="st2" d="M383.68,360.05l33.52,76.29c2.88,6.56-2.37,13.79-9.5,13.07l-56.41-5.62c-3.26-0.32-6.45,1.08-8.41,3.7
	l-34.01,45.35c-4.3,5.73-13.17,4.7-16.05-1.85l-45.37-103.27"/>
</svg>
