<?xml version="1.0" encoding="utf-8"?>
<!-- Generator: Adobe Illustrator 21.0.2, SVG Export Plug-In . SVG Version: 6.00 Build 0)  -->
<svg version="1.1" id="Layer_2" xmlns="http://www.w3.org/2000/svg" xmlns:xlink="http://www.w3.org/1999/xlink" x="0px" y="0px"
	 viewBox="0 0 500 500" style="enable-background:new 0 0 500 500;" xml:space="preserve">
<style type="text/css">
	.st0{fill:#FFFFFF;}
	.st1{fill:#C5E4FF;}
	.st2{fill:none;stroke:#1C3553;stroke-width:6.8;stroke-linecap:round;stroke-linejoin:round;stroke-miterlimit:10;}
</style>
<path class="st0" d="M398.76,147.43c0,19.32-5.33,37.61-15.99,54.85c-10.65,17.25-33.43,37.74-68.32,67.45
	c-18.06,15.38-29.26,27.74-33.62,37.09c-3.65,7.82-5.64,25.06-5.95,44.59c-0.1,6.48-5.41,11.68-11.89,11.68H209
	c-6.52,0-11.82-5.25-11.9-11.77c-0.09-7.33-0.13-13.57-0.13-15.22c0-25.76,4.15-46.95,12.47-63.57s24.97-32.34,49.92-53.12
	c24.95-20.77,39.88-34.38,44.74-40.82c7.5-10.18,11.26-21.39,11.26-33.66c0-17.03-6.65-31.63-19.93-43.79
	c-13.29-12.16-31.2-18.23-53.71-18.23c-21.71,0-39.87,6.34-54.48,19c-12.64,10.97-21.86,26.92-27.67,47.84
	c-1.6,5.75-7.08,9.54-13,8.79l-56.48-7.17c-6.65-0.84-11.23-7-10.28-13.63c4.6-31.96,19.65-59.48,45.18-82.57
	c28.71-25.97,66.4-38.95,113.07-38.95c49.1,0,88.16,13.14,117.17,39.42C384.24,81.93,398.76,112.52,398.76,147.43z M266.79,416.45
	h-56.25c-6.57,0-11.9,5.33-11.9,11.9v56.25c0,6.57,5.33,11.9,11.9,11.9h56.25c6.57,0,11.9-5.33,11.9-11.9v-56.25
	C278.69,421.78,273.36,416.45,266.79,416.45z"/>
<path class="st1" d="M424.72,131.2c0,19.32-5.33,37.61-15.99,54.85c-10.65,17.25-33.43,37.74-68.32,67.45
	c-18.06,15.38-29.26,27.74-33.62,37.09c-3.65,7.82-5.64,25.06-5.95,44.59c-0.1,6.48-5.41,11.68-11.89,11.68h-53.99
	c-6.52,0-11.82-5.25-11.9-11.77c-0.09-7.33-0.13-13.57-0.13-15.22c0-25.76,4.15-46.95,12.47-63.57s24.97-32.34,49.92-53.12
	c24.95-20.77,39.88-34.38,44.74-40.82c7.5-10.18,11.26-21.39,11.26-33.66c0-17.03-6.65-31.63-19.93-43.79
	c-13.29-12.16-31.2-18.23-53.71-18.23c-21.71,0-39.87,6.34-54.48,19c-12.64,10.97-21.86,26.92-27.67,47.84
	c-1.6,5.75-7.08,9.54-13,8.79l-56.48-7.17c-6.65-0.84-11.23-7-10.28-13.63c4.6-31.96,19.65-59.48,45.18-82.57
	C179.66,12.98,217.34,0,264.02,0c49.1,0,88.16,13.14,117.17,39.42C410.2,65.71,424.72,96.29,424.72,131.2z M292.75,400.23H236.5
	c-6.57,0-11.9,5.33-11.9,11.9v56.25c0,6.57,5.33,11.9,11.9,11.9h56.25c6.57,0,11.9-5.33,11.9-11.9v-56.25
	C304.65,405.56,299.32,400.23,292.75,400.23z"/>
<path class="st2" d="M398.76,147.43c0,19.32-5.33,37.61-15.99,54.85c-10.65,17.25-33.43,37.74-68.32,67.45
	c-18.06,15.38-29.26,27.74-33.62,37.09c-3.65,7.82-5.64,25.06-5.95,44.59c-0.1,6.48-5.41,11.68-11.89,11.68H209
	c-6.52,0-11.82-5.25-11.9-11.77c-0.09-7.33-0.13-13.57-0.13-15.22c0-25.76,4.15-46.95,12.47-63.57s24.97-32.34,49.92-53.12
	c24.95-20.77,39.88-34.38,44.74-40.82c7.5-10.18,11.26-21.39,11.26-33.66c0-17.03-6.65-31.63-19.93-43.79
	c-13.29-12.16-31.2-18.23-53.71-18.23c-21.71,0-39.87,6.34-54.48,19c-12.64,10.97-21.86,26.92-27.67,47.84
	c-1.6,5.75-7.08,9.54-13,8.79l-56.48-7.17c-6.65-0.84-11.23-7-10.28-13.63c4.6-31.96,19.65-59.48,45.18-82.57
	c28.71-25.97,66.4-38.95,113.07-38.95c49.1,0,88.16,13.14,117.17,39.42C384.24,81.93,398.76,112.52,398.76,147.43z M266.79,416.45
	h-56.25c-6.57,0-11.9,5.33-11.9,11.9v56.25c0,6.57,5.33,11.9,11.9,11.9h56.25c6.57,0,11.9-5.33,11.9-11.9v-56.25
	C278.69,421.78,273.36,416.45,266.79,416.45z"/>
</svg>
