<?xml version="1.0" encoding="utf-8"?>
<!-- Generator: Adobe Illustrator 21.0.2, SVG Export Plug-In . SVG Version: 6.00 Build 0)  -->
<svg version="1.1" id="Layer_2" xmlns="http://www.w3.org/2000/svg" xmlns:xlink="http://www.w3.org/1999/xlink" x="0px" y="0px"
	 viewBox="0 0 500 500" style="enable-background:new 0 0 500 500;" xml:space="preserve">
<style type="text/css">
	.st0{fill:#FFFFFF;}
	.st1{fill:#C5E4FF;}
	.st2{fill:none;stroke:#1C3553;stroke-width:6.8;stroke-linecap:round;stroke-linejoin:round;stroke-miterlimit:10;}
	.st3{fill:#FFFFFF;stroke:#1C3553;stroke-width:6.8;stroke-linecap:round;stroke-linejoin:round;stroke-miterlimit:10;}
	.st4{fill:#1C3553;stroke:#1C3553;stroke-width:6.8;stroke-linecap:round;stroke-linejoin:round;stroke-miterlimit:10;}
</style>
<path class="st0" d="M488.11,354.72H11.81c-4.57,0-8.28-3.7-8.28-8.27V163.19c0-4.57,3.71-8.27,8.28-8.27h433.55
	c20.14,0,51.03,75.99,51.03,122.48v69.06C496.39,351.02,492.68,354.72,488.11,354.72z"/>
<path class="st1" d="M456.43,359.85c0-24.9-17.49-45.08-39.07-45.08s-39.07,20.19-39.07,45.08l0,0c0,4.53,3.67,8.2,8.2,8.2h61.75
	C452.76,368.04,456.43,364.37,456.43,359.85L456.43,359.85z"/>
<path class="st1" d="M467.92,164.91h-24.82h-3.33H10.19v66.6h429.59c0,0.42,0,0.85,0,1.26c14.99,29.86,59.76,32.04,59.76,32.04
	l0.01-0.01C497.88,232.22,483.21,188.45,467.92,164.91z"/>
<path class="st1" d="M157.3,318.18H92.86c-21.75,0-39.38,17.63-39.38,39.38v0c0,3.95,3.21,7.16,7.16,7.16h57.28h14.32h57.28
	c3.95,0,7.16-3.21,7.16-7.16v0C196.68,335.81,179.05,318.18,157.3,318.18z"/>
<path class="st2" d="M488.11,354.72H11.81c-4.57,0-8.28-3.7-8.28-8.27V163.19c0-4.57,3.71-8.27,8.28-8.27h433.55
	c20.14,0,51.03,75.99,51.03,122.48v69.06C496.39,351.02,492.68,354.72,488.11,354.72z"/>
<path class="st0" d="M216.66,154.92H73.46v-16.65c0-3.68,2.98-6.66,6.66-6.66H210c3.68,0,6.66,2.98,6.66,6.66V154.92z"/>
<path class="st1" d="M226.65,148.26H83.45v-16.65c0-3.68,2.98-6.66,6.66-6.66h129.88c3.68,0,6.66,2.98,6.66,6.66V148.26z"/>
<path class="st2" d="M216.66,154.92H73.46v-16.65c0-3.68,2.98-6.66,6.66-6.66H210c3.68,0,6.66,2.98,6.66,6.66V154.92z"/>
<path class="st2" d="M446.44,348.06c0-20.23-16.4-36.63-36.63-36.63c-20.23,0-36.63,16.4-36.63,36.63v6.66h73.26V348.06z"/>
<path class="st2" d="M146.73,311.43c-12.4,0-47.54,0-59.94,0c-20.23,0-36.63,16.4-36.63,36.63v6.66h59.94h13.32h59.94v-6.66
	C183.36,327.83,166.96,311.43,146.73,311.43z"/>
<circle class="st3" cx="409.81" cy="348.06" r="23.31"/>
<rect x="3.53" y="171.57" class="st2" width="432.92" height="66.6"/>
<path class="st2" d="M496.22,271.46c-1.66-32.58-16.33-76.35-31.62-99.9h-28.15c0,0,0,44.79,0,67.86
	C451.43,269.29,496.21,271.47,496.22,271.46L496.22,271.46z"/>
<rect x="300.32" y="171.81" class="st2" width="56.2" height="182.64"/>
<line class="st2" x1="106.49" y1="171.81" x2="106.49" y2="238.95"/>
<line class="st2" x1="210.34" y1="171.81" x2="210.34" y2="238.95"/>
<line class="st2" x1="369.84" y1="254.82" x2="399.82" y2="254.82"/>
<polygon class="st1" points="493.06,298.11 469.75,298.11 469.75,319.69 493.06,328.08 "/>
<polygon class="st2" points="496.39,308.1 476.41,308.1 476.41,329.68 496.39,338.07 "/>
<circle class="st4" cx="409.81" cy="348.06" r="6.66"/>
<circle class="st3" cx="146.73" cy="348.06" r="23.31"/>
<circle class="st4" cx="146.73" cy="348.06" r="6.66"/>
<circle class="st3" cx="86.78" cy="348.06" r="23.31"/>
<circle class="st4" cx="86.78" cy="348.06" r="6.66"/>
<rect x="6.86" y="308.1" class="st1" width="13.32" height="23.31"/>
<rect x="3.53" y="304.77" class="st2" width="9.99" height="26.64"/>
</svg>
