<?xml version="1.0" encoding="utf-8"?>
<!-- Generator: Adobe Illustrator 21.0.2, SVG Export Plug-In . SVG Version: 6.00 Build 0)  -->
<svg version="1.1" id="Layer_3" xmlns="http://www.w3.org/2000/svg" xmlns:xlink="http://www.w3.org/1999/xlink" x="0px" y="0px"
	 viewBox="0 0 500 500" style="enable-background:new 0 0 500 500;" xml:space="preserve">
<style type="text/css">
	.st0{fill:#FFFFFF;}
	.st1{fill:#C5E4FF;}
	.st2{fill:none;stroke:#1C3553;stroke-width:6.8;stroke-linecap:round;stroke-linejoin:round;stroke-miterlimit:10;}
	.st3{fill:#FFFFFF;stroke:#1C3553;stroke-width:6.8;stroke-linecap:round;stroke-linejoin:round;stroke-miterlimit:10;}
	.st4{fill:none;stroke:#1C3553;stroke-width:3.4;stroke-linecap:round;stroke-linejoin:round;stroke-miterlimit:10;}
</style>
<path class="st0" d="M458.19,253.22c1.13,2.26,3.43,3.68,5.96,3.68h29.19l-9.99-13.32h-19.2
	C459.19,243.58,455.97,248.79,458.19,253.22z"/>
<path class="st1" d="M454.29,251.38c1.47,3.39,4.47,5.52,7.75,5.52H500l-9.99-19.99h-27.97
	C455.6,236.92,451.41,244.74,454.29,251.38z"/>
<path class="st2" d="M458.19,253.22c1.13,2.26,3.43,3.68,5.96,3.68h29.19l-9.99-13.32h-19.2
	C459.19,243.58,455.97,248.79,458.19,253.22z"/>
<path class="st0" d="M28.96,250.24c2.6,0,4.71-2.11,4.71-4.71c0-1.25-0.5-2.45-1.38-3.33L10.6,220.51v29.73H28.96z"/>
<path class="st1" d="M22.05,246.91c2.6,0,4.71-2.11,4.71-4.71c0-1.25-0.5-2.45-1.38-3.33L3.69,217.18v29.73H22.05z"/>
<path class="st2" d="M28.96,250.24c2.6,0,4.71-2.11,4.71-4.71c0-1.25-0.5-2.45-1.38-3.33L10.6,220.51v29.73H28.96z"/>
<path class="st0" d="M3.69,293.54h492.98v3.72c0,5.3-4.3,9.6-9.6,9.6H56.58c-6.05,0-12.06-0.9-17.85-2.66L3.69,293.54z"/>
<path class="st1" d="M3.69,300.21h489.65v4.65c0,6.63-4.27,12-9.54,12H56.22c-6.01,0-11.98-1.12-17.73-3.32L3.69,300.21z"/>
<path class="st2" d="M3.69,293.54h492.98v3.72c0,5.3-4.3,9.6-9.6,9.6H56.58c-6.05,0-12.06-0.9-17.85-2.66L3.69,293.54z"/>
<path class="st3" d="M3.69,293.54v-39.38c0-2.16,1.75-3.92,3.92-3.92h21.35c2.6,0,4.71-2.11,4.71-4.71v0c0-1.25-0.5-2.45-1.38-3.33
	l-21.94-21.94v-6.66c0,0,25.59,2.09,67.05-20.95s82.9-29.01,142.79-29.01s92.27,12.83,119.91,26.65s39.97,23.32,39.97,23.32
	l93.27,16.65l9.99,13.32h-19.2c-4.95,0-8.17,5.21-5.96,9.64v0c1.13,2.26,3.44,3.68,5.96,3.68h29.19l3.33,9.99v26.65H3.69z"/>
<path class="st4" d="M364.12,219.86c23.04,18.43,38.1,48.81,46.16,74.15"/>
<ellipse class="st0" cx="105.29" cy="298.46" rx="38.31" ry="38.23"/>
<ellipse class="st1" cx="110.29" cy="293.47" rx="39.98" ry="39.9"/>
<ellipse class="st2" cx="105.29" cy="298.46" rx="38.31" ry="38.23"/>
<circle class="st0" cx="106.95" cy="296.87" r="26.65"/>
<circle class="st4" cx="104.97" cy="298.54" r="23.32"/>
<g>
	<ellipse class="st0" cx="398.41" cy="298.46" rx="38.31" ry="38.23"/>
	<ellipse class="st1" cx="403.41" cy="293.47" rx="39.98" ry="39.9"/>
	<ellipse class="st2" cx="398.41" cy="298.46" rx="38.31" ry="38.23"/>
	<circle class="st0" cx="400.07" cy="296.87" r="26.65"/>
	<circle class="st4" cx="398.1" cy="298.54" r="23.32"/>
</g>
<path class="st4" d="M471.69,291.88v-3.28c0-3.71,3.01-6.71,6.71-6.71h19.94"/>
<path class="st1" d="M223.56,172.17c-61.78,0-98.36,7.57-134.99,27.92c-0.9,0.5-2.38,1.38-3.27,1.86
	c45.64,5.28,225.4,9.79,282.15,11.25c-4.28-2.92-12.46-7.97-26.7-15.09C315.09,185.28,281.11,172.17,223.56,172.17z"/>
<path class="st4" d="M220.23,178.83c-61.78,0-98.36,7.57-134.99,27.92c-0.9,0.5-2.38,1.38-3.27,1.86
	c45.64,5.28,225.4,9.79,282.15,11.25c-4.28-2.92-12.46-7.97-26.7-15.09C311.76,191.94,277.78,178.83,220.23,178.83z"/>
<line class="st4" x1="248.52" y1="293.54" x2="248.52" y2="180.29"/>
<path class="st4" d="M165.1,293.56c-1.52-19.21-11.87-36.09-27.01-46.32c-3.92-2.65-6.16-7.19-6.16-11.92l0-47.49"/>
<line class="st2" x1="146.92" y1="226.92" x2="176.9" y2="226.92"/>
<line class="st2" x1="263.5" y1="230.26" x2="293.48" y2="230.26"/>
</svg>
