<svg width="478" height="478" viewBox="0 0 478 478" fill="none" xmlns="http://www.w3.org/2000/svg">
<path d="M245.102 8C206 8.04198 167.581 18.255 133.625 37.6348C99.6678 57.0146 71.3414 84.8941 51.4305 118.532C31.5195 152.17 20.7096 190.408 20.0634 229.488C19.4172 268.567 28.9571 307.141 47.7451 341.419L20 458L136.634 430.267C166.717 446.762 200.173 456.165 234.448 457.757C268.723 459.349 302.908 453.089 334.391 439.454C365.875 425.819 393.823 405.171 416.101 379.086C438.378 353.002 454.395 322.173 462.928 288.955C471.461 255.736 472.284 221.007 465.333 187.422C458.383 153.837 443.843 122.285 422.826 95.176C401.808 68.0673 374.869 46.1199 344.066 31.0108C313.264 15.9018 279.413 8.03101 245.102 8V8ZM132.551 110.244H193.904C196.681 110.244 199.344 111.347 201.308 113.309C203.271 115.272 204.374 117.934 204.374 120.709C204.031 134.666 206.377 148.558 211.284 161.628C213.398 166.003 213.862 170.993 212.593 175.683C211.324 180.373 208.406 184.449 204.374 187.163L182.911 208.093C192.428 226.669 204.871 243.594 219.765 258.221C234.279 273.35 251.144 286.037 269.706 295.791L290.646 274.337C301.115 263.872 305.932 263.872 316.192 267.43C329.268 272.336 343.167 274.681 357.129 274.337C359.865 274.465 362.455 275.608 364.391 277.544C366.328 279.479 367.472 282.068 367.599 284.802V346.128C367.472 348.862 366.328 351.451 364.391 353.387C362.455 355.322 359.865 356.466 357.129 356.593C295.541 353.911 237.162 328.391 193.381 285.012C149.914 241.296 124.37 182.916 121.767 121.337C121.792 118.457 122.926 115.697 124.935 113.631C126.943 111.565 129.671 110.352 132.551 110.244V110.244Z" stroke="#C5E4FF" stroke-width="15.8" stroke-linecap="round" stroke-linejoin="round"/>
<path d="M229.102 24C190 24.042 151.581 34.255 117.625 53.6348C83.6678 73.0146 55.3414 100.894 35.4305 134.532C15.5195 168.17 4.70956 206.408 4.0634 245.488C3.41723 284.567 12.9571 323.141 31.7451 357.419L4 474L120.634 446.267C150.717 462.762 184.173 472.165 218.448 473.757C252.723 475.349 286.908 469.089 318.391 455.454C349.875 441.819 377.823 421.171 400.101 395.086C422.378 369.002 438.395 338.173 446.928 304.955C455.461 271.736 456.284 237.007 449.333 203.422C442.383 169.837 427.843 138.285 406.826 111.176C385.808 84.0673 358.869 62.1199 328.066 47.0108C297.264 31.9018 263.413 24.031 229.102 24V24ZM116.551 126.244H177.904C180.681 126.244 183.344 127.347 185.308 129.309C187.271 131.272 188.374 133.934 188.374 136.709C188.031 150.666 190.377 164.558 195.284 177.628C197.398 182.003 197.862 186.993 196.593 191.683C195.324 196.373 192.406 200.449 188.374 203.163L166.911 224.093C176.428 242.669 188.871 259.594 203.765 274.221C218.279 289.35 235.144 302.037 253.706 311.791L274.646 290.337C285.115 279.872 289.932 279.872 300.192 283.43C313.268 288.336 327.167 290.681 341.129 290.337C343.865 290.465 346.455 291.608 348.391 293.544C350.328 295.479 351.472 298.068 351.599 300.802V362.128C351.472 364.862 350.328 367.451 348.391 369.387C346.455 371.322 343.865 372.466 341.129 372.593C279.541 369.911 221.162 344.391 177.381 301.012C133.914 257.296 108.37 198.916 105.767 137.337C105.792 134.457 106.926 131.697 108.935 129.631C110.943 127.565 113.671 126.352 116.551 126.244V126.244Z" stroke="#1C3553" stroke-width="6.8" stroke-linecap="round" stroke-linejoin="round"/>
</svg>
