<?xml version="1.0" encoding="utf-8"?>
<!-- Generator: Adobe Illustrator 21.0.2, SVG Export Plug-In . SVG Version: 6.00 Build 0)  -->
<svg version="1.1" id="Layer_3" xmlns="http://www.w3.org/2000/svg" xmlns:xlink="http://www.w3.org/1999/xlink" x="0px" y="0px"
	 viewBox="0 0 500 500" style="enable-background:new 0 0 500 500;" xml:space="preserve">
<style type="text/css">
	.st0{fill:#FFFFFF;}
	.st1{fill:#C5E4FF;}
	.st2{fill:none;stroke:#1C3553;stroke-width:6.8;stroke-linecap:round;stroke-linejoin:round;stroke-miterlimit:10;}
</style>
<path class="st0" d="M439.64,91.06L161.24,369.46L47.03,255.24c-5.91-5.91-15.5-5.91-21.41,0L7.77,273.09
	c-5.91,5.91-5.91,15.5,0,21.41l142.77,142.77c5.91,5.91,15.5,5.91,21.41,0L478.9,130.32c5.91-5.91,5.91-15.5,0-21.41l-17.85-17.85
	C455.14,85.15,445.55,85.15,439.64,91.06z"/>
<path class="st1" d="M454.48,60.87L164.49,350.87L45.52,231.9c-6.16-6.16-16.15-6.16-22.31,0L4.62,250.48
	c-6.16,6.16-6.16,16.15,0,22.31l148.72,148.72c6.16,6.16,16.15,6.16,22.31,0l319.74-319.74c6.16-6.16,6.16-16.15,0-22.31
	l-18.59-18.59C470.63,54.71,460.64,54.71,454.48,60.87z"/>
<path class="st2" d="M439.64,91.06L161.24,369.46L47.03,255.24c-5.91-5.91-15.5-5.91-21.41,0L7.77,273.09
	c-5.91,5.91-5.91,15.5,0,21.41l142.77,142.77c5.91,5.91,15.5,5.91,21.41,0L478.9,130.32c5.91-5.91,5.91-15.5,0-21.41l-17.85-17.85
	C455.14,85.15,445.55,85.15,439.64,91.06z"/>
</svg>
