<?xml version="1.0" encoding="utf-8"?>
<!-- Generator: Adobe Illustrator 21.0.2, SVG Export Plug-In . SVG Version: 6.00 Build 0)  -->
<svg version="1.1" id="Layer_3" xmlns="http://www.w3.org/2000/svg" xmlns:xlink="http://www.w3.org/1999/xlink" x="0px" y="0px"
	 viewBox="0 0 500 500" style="enable-background:new 0 0 500 500;" xml:space="preserve">
<style type="text/css">
	.st0{fill:#FFFFFF;stroke:#1C3553;stroke-width:6.8;stroke-linecap:round;stroke-linejoin:bevel;stroke-miterlimit:10;}
	.st1{fill:#FFFFFF;}
	.st2{fill:#C5E4FF;}
	.st3{fill:none;stroke:#1C3553;stroke-width:6.8;stroke-linecap:round;stroke-linejoin:round;stroke-miterlimit:10;}
	.st4{fill:#FFFFFF;stroke:#1C3553;stroke-width:6.8;stroke-linecap:round;stroke-linejoin:round;stroke-miterlimit:10;}
	.st5{fill:none;stroke:#1C3553;stroke-width:9.84;stroke-linecap:round;stroke-linejoin:round;stroke-miterlimit:10;}
	.st6{fill:none;stroke:#1C3553;stroke-width:3.4;stroke-linecap:round;stroke-linejoin:round;stroke-miterlimit:10;}
	.st7{fill:#1C3553;}
</style>
<path class="st0" d="M159.75,171.39c0,0-5.08-4.37-12.69-4.37c-7.62,0-17.77,11.33-17.77,26.62s15.23,36.7,38.08,41.07
	S159.75,171.39,159.75,171.39z"/>
<path class="st0" d="M341.69,171.39c0,0,5.08-4.37,12.69-4.37c7.62,0,17.77,11.33,17.77,26.62s-15.23,36.7-38.08,41.07
	C311.23,239.08,341.69,171.39,341.69,171.39z"/>
<rect x="205.81" y="284.18" class="st1" width="89.83" height="109.08"/>
<path class="st2" d="M205.81,295.21c17.06,11.75,37.7,18.21,61,18.21c13.96,0,26.96-2.35,38.82-6.74v-22.49h-99.81V295.21z"/>
<rect x="205.81" y="284.18" class="st3" width="89.83" height="109.08"/>
<path class="st1" d="M320.47,333.38h-24.84c0,23.89-20.11,43.25-44.91,43.25s-44.91-19.36-44.91-43.25h-24.84
	c-59.78,0-108.24,41.81-108.24,101.59v61.43h355.99v-54.78C428.72,381.84,380.25,333.38,320.47,333.38z"/>
<path class="st2" d="M314.74,343.36c-0.02,35.2-29.35,63.84-65.4,63.84s-65.38-28.64-65.4-63.84
	c-53.91,0.87-97.34,44.81-97.34,98.93v49.52h325.49v-49.52C412.08,388.17,368.64,344.23,314.74,343.36z M342.12,449.78
	c0,1.68-1.36,3.04-3.04,3.04h-51.71c-1.68,0-3.04-1.36-3.04-3.04v-18.25c0-1.68,1.36-3.04,3.04-3.04h51.71
	c1.68,0,3.04,1.36,3.04,3.04V449.78z"/>
<path class="st3" d="M320.47,333.38h-24.84c0,23.89-20.11,43.25-44.91,43.25s-44.91-19.36-44.91-43.25h-24.84
	c-59.78,0-108.24,41.81-108.24,101.59v61.43h355.99v-54.78C428.72,381.84,380.25,333.38,320.47,333.38z"/>
<path class="st4" d="M348.87,172.27c0-72.44-43.94-131.17-98.15-131.17s-98.15,58.73-98.15,131.17s34.9,127.84,98.15,127.84
	S348.87,244.71,348.87,172.27z"/>
<line class="st5" x1="220.78" y1="162.03" x2="184.18" y2="162.03"/>
<path class="st6" d="M221.49,247.83c0,0,13.09,7.36,29.23,7.36s29.23-7.36,29.23-7.36"/>
<line class="st6" x1="240.74" y1="268.5" x2="260.7" y2="268.5"/>
<circle class="st7" cx="205.81" cy="186.99" r="9.98"/>
<circle class="st7" cx="295.63" cy="186.99" r="9.98"/>
<line class="st5" x1="280.66" y1="162.03" x2="317.26" y2="162.03"/>
<path class="st3" d="M184.41,100.12c-5.38-4.86-8.61-8.86-10.55-11.84"/>
<line class="st3" x1="139.26" y1="496.4" x2="139.26" y2="459.8"/>
<line class="st3" x1="362.18" y1="496.4" x2="362.18" y2="459.8"/>
<line class="st6" x1="247.39" y1="221.92" x2="254.05" y2="221.92"/>
<path class="st4" d="M250.72,399.92c37.67,0,68.2-29.79,68.2-66.54h-23.29c0,23.89-20.11,43.25-44.91,43.25
	s-44.91-19.36-44.91-43.25h-23.29C182.52,370.12,213.05,399.92,250.72,399.92z"/>
<rect x="292.31" y="429.86" class="st4" width="56.56" height="19.96"/>
<path class="st4" d="M152.57,167.02c0-40.51,21.89-77.4,98.15-77.4s98.15,36.89,98.15,77.4v23.29c9.57-14.65,13.31-31.6,13.31-49.77
	c0-54.81-35.2-99.25-111.46-99.25s-111.46,44.43-111.46,99.25c0,18.17,3.73,35.12,13.31,49.77V167.02z"/>
<path class="st4" d="M250.93,127.1c-82.99,0-105.01-51.15-105.01-103.14c5.93,6.27,14.7,9.98,29.94,9.98s29.94,0,29.94,0
	s-6.65-6.65-6.65-29.94c6.65,9.98,41.01,26.62,73.19,26.62s59.89,24.81,59.89,49.91S323.76,127.1,250.93,127.1z"/>
</svg>
